<svg id="Lager_1" data-name="Lager 1" xmlns="http://www.w3.org/2000/svg" viewBox="0 0 507.43 905.31">
  <g>
    <path d="M61.15,443.78H-13.24c-2.12-.69-4.23-2-6.35-2-23.25-.3-46.51-.43-69.76-.54-3.57,0-7.16.2-10.72.49a35.89,35.89,0,0,0-6.26,1.13c-2,.51-3.46.2-4.61-1.46-1.54-2.21-3.09-4.42-4.54-6.69-3.6-5.64-7.11-11.33-12.28-15.75-1.46-1.24-2.73-2.7-4.09-4.05-4.47-4.43-8.87-8.81-11.83-14.57-3.47-6.77-7.58-13.21-11.39-19.81-2.59-4.49-4.09-9.43-5.85-14.27-.49-1.33-1.38-2.5-1.85-3.83-.27-.79-.34-2.4,0-2.51,1.26-.51,1.68.73,2.15,1.6a27.49,27.49,0,0,1,3.36,8.61c.39,2.51,2.09,3.5,4.39,2.52,3.35-1.43,6.6-3.09,9.88-4.68A4.57,4.57,0,0,0-142,367c1.52-1.65,1.45-2.34,0-4.05a9,9,0,0,1-2.06-3.12,36.4,36.4,0,0,0-3.36-7.83c-1.22-2.21-1.81-4.78-3.09-7-2.74-4.64-5.23-9.44-8.91-13.48a21.22,21.22,0,0,1-3.77-5.46c-1.93-4.33-4.11-8.4-7.63-11.68A13.26,13.26,0,0,1-173,311.4c-1.21-2.11-2.77-2.77-5-1.62-2.81,1.49-5.54,3.12-8.22,4.82a2.8,2.8,0,0,0-1.09,4.06,63.44,63.44,0,0,0,5.05,6.89c1.73,2,3.71,3.69,4.45,6.37a11.15,11.15,0,0,0,1.4,2.48c3.13,5.25,6.2,10.53,9.43,15.73a25.28,25.28,0,0,0,3.14,3.43c.36.4.68.83,1,1.25-.58.13-1.21.5-1.7.36-2-.58-3.2-2.13-4.24-3.91-2.72-4.66-5.5-9.29-8.38-13.85-2.62-4.15-5.39-8.21-8.1-12.31-1.4-2.11-3-4.09-3.16-6.82,0-.43-1-.81-1.49-1.21v-2.4q6.62-4,13.21-7.94c1.22-.73,2.38-1,3.38.26,4.87,6.18,9.69,12.39,13.14,19.52a6.12,6.12,0,0,0,1.31,2A2.32,2.32,0,0,0-157,329a1.75,1.75,0,0,0,.79-1.5,17.83,17.83,0,0,0-1-3.15,44.44,44.44,0,0,1-1.68-4.69c-1.24-5.22-2.38-10.47-3.47-15.73a3.81,3.81,0,0,1,.25-2.41c1.23-2.23,3.35-2.74,5.72-2.5,3.42.34,4.47-1.59,4.13-4.77a42.59,42.59,0,0,1-.41-6.16,7.92,7.92,0,0,0-2.67-6.6,6.76,6.76,0,0,1-2.58-4.7,11.13,11.13,0,0,0-2.95-7.08,9.65,9.65,0,0,1-1.4-11.13c2-4.21,4.27-8.32,6.47-12.45,1.43-2.69,3.18-5.1,6-6.56a12.2,12.2,0,0,0,2.59-2.08,9,9,0,0,1,5.85-2.84,5.4,5.4,0,0,0,4.83-3.71c.48-1.16.65-2.45,1.11-3.62,1-2.65,2.08-5.29,3.28-7.86,1.61-3.45,3.41-6.81,5-10.25a7.65,7.65,0,0,0,.74-3.21,24.23,24.23,0,0,1,1-7.52,13.88,13.88,0,0,0,.48-3.75c0-4.56,0-9.12,0-13.68a27.08,27.08,0,0,0-1-7.27c-.91-3.61-1-7.27,1-10.65.91-1.58,1.89-3.12,2.92-4.63,3.07-4.5,3.55-9.05.45-13.75-.3-.46-.45-1-.75-1.49a4.62,4.62,0,0,1,.16-5.17,9.25,9.25,0,0,1,1.91-2.43c2.84-2.42,3.06-5.46,2-8.68-.86-2.65-2.07-5.18-1-8a1.45,1.45,0,0,0,0-.71c-.74-3.64-1.52-7.27-2.23-10.91a71.27,71.27,0,0,1-1.45-8.4,12.67,12.67,0,0,0-2-6.26q-3.14-4.75-6.29-9.5l-13-19.37a139.45,139.45,0,0,1-9.43-15.7c-1.31-2.63-2.88-5.12-4.26-7.71-.92-1.71-1.57-3.48-.88-5.48a3.2,3.2,0,0,0,.16-1.64,72.73,72.73,0,0,0-2.16-8c-.74-2-2.09-4-4.59-3.89-4.31.26-8.34-.81-12.39-2-2.28-.65-2.79-1.24-2.89-3.69a15.1,15.1,0,0,0-.29-2.59c-1-4.58-1.91-9.17-1.63-13.91.19-3.25.41-6.51.46-9.77q.12-6.7,0-13.43c-.07-3.74-.42-7.48-.42-11.21s.37-7.64.4-11.45c0-2.54-.39-5.08-.39-7.61s.36-5.07.4-7.61c.08-4.48,0-9,0-13.44a11,11,0,0,1,.12-2.15c.89-4.41,1.82-8.81,2.74-13.21,1.14-5.49,2.4-11,3.41-16.47a50.07,50.07,0,0,1,5.23-14.71c2.1-3.91,4.24-7.81,6.57-11.59a30.53,30.53,0,0,1,4.33-5.36c4.81-4.79,9.8-9.4,14.57-14.22a27.21,27.21,0,0,1,5.12-4.53c.82-.49,1.68-.93,2.44-1.49,2.93-2.16,5.72-4.54,8.77-6.52,4.52-2.94,9.22-5.6,13.81-8.42,1.21-.74,2.31-1.66,3.47-2.49,2.19-1.56,4.32-3.24,6.61-4.63,2.69-1.65,5.74-2.77,8.28-4.61,6.86-5,13.51-10.25,20.3-15.33a17.63,17.63,0,0,1,4.34-2.42,59.66,59.66,0,0,0,16.45-8.93,9.47,9.47,0,0,0,3.95-7.07c.13-2.55.06-5.12,0-7.68a3.81,3.81,0,0,0-3-3.53c-5.11-1.1-7.58-4.16-7.59-9.38,0-2.08-.16-4.18,0-6.24.29-2.87-1.12-4.45-3.52-5.54-2.82-1.28-5.66-2.53-8.38-4a6.1,6.1,0,0,1-2.88-2.69c-1.53-4.34-2.29-6.89,2.6-10.66a1.78,1.78,0,0,0,.77-2.16,6.06,6.06,0,0,1,.81-5,3.29,3.29,0,0,0,.13-2c-.13-1.33-.7-2.73-.44-4a2.6,2.6,0,0,0-.8-2.48,43.34,43.34,0,0,1-3.36-4.86c-.51-.92-.35-2.2-.79-3.18a17.69,17.69,0,0,1-1.5-7.87c.07-3.2,0-6.35,1.47-9.33a6.62,6.62,0,0,0,.47-2.78c.05-4.08.07-8.16,0-12.24a11.43,11.43,0,0,0-.68-3.45,18.14,18.14,0,0,1-1.24-6.5c.12-4.39,0-8.8.07-13.19a10,10,0,0,1,.65-3.48c1.11-2.8,2.45-5.51,3.59-8.3,1-2.41,1.85-4.75,1.17-7.58a10,10,0,0,1,.56-6.55,28.55,28.55,0,0,0,2.49-7.65,21.66,21.66,0,0,1,4.16-9.76c2.69-3.72,6-7,9-10.53a49.69,49.69,0,0,0,3.41-4.26c1.47-2.16,2.62-4.56,4.2-6.63,2.93-3.84,6.18-7.45,9.11-11.3a11.38,11.38,0,0,1,15.57-2.8c.65.45,1.27.94,1.9,1.43,1.68,1.33,3.3,2.74,5,4a11,11,0,0,0,7,1.7c3.19-.09,6.51-.43,9.54.31,5.36,1.3,10.54,3.33,15.79,5.06a10.62,10.62,0,0,0,2.48.78c6.37.39,10.39,4.65,14.43,8.79,2.15,2.21,3.82,4.93,6.13,6.94,2.48,2.18,5.52,3.71,8.2,5.69,3.7,2.73,7.46,5.39,10.31,9.12A80.25,80.25,0,0,1,64-368.42a20.7,20.7,0,0,1,.88,3.18c.74,2.58,1.47,5.16,2.25,7.72.48,1.59,1.17,3.12,1.54,4.73.78,3.39,1.25,6.85,2.13,10.2.59,2.22,1.44,4.35,1.33,6.72a5.06,5.06,0,0,0,.63,2.51A12.54,12.54,0,0,1,74-326.88a53.87,53.87,0,0,0,0,6.48,29.81,29.81,0,0,1-2.47,14.18,57.45,57.45,0,0,1-3,6.23,13.79,13.79,0,0,0-1.81,7.53,19,19,0,0,1-.31,5.7c-1.82,6.93-3.24,13.88-3,21.11a16.25,16.25,0,0,1-3.17,10,70.85,70.85,0,0,1-7,7.53,7.1,7.1,0,0,0-2.3,5.53c.08,1.59,0,3.2,0,4.8a14.78,14.78,0,0,0,.88,5.59,18,18,0,0,1,1,5.8c.14,4.55.05,9.12.05,13.67a5.6,5.6,0,0,0,2.63,5.08c2.84,1.7,5.88,3.07,8.83,4.58,3.18,1.61,6.77,2.73,9.43,5a69,69,0,0,0,13.94,9c1.78.87,3.37,2.1,5.14,3,2,1,4,1.82,6.06,2.63,2.65,1.05,5.39,1.88,8,3,5,2.22,9.85,4.73,14.88,6.86a23.06,23.06,0,0,1,6,3.21,11.53,11.53,0,0,0,3.55,1.84,73.39,73.39,0,0,0,9.47,3c3.57.73,6.24,2.76,8.72,5.07,3.73,3.46,7.34,7.07,10.82,10.78q6.1,6.52,11.88,13.38a19.71,19.71,0,0,1,3.37,5.66,60.11,60.11,0,0,1,2,8c1.15,5.25,2.31,10.5,3.34,15.78,1.09,5.52,2.19,11,4.52,16.18a19.56,19.56,0,0,1,1.77,9,16.88,16.88,0,0,0,.38,3.53c1,5.49,1.91,11-.22,16.43a5.2,5.2,0,0,0-.17,1.9,26.76,26.76,0,0,0,5.51,16.14,13.56,13.56,0,0,1,3.13,9.92,14.42,14.42,0,0,0,2.53,9c1.5,2.44,2.88,5,2.71,8a14,14,0,0,0,1.59,6.65c1.5,3.3,2.6,6.64,2.31,10.35a14.88,14.88,0,0,0,.37,3.29,62.11,62.11,0,0,1,1,6.33c.17,3.27.07,6.55,0,9.83a3.45,3.45,0,0,1-.43,2,8,8,0,0,0-1.47,5.39c0,7.68,0,15.35,0,23a11.62,11.62,0,0,1-.41,3c-1.18,4.18-.75,8.71-2.86,12.68a2.6,2.6,0,0,0-.07,1.19A21.21,21.21,0,0,1,199.23,76a15,15,0,0,0-1.45,7.16,14.48,14.48,0,0,1-2.77,9.4,12.65,12.65,0,0,0-2.34,5.14,28.61,28.61,0,0,1-3.08,9,16.7,16.7,0,0,1-9.57,8.8,27.22,27.22,0,0,1-11,1.83c-2.8-.14-5.61-.11-8.4,0a14.92,14.92,0,0,1-8.1-1.54,3.88,3.88,0,0,0-1.35-.38,18.38,18.38,0,0,0-9.71,1.81c-2.23,1-3.51,2.61-3.26,5.22a21.63,21.63,0,0,1,0,3.6,7.54,7.54,0,0,0,2.42,6.21,8.4,8.4,0,0,1,2.82,5.64c.11,3.69,2.19,5.6,5.42,6.65,3.9,1.27,7.87,2.37,11.69,3.84,3.12,1.2,6,2.75,9.58,2.5.85-.06,1.88,1.19,2.71,2a49.4,49.4,0,0,0,3.79,3.86,100.81,100.81,0,0,0,15.2,8.89,20.59,20.59,0,0,1,4.62,3.3,192.66,192.66,0,0,1,13.4,14.59c4.8,5.56,10.3,10.51,15.53,15.69,1.35,1.34,3,2.41,4.2,3.87A54.86,54.86,0,0,0,244,215.42a38.28,38.28,0,0,1,9.66,7.67,5.15,5.15,0,0,1,1.2,2.68,2.43,2.43,0,0,0,1.87,2.38c2.91,1,3.95,3.19,3.28,6.15-.46,2-.78,4-1.31,6a11.63,11.63,0,0,1-1.46,3.48,42.64,42.64,0,0,1-4.35,5.63,73.15,73.15,0,0,1-8.5,8c-2.1,1.58-4.88,2.23-7.32,3.37-2.7,1.26-3.58,3.6-2.29,6.31a11.84,11.84,0,0,0,2.07,2.87c1.67,1.79,3.67,3.32,5.12,5.26,2.74,3.68,5.73,7.33,7.63,11.45a223.27,223.27,0,0,1,10.66,27.45,37.79,37.79,0,0,0,3,6.67c.62,1.17,1.92,2,2.49,3.17,2.17,4.51,6.24,7.15,9.89,10.14a8.78,8.78,0,0,0,4.82,1.7,6.94,6.94,0,0,1,6.1,3.52c1.4,2.47,2.45,5.14,3.9,7.58a9.54,9.54,0,0,1,1.38,5.19c0,5.84-.11,11.68,0,17.52a15.82,15.82,0,0,1-1.92,8.23,12.18,12.18,0,0,0,.15,12.51,25.82,25.82,0,0,0,4,5,10.76,10.76,0,0,1,2.82,4.9c.63,2.45,1.12,4.93,1.7,7.39a11.74,11.74,0,0,0,2.91,5.87,12.9,12.9,0,0,1,2.37,4.05c1.94,4.69,3.69,9.46,6.63,13.66a11.28,11.28,0,0,1,2.06,5.49,8.52,8.52,0,0,0,1.47,4,3,3,0,0,1,.51,3.06H282.89a6.37,6.37,0,0,0-5-2.08c-10.41,0-20.83.32-31.21-.94-1.25-.15-2.12-.15-1.76-1.93.32-1.54-2.45-3.23-3.92-2.55-.85.39-1.57,1-.95,2,.79,1.38-.06,1.47-1.08,1.49a23,23,0,0,0-3.33.14,90.38,90.38,0,0,1-17.2,1.79c-2.87,0-5.75,0-8.62,0-1.73,0-3.28.38-4.18,2.07H198.9a39.32,39.32,0,0,0-6.36-2c-3.14-.44-6.34-.39-9.52-.53a17.3,17.3,0,0,0-2.16,0c-2.05.13-4.11.29-6.17.43a10.37,10.37,0,0,0-2.38.14c-3.45,1.1-5.84-.6-8-2.93S160,434,157.9,431.56c-2.46-2.92-5-5.78-7.23-8.86-3.95-5.41-8.1-10.56-13.64-14.52a95,95,0,0,1-11-9.1,121.27,121.27,0,0,1-9.21-10.62c-3.3-4.06-6.41-8.27-9.63-12.4q-6-7.69-12-15.35c-2.61-3.3-5.27-6.56-7.88-9.86-3.45-4.35-7-8.65-10.25-13.12-2-2.66-3.82-5.26-7-6.63a23,23,0,0,1-2.14-1.5,21.49,21.49,0,0,0-2.24-1c-.27.86-.55,1.72-.78,2.59-.06.2.1.46.12.69.43,3.72,1,7.48-.73,11a10.67,10.67,0,0,0-.88,4.87c0,9.75,0,19.51,0,29.27a14.52,14.52,0,0,1-1.19,6.26,10.2,10.2,0,0,0-.72,3.93c-.09,3.68,0,7.36,0,11a6.32,6.32,0,0,1-.32,2.34,19.63,19.63,0,0,0-1.12,8c.08,3.35,0,6.71,0,10.07,0,2.95-.06,5.87,1,8.72.91,2.52.4,5.32,1.62,7.86C64.09,438.29,64.07,441.34,61.15,443.78ZM-88.2,59.82c-3.69-.23-7.2-.26-10.67-.71s-7.06-.74-10-3.14a4.71,4.71,0,0,1-.51-6.94c2.8-2.89,6.57-4,10-5.8a10.41,10.41,0,0,1,3.41-1c5.33-.71,10.68-1.34,16-2,.91-.1,1.67-.44,1.55-1.41a2.17,2.17,0,0,0-1.12-1.53,69.55,69.55,0,0,0-8.27-2.1c-4-.68-8-1.62-12.24-1.59-4.76,0-9.51-.58-14.27-.84-1.83-.1-3.7.17-5.51-.08a11,11,0,0,1-3.9-1.49,10.81,10.81,0,0,1-2.32-2.31c-2-2.33-1.93-4.54-.05-7a7.67,7.67,0,0,1,4.05-3.08c1.12-.31.77-1,.07-1.48a1.33,1.33,0,0,0-1.24-.05c-.88.73-1.46.23-2.32-.13-2.65-1.11-3.42-3.61-4.72-5.74-1.2-1.94-1.14-3.63-.33-5.94a5.23,5.23,0,0,1,4.11-3.84A6.93,6.93,0,0,0-125,1a8.87,8.87,0,0,0,.74-.51c-.29-.24-.58-.68-.88-.69a18.66,18.66,0,0,0-5,0c-3.07.75-6,0-9-.36A18.2,18.2,0,0,0-149.36.75c-3.3,1.58-6.51,3.33-9.7,5.12-2.38,1.34-3.87,3.43-3.55,6.25.47,4.25,1.15,8.4,3.23,12.32,1.81,3.43,3.42,7.14,2,11.3a3.26,3.26,0,0,0,.24,2.09c.81,1.89,1.7,3.74,2.65,5.57,1.18,2.25,2.41,4.48,3.67,6.68q4.11,7.22,8.31,14.38c.81,1.36,1.87,2.56,2.75,3.87,3.51,5.2,6.59,10.69,11.24,15.06a18.94,18.94,0,0,1,3.53,5c1.42,2.73,2.5,5.63,3.8,8.42,2.67,5.78,7,10.36,10.94,15.24,5,6.19,10.11,12.25,15,18.5,5.17,6.64,12,8.82,20,6.27,5.81-1.87,11.62-3.52,17.87-3.61a33.45,33.45,0,0,0,11.87-2.14c3.57-1.41,7.37-1.74,11.17-2.09a33.8,33.8,0,0,0,7.9-1.46c4.31-1.5,8.94-2.41,12.53-5.56a3.34,3.34,0,0,1,.83-.46c.59-.27,1.11-.54,1.34.47s1.05,1.19,2,.82,2.3-.64,3.39-1.1c4.68-1.95,9.21-4.34,14-5.83A50.11,50.11,0,0,0,21,109.65a99.39,99.39,0,0,0,12.34-9.33c4.18-3.86,8.91-7.13,12.7-11.43,2.2-2.5,4.36-5,6.58-7.49A23.94,23.94,0,0,1,60,75.46c.24-.11.59,0,.89.06-.19.19-.37.41-.58.59-3.91,3.44-8.4,6.26-11.35,10.75-.51.78-.77,1.16-.07,2,1.55,1.79,1.45,3.13-.35,4.67-1,.86-2.28,1.43-3.39,2.19a77.43,77.43,0,0,0-6.79,4.79c-1.81,1.53-1.37,3,.85,4,.29.12.62.14.92.24,6.18,2,12.34,4,18.55,5.85a5.47,5.47,0,0,0,5.92-1.21,5.76,5.76,0,0,1,6.19-1c.36.13.61.59.9.9-.42.06-.9.27-1.25.14a3.38,3.38,0,0,0-4.24,1.17,4.34,4.34,0,0,0-.45,1l.91.23c1.05.3,2.51.27,3,1,1.06,1.37,2.41,1.61,3.86,2,2.13.59,4.17,1.53,6.31,2.06a96.63,96.63,0,0,0,12,2.56c5.64.64,11.24-.57,16.83-1.26,2.2-.27,4.42-.48,6.64-.53,1.33,0,2.67.4,4,.41,4.72.06,9.44.11,14.16,0a17.12,17.12,0,0,0,4.59-1c1.36-.42,2.62-1.14,3.94-1.68,4.09-1.66,8.23-2.36,12.53-.75a9.1,9.1,0,0,0,2.79.55c5.17.2,10.35.38,15.52.5,4.37.09,8-1.76,11.2-4.56,3.95-3.47,5.56-8.21,6.78-13.1a31,31,0,0,1,2.93-7.74A15.64,15.64,0,0,0,196,83.82a25.16,25.16,0,0,1,1.87-9.25,23,23,0,0,0,1.19-4.1c1.05-4.34.19-9,2.33-13.18,0-.07,0-.16,0-.24.25-1.31.53-2.62.76-3.94a29.48,29.48,0,0,0,.65-4.45c.07-7,0-14.07.06-21.11a4.12,4.12,0,0,1,.57-2.45,6.06,6.06,0,0,0,1.33-4.44c-.06-1.68.1-3.37,0-5-.18-2-.55-4.06-.88-6.08-.3-1.86-.83-3.7-1-5.57-.17-2.39,0-4.8-.06-7.2a10.67,10.67,0,0,0-.49-3c-.88-2.7-1.86-5.36-2.84-8-.85-2.33-2.28-2.91-4.82-2.53-3.36.51-6.76.8-10.15,1.11-2.77.25-5.56.34-8.33.58-3,.25-6,.58-9,.87-1,.1-2.07.11-3.08.29-3,.52-6.05,1.15-9.1,1.64-3.27.53-6.57.91-9.86,1.42-3,.45-6,.84-8.88,1.5C131.25-8.26,126.19-7,121.16-5.65c-2,.53-2.52,1.65-1.92,3.4.69,2,1.46,4,2.25,6,1.39,3.54,3,7,4.2,10.6,1.12,3.29,1.91,6.7,2.74,10.08.95,3.85,1.79,7.72.82,11.74-.48,2,.46,3,2.49,3.13,1,0,2.09-.06,3.11.06a4,4,0,0,1,1.34.76c-.4.41-.8.83-1.23,1.22-.09.09-.3,0-.46.06-4.14.31-8,1.69-12,2.58a24.74,24.74,0,0,0-9.63,4.37,22.84,22.84,0,0,1-9.61,4.52,22.65,22.65,0,0,0-11,4.69c-2.8,2.35-5.42,4.94-8,7.56a33.76,33.76,0,0,1-7.77,6.26,25.11,25.11,0,0,0-3.63,2.27c-4.41,3.51-8.73,7.12-13.16,10.62A31.53,31.53,0,0,1,55.23,87c-.42.23-1.07,0-1.62,0,.26-.53.39-1.22.8-1.55,1.36-1.09,2.85-2,4.25-3.06C65.08,77.65,71.57,73,77.86,68c3.49-2.75,6.6-6,10-8.91a65.41,65.41,0,0,1,7.79-6.25c2.36-1.5,5-3,7.92-2.91a11,11,0,0,0,6.66-2.14c3.24-2.14,6.4-4.47,10.26-5.43,3.65-.9,5.15-3.5,5.11-7a36.74,36.74,0,0,0-.92-6.56c-.71-3.56-1.45-7.12-2.34-10.64-.67-2.69-1.73-5.25-1.56-8.14a13.8,13.8,0,0,0-.82-3.92c-1-4.1-3.54-7.43-5.73-10.91-1.82-2.87-4.57-3.77-7.83-2.78L99.53-5.57c-6.07,1.86-12.14,3.75-17.6,7.1A38.49,38.49,0,0,0,78,4.59c-.72.58-1.2,1.22-.58,2.23s1.47.6,2.29.35C83,6.12,86.31,5,89.66,4c2.89-.8,5.63.35,8.38,1,.25.06.4.56.59.86-.26.14-.52.39-.79.39a11,11,0,0,1-3.35-.06c-3.2-.91-6.09,0-9,1.06a24,24,0,0,1-6.36,1.82,22,22,0,0,0-9.54,3.41A53.43,53.43,0,0,1,58,17.5c-4.84,1.45-9.57,3.29-14.32,5-4.38,1.61-8.63,3.7-13.11,4.91-9.85,2.64-19.8,4.89-29.73,7.21-3.46.8-7,1.35-10.48,2-2.8.51-5.62.92-8.41,1.48-1.85.37-3.66.94-5.5,1.37-4.25,1-8.53,1.88-12.76,3-1.46.38-2.73,1.23-4.34,1.43s-3,1.25-4.57,1.84c-3.25,1.23-6.38,2.72-9.93,3.1-1.22.13-2.27,1.52-3.44,2.25A58.81,58.81,0,0,1-88.2,59.82Zm151.47-368c.07-7.86-1.76-14.2-3.32-20.57-.65-2.69-1.87-5.25-2.41-8-.72-3.56-.91-7.22-1.55-10.8-.62-3.43-1.48-6.83-3.83-9.6-1-1.21-2-2.47-3.1-3.62a21.86,21.86,0,0,0-4-3.7,64.51,64.51,0,0,0-7.42-3.76,26.14,26.14,0,0,0-13.4-2.66,6.11,6.11,0,0,1-1.91-.07c-4-1-7.89-.07-11.77.65-2.48.46-4.88,1.48-7.37,1.77-3.39.38-6.77.52-9.9,2.18a12.37,12.37,0,0,1-3.84,1.2,23.93,23.93,0,0,0-8,2.89c-2,1.11-4,2.25-6.09,3.26-4.69,2.3-8.52,5.79-12.61,8.91s-5.62,8-6.85,12.76c-.65,2.52-.77,5.16-1.28,7.72-.14.72-.16,2.07-1.43,1.73-.44-.12-.77-1.24-.85-1.94-.14-1.26.06-2.57-.11-3.83-.08-.57-.7-1.07-1.08-1.6-.53.38-1.23.65-1.55,1.16a4.37,4.37,0,0,0-.46,2,36.85,36.85,0,0,0,0,5c.31,3-.91,5.61-2.06,8.22-.68,1.55-1.4,1.67-2.78.72-.13-.08-.21-.29-.34-.31-.64-.14-1.52-.53-1.86-.26a2.43,2.43,0,0,0-.54,1.88c.13,1.77,1.13,3.4.43,5.31-1.09,3-1.95,6-3,9a4,4,0,0,0,.43,4.05,1.73,1.73,0,0,1-.09,1.65c-2.34,1.73-3.65,4.16-4.93,6.64-.16.31-.54.5-.81.75-.2-.39-.63-.84-.54-1.15.37-1.36.95-2.67,1.36-4s1-2.61.88-3.84-.3-3.12-2-3.17-1.64,1.92-1.91,3.09a103.06,103.06,0,0,0-2.24,11.38c-.35,2.85-1.17,5.77,0,8.67a3.23,3.23,0,0,1-.54,3.34,3.91,3.91,0,0,0-.55,2.66,14.52,14.52,0,0,0,1.39,4.51c2.87,5.2,6.6,9.22,13.25,8.72a4.33,4.33,0,0,1,.72,0c1.67.11,2.81,1,2.73,2.65-.16,3.39.77,6.57,1.37,9.84.68,3.72.37,7.62.63,11.42a17.46,17.46,0,0,0,.91,5.1,16.94,16.94,0,0,1,1,6.78c0,1.12,0,2.24,0,3.36a10.52,10.52,0,0,1-5.43,9.43A23.09,23.09,0,0,0-59.74-207a6.22,6.22,0,0,0-2.08,5.37,37.54,37.54,0,0,0,1.67,7.15,121.7,121.7,0,0,0,5,11.54A60,60,0,0,0-41.85-165c3.08,2.78,5.75,6,8.91,8.72C-29-153-24.83-150-20.71-146.88c2.79,2.09,5.61,4.14,8.49,6.11,1.31.89,2.79,1.51,4.17,2.31.29.17.47.55.7.83a3.46,3.46,0,0,1-1.22.44,2.83,2.83,0,0,1-1.32-.46c-1.9-1.16-3.82-2.29-5.64-3.56-3-2.08-5.9-4.28-8.88-6.39-.3-.22-.81-.15-1.22-.21,0,.44-.1,1,.12,1.31a12.09,12.09,0,0,0,1.81,1.91c2.49,2.22,5,4.41,7.53,6.59a10.66,10.66,0,0,0,1.17.82c5.21,3.4,11.1,5.41,16.66,8.1a8.88,8.88,0,0,0,7.59,0c4.48-1.8,9.2-3.09,13.51-5.22a59.83,59.83,0,0,0,11.12-7.25c5.53-4.51,9.69-10.31,13.48-16.31a25.94,25.94,0,0,0,2.31-5.44c.3-.88.37-2.2-.79-2.44-.69-.14-1.67.55-2.35,1.07a3.52,3.52,0,0,0-.91,1.63c-.52,1.41-.88,2.88-1.49,4.26a14,14,0,0,1-1.7,2.53c-.1.15-.39.16-.59.23a1.16,1.16,0,0,1-.07-.44c.48-2.39.65-4.91,1.54-7.13a56.21,56.21,0,0,1,4.61-8.88c4.67-7.45,5.86-15.65,5.66-24.2,0-2.3-.19-4.6-.47-6.89A19.18,19.18,0,0,0,52-208.33a26.28,26.28,0,0,1-1.51-12.34,69,69,0,0,0-.33-10.45c-.13-1.88-.7-3.72-.85-5.6a52.69,52.69,0,0,1,0-5.76c0-1.06-.26-2.18-1.23-2.31a3,3,0,0,0-2.19,1.34,14.61,14.61,0,0,0-2.09,4.27c-.69,2.6-2.49,4.17-4.49,5.63-.89.66-1.91,1.18-2.74,1.91a11,11,0,0,0-2.9,3.08,4.35,4.35,0,0,1-5.5,2.56c-2-.48-3.73.11-5.6.32-2.83.33-5.66.74-8.42-.68A5.31,5.31,0,0,0,9.6-227c-.48.2-1.19-.24-1.8-.3a21.87,21.87,0,0,0-3.42-.25,16.65,16.65,0,0,0-2.27.67c-3.39.68-6.74,1.13-9.88-1a5.37,5.37,0,0,0-5.24-.68,6.64,6.64,0,0,1-4.82.09c-1.83-.48-3.74-1.21-4.57-3.39-.58-1.52-2-2.26-3.44-3.09-2.79-1.66-5.94-3.11-8-5.45-3.53-3.92-6.77-8.23-8.49-13.38a4.86,4.86,0,0,1,0-1.43c.41.18.94.27,1.19.58a14.13,14.13,0,0,1,1.39,2.18c.39.69.62,1.47,1.07,2.11,2.7,3.79,5,8,9.3,10.34.61.33,1,1.05,1.56,1.48,1.1.86,2.16,2.07,3.42,2.37,2.57.6,3.78,2.36,4.86,4.43a3.44,3.44,0,0,0,4,1.71c2.58-.59,4.65-2.31,4.59-3.91,0-.94-.27-1.88-.34-2.83-.12-1.82-.28-3.65-.25-5.47s.26-3.47.42-5.21.25-3.49.54-5.2c.1-.6.69-1.11,1.07-1.66.33.55,1,1.1,1,1.66,0,1.77-.22,3.55-.27,5.33,0,.83-.08,2.26.28,2.4,1.74.68,2.34,2.07,3.13,3.53.3.55,1.7.75,2.55.67A2.73,2.73,0,0,0-1-242c.86-1.81,1.37-1,1.92.11A4.08,4.08,0,0,0,4-239.58c2.5.4,5,.63,7.51,1.09,3.36.63,6.69,1.34,10.11.39,3.06-.85,6.28-1.52,8.38-4.13,1.37-1.71,2.22-3.83,3.52-5.61A10.79,10.79,0,0,1,37-251.28a7.51,7.51,0,0,0,4.1-4.62,14.14,14.14,0,0,1,.75-2.25c.22-.42.76-.94,1.16-.94s.93.5,1.2.91a5.77,5.77,0,0,1,.5,1.57,37.78,37.78,0,0,0,1.39,4.76c1.15,2.63,3.18,2.9,4.88,1.92a22,22,0,0,0,7.82-7.88,8.84,8.84,0,0,0,.59-2.53c.26-1.14.5-2.29.81-3.43.54-2,1.75-3.87.2-6a5.28,5.28,0,0,1-.5-3c.08-2.7.33-5.39.45-8.09a1.68,1.68,0,0,1,1.8-1.8c1.51-.05,1.5-.8,1.44-2-.13-2.84,0-5.68,0-8.53,0-1.66.43-3.34-1.12-4.63A2.5,2.5,0,0,1,62-301,16.3,16.3,0,0,0,63.27-308.21ZM-89.34,14.37c2.88,0,5.76,0,8.64,0a16.82,16.82,0,0,1,3.51.52c2.38.57,4.73,1.23,7.08,1.89.17.05.26.35.39.54-1.51.79-.31,1.66,0,2.36,1.8,3.75,2.23,7.45-.31,11-1.09,1.54-2.46,2.89-3.61,4.39a3.94,3.94,0,0,0-1,2.19c.06,1.12,1.21,1,2.08,1.06,2.83.3,5.7.47,8.49,1s6,1.61,6.88,4.49c1,3.18,2.89,2.72,5.09,2.4a5.69,5.69,0,0,0,1.34-.38c2.73-1.07,5.43-2.2,8.16-3.23s2.7-1,1.78-3.85c-.5-1.59-1-3.16-1.48-4.76-.08-.29.19-.67.3-1,.22.21.53.37.65.63,1,2.07,1.9,4.17,2.88,6.24.21.44.58,1.11.92,1.14A2.32,2.32,0,0,0-35.17,38a11.26,11.26,0,0,0-.73-1.76c-.74-1.4-1.57-2.76-2.27-4.18a6.85,6.85,0,0,1-.33-1.78c.6.28,1.48.4,1.75.87a47.13,47.13,0,0,1,3.14,6.07c.73,1.76,1.37,2.4,3.14,2.07,1.47-.27,2.94-.57,4.4-.93a4.33,4.33,0,0,0,1.15-.7,7.57,7.57,0,0,0-.77-.83c-2.57-2.26-5.21-4.43-7.7-6.77-2.72-2.55-5.3-5.25-7.93-7.9a7.43,7.43,0,0,1-1.43-1.6,34.63,34.63,0,0,0-6.58-7.84c-.8-.78-1.57-1.6-2.35-2.4C-55.91,5.92-60.1,1.55-64.36-2.78-68.15-6.64-72-10.41-75.82-14.27a10,10,0,0,0-5.84-3.37c-5.71-.83-11.27-2.44-17-3.05-5.19-.55-10.13-.34-14.92,1.71-2.23.95-4,2.61-4.28,5.05s1.45,3.93,3.25,5.23a15.41,15.41,0,0,0,9.36,2.94,32.84,32.84,0,0,1,7.82.59,27.75,27.75,0,0,0,7.06.82c1.6,0,3.2-.08,4.79,0a15.11,15.11,0,0,1,8.5,2.68c3.09,2.35,6,5,8.95,7.48,1.83,1.55,2.59,1.56,4.24,0s1.87-1.43,3,.46a5.9,5.9,0,0,1,.36,1c-.41,0-.83,0-1.24.09-.69.08-1.55,0-2,.31A3.32,3.32,0,0,1-68,7.84a21.65,21.65,0,0,1-3.64-2.18A30.61,30.61,0,0,0-84.44-1.4a11.27,11.27,0,0,0-5.32-.55c-2.3.45-4.76.05-7.16,0a47.68,47.68,0,0,0-4.93,0c-3,.27-6,.71-9,1.08l-6.35.79c-.79.1-1.75,0-2.33.38-2.35,1.67-5.1,2.29-7.71,3.29a2.78,2.78,0,0,0-1.35,1.43,7.14,7.14,0,0,0,1,7.71c1.09,1.4,2.07,2.19,3.9,2.1,4.93-.25,9.87-.43,14.81-.48,2.46,0,4.91.4,7.37.39,2.62,0,5.23-.3,7.85-.41C-92.22,14.31-90.78,14.37-89.34,14.37ZM-86.06,16c-.8,0-1.6,0-2.39,0-3.39.29-6.77.72-10.17.89-5.32.26-10.65.34-16,.51a2.32,2.32,0,0,0-1.17.16c-3,2-7.06,2.23-9.15,5.88a3.31,3.31,0,0,0-.58,2.71,6,6,0,0,0,5.84,4c4-.24,7.89.93,11.85.08a7.64,7.64,0,0,1,2.38.06c3.61.43,7.22.83,10.81,1.38s7.47.74,11.12,2.18c5.25,2.07,7.45,2,11-2.24,4.12-4.83,3.26-10.11-2.43-12.88A23.32,23.32,0,0,0-86.06,16Zm-40.72,341c-.25-.89-.38-1.52-.61-2.11q-2-5.33-4.09-10.63a3.21,3.21,0,0,0-.56-1.05c-.29-.31-.79-.77-1.06-.69a2,2,0,0,0-1.12,1,3.81,3.81,0,0,0-.11,1.66,83.72,83.72,0,0,1,.41,8.8c-.37,6.61,1.77,12.54,4.61,18.26a138.84,138.84,0,0,0,7.06,12.68c4.4,6.95,7.59,14.43,10.56,22.06,1.78,4.58,3.67,9.12,5.79,13.55,2,4.15,4.33,8.13,6.59,12.15a8.41,8.41,0,0,0,1.88,2.12,1.27,1.27,0,0,0,1.22.09,2.54,2.54,0,0,0,.69-1.33c.06-.24-.19-.59-.35-.87-2.86-5.12-5.69-10.27-8.6-15.37-1.31-2.28-2.13-4.53-1.23-7.23a6.11,6.11,0,0,0,.1-3.44c-1.39-4.87-3-9.66-4.41-14.53-.82-2.89-1.19-5.9-2-8.77a29.2,29.2,0,0,1-1.43-8.41,4.94,4.94,0,0,0-2.41-4.62,4.89,4.89,0,0,1-2.38-3.62,7.32,7.32,0,0,0-4.27-5.68,23.66,23.66,0,0,0-4.35-.93c-.43-.1-1-.25-1.18-.56s.26-.78.46-1.15C-127.33,357.86-127,357.35-126.78,357ZM-85.87,57.88l.05-.32a28.65,28.65,0,0,0,3.59,0,28.54,28.54,0,0,0,10.55-3.36,2.17,2.17,0,0,0,1.17-3,12.07,12.07,0,0,1-.16-3.57c0-.72,0-1.67,1-1.45.45.09,1,1,1,1.55a23.2,23.2,0,0,1-.17,3.81C-69,53.12-68,54-66.57,53.24a50.57,50.57,0,0,0,6.49-4c2-1.55,1.88-4.28-.19-5.9A13.44,13.44,0,0,0-63,41.89c-2.25-1-4.57-.84-7-.51-3.45.48-6.94.66-10.4,1-3.7.42-7.38.92-11.06,1.4-2.58.34-5.2.39-7.63,1.55a31.78,31.78,0,0,1-5.46,2.23,6.42,6.42,0,0,0-4,3.11A3.46,3.46,0,0,0-108.4,54a6,6,0,0,0,4.55,2.21,87.49,87.49,0,0,1,9.29.51C-91.65,57-88.77,57.47-85.87,57.88ZM55.55-25.95v.22c3.89-.23,7.79-.37,11.66-.71,4.33-.39,8.66-.86,13-1.54a7.3,7.3,0,0,0,3.4-1.93c1.24-1.13.72-2.48-.92-3-2-.64-3.86-1.38-5.81-2a11.31,11.31,0,0,0-3.41-.85c-3.25,0-6.51.19-9.75.5a25.92,25.92,0,0,0-6,1.19c-3.88,1.37-7.66,3-11.46,4.56a3.75,3.75,0,0,0-1.14.84c-1.08,1.07-.81,2.22.66,2.65a6.11,6.11,0,0,0,1.66.1ZM-151.58,250.38c2.93-.27,5.35-.51,6.26-3.33a1.88,1.88,0,0,1,.7-.88,42.54,42.54,0,0,1,4.36-2.87c3.6-1.9,7.08-3.9,9.74-7.09a5.28,5.28,0,0,1,2.33-1.07c1.56-.53,3.37-.67,4.68-1.55,2.76-1.85,5.26-4.08,7.9-6.13.86-.67,1.75-1.66,2.73-1.79,3.31-.46,5.91-2.2,8.45-4.11a17.37,17.37,0,0,0,2.5-2.18c.29-.31.18-1,.25-1.48-.44,0-1-.24-1.32-.07a12.5,12.5,0,0,0-2.62,1.6c-2.19,1.84-4.46,3.26-7.53,3a7.43,7.43,0,0,0-3.43.76q-7.51,3.36-14.91,6.93a21.31,21.31,0,0,0-3.52,2.41c-1.37,1.05-2.52,2.5-4,3.18a8.49,8.49,0,0,0-4.91,5.44c-.8,2.34-2.19,4.34-5,5a8.54,8.54,0,0,0-3.09,1.75c-.46.35-1,1.28-.8,1.67S-151.73,250.28-151.58,250.38ZM194,289.68a15.55,15.55,0,0,0,9.09-2.63c1.81-1.19,1.93-1.82.36-3.28-3.21-3-7.15-3.34-11.16-2.63s-7.71,1.7-11.53,2.72c-4.79,1.27-9.82,1.9-14,4.9-1,.68-2.48,1.12-1.89,2.6.67,1.7,2.17.68,3.08.25,5.77-2.74,12-2.82,18.14-3.18a8.12,8.12,0,0,1,1.9.14C190,288.92,192,289.31,194,289.68Zm-302.29-77.12a9.79,9.79,0,0,0,1.74-1,86.23,86.23,0,0,0,8.22-6.85c3.84-4,8.4-7,12.75-10.34,3.65-2.75,7.75-4.91,11.65-7.33,2.92-1.82,5.82-3.67,9.49-3.33a1.25,1.25,0,0,0,.46-.09c1.38-.51,1.4-1.83,1.66-3a1.78,1.78,0,0,0-.38-1.18,11.13,11.13,0,0,0-2.62.56,24.05,24.05,0,0,1-3.25,1.39,22,22,0,0,0-8.17,3.67c-.79.54-1.63,1-2.43,1.5-4.52,2.92-9.08,5.8-13.55,8.8-2.9,1.94-5.47,4.47-8.57,6-4.36,2.1-6.14,6-8.21,9.8C-110,212.16-109.62,212.52-108.26,212.56Zm19.92,15.81c.46,2,.75,3.59,1.19,5.11a1.26,1.26,0,0,0,1.09.57,1.24,1.24,0,0,0,.88-.84c.29-3.53,2.22-6.42,3.59-9.53a14,14,0,0,0,1.23-4.05A5.62,5.62,0,0,1-78.78,216a6.25,6.25,0,0,0,1.37-1.93,2.79,2.79,0,0,0,0-1.89c-.37-.87-1.2-.71-1.82-.29-1.38.94-2.74,1.9-4,3a34.36,34.36,0,0,1-11.62,6.37c-3.19,1-5.82,2.87-8.77,4.21-.55.25-.77,1.23-1.14,1.88.75.33,1.55,1,2.25.91a48.72,48.72,0,0,0,4.8-1.19,6.07,6.07,0,0,1,2.24-.14,3.94,3.94,0,0,0,3.87-1.26,28.9,28.9,0,0,1,3.6-3.11c.59-.45,1.26-1.06,2.1-.26s0,1.4-.35,2C-87,225.79-87.78,227.25-88.34,228.37ZM-92,298.25a33.09,33.09,0,0,0-1-3.73,1.84,1.84,0,0,0-1.36-1c-.4,0-1,.66-1.15,1.15a8,8,0,0,0-.81,3.19c.23,4.3-1.17,8.28-2,12.39-1,4.91-2.11,9.7-4.55,14.16-.73,1.36-.64,3.24-.66,4.88s1.24,2.56,2.9,2.25a4.74,4.74,0,0,0,3.57-4.19,38.88,38.88,0,0,1,.12-6.21c.84-4.42,2-8.77,3-13.16C-93.25,304.76-92.67,301.5-92,298.25ZM196.1,267.78l0,.2c-.8,0-1.6,0-2.39,0s-1.52-.05-1.56,1c-.05,1.24.87,1.21,1.65,1.15a25.05,25.05,0,0,1,8.67,1.31,5.23,5.23,0,0,0,1.89.14,7.67,7.67,0,0,1,5,1.21,5.68,5.68,0,0,0,4.94.6,8.3,8.3,0,0,1,3.66.19c.35.06.82,1,.73,1.42-.16.7-1.12,1.37-.11,2a4,4,0,0,0,2.2.75c1.55-.08,3.09-.45,4.64-.66a7.21,7.21,0,0,1,3-.2c2.68.88,5.3,2,7.92,3.07,1,.43,2,1.05,3,1.46.36.14.87-.09,1.31-.16-.19-.4-.26-1-.58-1.18-2-1.39-4.06-2.77-6.15-4-5.68-3.44-12.07-4.64-18.49-5.72-3.9-.66-7.75-1.55-11.75-1.61A61.9,61.9,0,0,1,196.1,267.78Zm28.72,99.29c-1.36-.54-2.91-1.1-4.4-1.78-.41-.18-.65-.73-1-1.12a4.15,4.15,0,0,1,1.52-.34,33.53,33.53,0,0,0,3.44.81,2.44,2.44,0,0,0,1.81-1.05c.19-.31-.3-1.32-.75-1.69a12.81,12.81,0,0,0-7.7-2.71,7.55,7.55,0,0,1-6.63-3.91,9.35,9.35,0,0,0-3-2.9,2.49,2.49,0,0,0-2.36,0c-.77.83.25,1.54.85,2.13a16.58,16.58,0,0,0,1.36,1,16.5,16.5,0,0,1,3.05,2.63,13.07,13.07,0,0,0,3.61,3.65,2,2,0,0,1,.76,1.79c-.86,2,.43,2.8,1.85,3.45a21.41,21.41,0,0,0,10.86,2c2-.17,2-.19,2.1,1.81a1.88,1.88,0,0,0,2,2.08c1.14,0,2.29-.2,2.52-1.32a5,5,0,0,0-.33-3.37c-1.15-1.93-4.09-2.71-6.36-2.07C227.12,366.4,226.14,366.69,224.82,367.07ZM179.64,162c-2,.49-3.76.84-5.42,1.35-.5.15-1.18.72-1.23,1.15s.51,1,.9,1.47c.67.73,1.76,1.26,2.09,2.11a4.45,4.45,0,0,0,5,3.17,13.14,13.14,0,0,1,9.18,2.63,3.63,3.63,0,0,0,2.1,1c1-.11,2.33-.48,2.78-1.21.65-1-.61-1.6-1.46-2-1-.48-2.06-.84-3.06-1.3a28.87,28.87,0,0,1-8.66-6.63A15,15,0,0,0,179.64,162ZM-90.59,212.63c.47-.12.78-.19,1.07-.29,3.45-1.15,6.85-2.49,10.36-3.42,4.71-1.26,7-4.59,8.41-8.86.26-.81.56-1.67-.45-2.31s-1.66-.1-2.28.57a36.72,36.72,0,0,1-10.68,7.45A53.72,53.72,0,0,0-91,210.42a1.82,1.82,0,0,0-.45,1.43C-91.44,212.15-90.88,212.4-90.59,212.63ZM148.74,256.8c3.71-.41,6.87-.67,10-1.13,6.48-1,12.86-2.74,19.52-2.36a6.6,6.6,0,0,0,3.28-1.09,1,1,0,0,0-.13-1.83,8.93,8.93,0,0,0-3.43-.49c-2.28.14-4.55.51-6.82.79-2,.26-4.07.48-6.09.81-1.87.31-3.71.78-5.58,1.12-3.48.63-7,1.23-10.47,1.83-.95.16-2.18.2-1.88,1.52C147.24,256.45,148.47,256.67,148.74,256.8Zm28.64,167a11,11,0,0,0,2.83,7.95c.85,1,1.64,2.14,2.57,3.11a9.25,9.25,0,0,0,1.78,1.2c.18-.72.38-1.43.52-2.16a1.46,1.46,0,0,0-.15-.69c-.89-2.44-1.86-4.86-2.66-7.33a21.09,21.09,0,0,1-1-4.36c-.27-2.52-.35-5.05-.51-7.58,0-.73-.07-1.48-1.12-1.46-1.24,0-1,1-1.08,1.73-.11,1.5-.1,3-.29,4.5C178.09,420.45,177.7,422.14,177.38,423.83Zm4.41-249.92a2.44,2.44,0,0,0-.94,0,17.76,17.76,0,0,0-1.66,1,7.54,7.54,0,0,0,1.22,1.51,5.34,5.34,0,0,0,1.53.62,18.41,18.41,0,0,1,7.57,4.74,18.1,18.1,0,0,0,3.81,2.8c2.27,1.43,4.6,2.78,6.93,4.13a16.17,16.17,0,0,0,2.72,1.38,19.31,19.31,0,0,0,2.88.57,14.39,14.39,0,0,0-2-2.13c-5.53-4-11.33-7.56-16.28-12.31A8.09,8.09,0,0,0,181.79,173.91ZM56.7,200.32l-.24.1A32.18,32.18,0,0,1,58,204.35c1.69,6.66,3.31,13.34,4.92,20,.24,1,.24,2,.48,3a30.09,30.09,0,0,0,1.14,3.6,1.1,1.1,0,0,0,.94.5c.22,0,.54-.57.52-.87-.06-1-.24-2-.4-3-.81-4.84-1.5-9.69-2.49-14.49A27,27,0,0,0,60.55,205c-1-1.73-1.83-3.21-1.72-5.21a1.65,1.65,0,0,0-1-1.28c-1-.26-1.16.53-1.17,1.32Zm104.08,68.6c-.73.13-1.65.37-2.59.47-4.88.51-9.76,1-14.64,1.5-2.63.29-4.26,1.86-4.31,3.9,0,1.17.37,2.23,1.48,2.39a2.65,2.65,0,0,0,2.05-1.18c1.22-2.14,3.15-2.68,5.36-3,4.62-.59,9.23-1.27,13.84-2a1.43,1.43,0,0,0,.92-1c0-.35-.56-.76-.95-1C161.71,268.84,161.32,268.94,160.78,268.92ZM-79.43,377.19A11.54,11.54,0,0,0-78,376c.8-.87,1.55-1.8,2.27-2.74a6.06,6.06,0,0,0,.55-1.24,12.41,12.41,0,0,0-1.49.09c-.38.07-.72.34-1.09.41a2.86,2.86,0,0,1-.89-.15,2.47,2.47,0,0,1,.34-.81c.92-.88,1.91-1.68,2.81-2.57a28.37,28.37,0,0,0,3-3.32c.23-.32-.14-1.32-.53-1.72a1.6,1.6,0,0,0-1.56.17q-4.86,4.71-9.58,9.59a1.84,1.84,0,0,0-.05,1.63c.12.29.87.45,1.32.42.92-.06,1.85-.47,2.33.81C-80.51,376.88-79.93,377-79.43,377.19ZM152.76,158.08c-.46.33-1.66.77-2.11,1.61a3.5,3.5,0,0,0,.32,2.81,9.53,9.53,0,0,0,2.24,2.34c1.17,1.07,2.38,1,3.25-.32.71-1.08,1.38-1.1,2.32-.42a4.17,4.17,0,0,0,1.44.79c.5.1,1.37.07,1.51-.19a2,2,0,0,0,0-1.73A11.71,11.71,0,0,0,152.76,158.08ZM117.4,147.47l-.19-.37c-1.07.53-2.48.8-3.11,1.65-.88,1.19-.1,2.56.77,3.68.1.12.18.26.29.38,1.59,1.87,3.17,3.75,4.79,5.59.59.68,1.32,1.31,2.24.53s.12-1.62-.29-2.29a23.41,23.41,0,0,0-1.88-2.45c-1.27-1.55-1.23-1.78.12-3.16.49-.5,1.16-1.42,1-1.83a3.75,3.75,0,0,0-1.84-1.58A5.07,5.07,0,0,0,117.4,147.47ZM-66,411.56l-.63.32c.26.42.43,1.09.79,1.2a1.24,1.24,0,0,0,1.73-1.1,8.86,8.86,0,0,0-.15-2.35c-.55-3.05-2.52-5.91-1.22-9.2a1.12,1.12,0,0,0,0-.48c-.16-1.16-2-3-2.88-2.78-1.44.33-1.6,1.45-1.72,2.74a10.13,10.13,0,0,0,2.66,8.52C-66.64,409.22-66.42,410.5-66,411.56Zm190.64-242a48.33,48.33,0,0,0,1.21,5,2.84,2.84,0,0,0,4.06,1.68,2.73,2.73,0,0,0,1.66-3.67c-1-2.15-2-4.26-3.16-6.34-.71-1.31-1.88-1.36-2.55-.09A22.39,22.39,0,0,0,124.68,169.56ZM-92.71,271.28a26.33,26.33,0,0,0,.5,3.66c.1.4.9.78,1.43.85.23,0,.78-.7.83-1.13.24-2.12.34-4.26.54-6.39.27-2.75.55-5.5.91-8.24.22-1.75-.13-2.93-1.13-3-1.65-.11-1.38,1.45-1.91,2.32a.79.79,0,0,0,0,.23C-91.95,263.45-92.32,267.31-92.71,271.28ZM-61.8,426l-.34-.07-.9-8c0-.15,0-.31-.05-.47a.63.63,0,0,0-.08-.23c-.42-.76-.93-1-1.72-.41-1.39,1.09-2.78,5.16-2,6.79a11,11,0,0,1,1.28,5.26c0,.5.53,1.42.87,1.45A2.19,2.19,0,0,0-63,429.5,23,23,0,0,0-61.8,426ZM29.27,161.72a30.6,30.6,0,0,0,4-.77,2.25,2.25,0,0,0,1.39-1.39c.07-.37-.72-1.05-1.27-1.37a3.63,3.63,0,0,0-2.21-.75c-2.61.65-3.75-1-5-2.75a4.51,4.51,0,0,0-1.13-1.21c-.41-.27-1.25-.58-1.42-.41a2.06,2.06,0,0,0-.56,1.6,10,10,0,0,0,4,6.26A7.82,7.82,0,0,0,29.27,161.72ZM161.55,303.93a9.79,9.79,0,0,0,2-.52c2.49-1.35,5-2.73,7.4-4.18.74-.44,1.59-1.25.89-2.12a2.52,2.52,0,0,0-2.26-.69,27.74,27.74,0,0,0-4.79,2.45,33.24,33.24,0,0,0-3.59,2.69A11.18,11.18,0,0,0,160,303Zm27.56-56.35c-.62.4-1.5.65-1.65,1.14a2,2,0,0,0,.68,1.77c2.77,1.47,5.6,2.84,8.48,4.08a2,2,0,0,0,1.72-.75,1.88,1.88,0,0,0-.57-1.73,32.74,32.74,0,0,0-4.4-2.75C192.06,248.65,190.63,248.2,189.11,247.58ZM-89.7,434.77a26.19,26.19,0,0,0,1.17,3.14A1.8,1.8,0,0,0-86.17,439c1.13-.5.92-1.49.42-2.4a3.81,3.81,0,0,1,.55-4.94c.88-.92.4-1.35-.7-1.44C-87.92,430-89.66,431.83-89.7,434.77ZM174.08,161.69a10.47,10.47,0,0,0,1.71-.55,1.07,1.07,0,0,0,.28-1.92,50.38,50.38,0,0,0-5.8-3.64c-1-.52-1.85.36-1.71,1.47C168.81,158.93,171.91,161.7,174.08,161.69Zm92.6,167.12c-1.39-1.8-2.94-3.86-4.57-5.85-.11-.13-.95.11-1.18.4a1.89,1.89,0,0,0-.41,1.42,10.62,10.62,0,0,0,1.36,3.52,7.7,7.7,0,0,0,2.94,2.21C265.69,330.9,266.52,330.39,266.68,328.81ZM-115.44,235c-.22-.18-.43-.51-.64-.5a2.81,2.81,0,0,0-1.58.28q-3.91,2.89-7.72,5.93c-.28.23-.29.81-.42,1.22a4,4,0,0,0,1.33,0c3.54-1.13,6.11-3.63,8.59-6.22A4,4,0,0,0-115.44,235Z" transform="translate(189.87 429.02)"/>
    <path d="M-177.73,314.64a6.25,6.25,0,0,1,1.24,1q2.16,3.11,4.21,6.28c.94,1.45,1.82,2.95,2.7,4.44a2.36,2.36,0,0,1,.16.66c-.18-.06-.43-.08-.53-.2-2.47-3.07-5-6.13-7.37-9.24a5.82,5.82,0,0,1-.89-1.9C-178.28,315.44-177.95,315.09-177.73,314.64Z" transform="translate(189.87 429.02)"/>
    <path d="M-59.26,130.19a3,3,0,0,1-.79,0,1.22,1.22,0,0,1-.75-.43c-.07-.14.16-.56.35-.72A7,7,0,0,1-56,127.14c3.11,0,6.21-.2,9.32-.31.14,0,.29,0,.43,0-.11.16-.18.41-.32.47a26.18,26.18,0,0,1-4.4,1.68C-53.62,129.56-56.38,129.8-59.26,130.19Z" transform="translate(189.87 429.02)"/>
    <path d="M30.4-350.15a9.38,9.38,0,0,1,2.14.67c.69.47,1.69,1.12,1.73,1.75s-.94,1.34-1.62,1.82c-1.34,1-2.88,1.62-4.14,2.66a3.36,3.36,0,0,0-.93,3.72c.43,1.44.8,2.89,1.21,4.33a4,4,0,0,0,3.83,3c4.23.4,5.85,2.61,4.89,6.72-.82,3.48-.73,3.64,2.73,5,.14.06.27.16.41.23,1.66.85,1.85,1.85.51,3.08a5.35,5.35,0,0,1-1.8,1.06c-2.74,1.06-5.5,2-8.53,1.93-.6,0-1.62.41-1.75.84a2.69,2.69,0,0,0,.47,2.13c1.34,1.67,2.9,3.17,4.28,4.81a3.22,3.22,0,0,1,0,4.36,18.69,18.69,0,0,0-1.36,2.23,5.63,5.63,0,0,0,1.88,7.51A24,24,0,0,0,39-290a12.46,12.46,0,0,1,5.73,3.72,9.75,9.75,0,0,1,1,1.83c.55,1.09-.23,1.21-.84.88-1.13-.61-1.81-.1-2.44.68-.9,1.11-1.79,2.22-2.61,3.39-1.9,2.67-3.73,3.32-6.8,2.19-2.53-.93-5-1.92-7.51-3-2.09-.91-2.65-2.34-1.63-4.46a6.3,6.3,0,0,0-1.21-7.83c-2.14-2.26-2.16-3.83-.53-6.43.38-.61.81-1.18,1.21-1.77,3.52-5.21,3.21-10-.84-15a16,16,0,0,1-4-10.44c0-3.18-.32-6.36-.42-9.53a9.9,9.9,0,0,1,3.4-8.31c1.69-1.45,3.21-3.12,5-4.42A18.6,18.6,0,0,1,30.4-350.15Z" transform="translate(189.87 429.02)"/>
    <path d="M-13-338.91a13.48,13.48,0,0,1,8.59,3.51A32,32,0,0,1-1-332a3.19,3.19,0,0,1,.55,3.94c-1,2-1.91,4.16-2.85,6.25-.06.14,0,.36-.1.46-.6.64-.7,2.05-1.93,1.62-.3-.11-.2-1.47-.19-2.25a30.15,30.15,0,0,0,.09-3.91c0-.47-1-1.14-1.49-1.16s-1,.71-1.55,1.12c-.06,0-.06.14-.09.22-1.65,5.55-5.49,6.46-10.18,3.92a14.64,14.64,0,0,0-7.48-2.07c-1.73.05-2.74-1.11-2.71-2.91a10,10,0,0,1,3.6-7.77c2.72-2.22,5.76-3.94,9.5-3.9A13.45,13.45,0,0,0-13-338.91Zm-2.89,2.12c-3,.06-8.83,4.72-9.46,7.31a1.52,1.52,0,0,0,1.91,1.9,11.81,11.81,0,0,0,1.64-.95c2.23-1.14,4.46-2.31,6.74-3.37.76-.36,1.71-.32,2.48-.67,1.28-.57,1.39-1.32.53-2.35A5,5,0,0,0-15.86-336.79Z" transform="translate(189.87 429.02)"/>
    <path d="M-3.18-278.69a6,6,0,0,0,5.94-4.45l.47-1.35c.9-2.52,2.66-3.48,5.2-2.95,1.77.36,3.56.67,5.35.86a6.53,6.53,0,0,1,4.42,2.52,1.56,1.56,0,0,1-.36,2.62,3.81,3.81,0,0,1-2.19.75c-4.42-.43-8.41,1-12.49,2.4S-5.22-276-9.41-274.87c-1.37.37-2.71.87-4.08,1.25-1.78.5-3,.09-3.81-1.54-.74-1.46-1.54-3-.65-4.73,2.65-5.22,4.12-11,7.73-15.76A38.07,38.07,0,0,1-6.13-300a2.62,2.62,0,0,1,1.74-.56c.91,0,1.39.47.67,1.37a7,7,0,0,1-1,1c-3.3,2.8-5.12,6.65-7.17,10.3-1.62,2.89-1.09,4.13,1.75,5.75,1.38.78,2.67,1.73,4.08,2.45A18.21,18.21,0,0,0-3.18-278.69Z" transform="translate(189.87 429.02)"/>
    <path d="M47.86-330.27a22.36,22.36,0,0,1-1.41,3.93c-.71,1.23-1.5,1.13-2.45.06a3,3,0,0,1-.42-.58c-1.58-3-3.16-6-4.71-9-.48-.93-.21-1.55.89-1.66C43.11-337.87,47.56-333.78,47.86-330.27Z" transform="translate(189.87 429.02)"/>
    <path d="M56.47-280.38c-.3,2.63-.27,4.84-.88,6.85a17.49,17.49,0,0,1-2.75,4.59c-.21.3-1,.22-1.45.31a4,4,0,0,1,.18-1.32,27,27,0,0,0,2.51-12.7c0-1.41-.38-2.82-.41-4.24,0-.49.49-1,.76-1.5.28.41.73.78.82,1.22C55.73-284.77,56.12-282.36,56.47-280.38Z" transform="translate(189.87 429.02)"/>
    <path d="M-66.57-275.42a9.5,9.5,0,0,1,.87-2.35A9.85,9.85,0,0,0-63.93-284a9.19,9.19,0,0,1,.54-3c.13-.38.77-.69,1.24-.8.16,0,.66.62.71,1A41.37,41.37,0,0,1-61-281.2,3.73,3.73,0,0,1-62.24-279c-1.43,1.39-2.73,2.71-1.64,4.94.15.29-.23.84-.36,1.27-.47-.18-1.11-.22-1.37-.56A10.13,10.13,0,0,1-66.57-275.42Z" transform="translate(189.87 429.02)"/>
    <path d="M9.54-294.56c-2.06,0-4-1.39-4-2.89s2.51-3.49,4.26-3.48c1.51,0,3.71,2,3.7,3.39C13.46-296,11.59-294.55,9.54-294.56Z" transform="translate(189.87 429.02)"/>
    <path d="M-11-348.11c2.21.42,4.07.74,5.92,1.14a1.27,1.27,0,0,1,.69.79c.06.16-.27.6-.5.67a23.62,23.62,0,0,1-3,.71c-1.86.31-3.74.56-5.62.8-1.05.13-2.18-.23-2.22-1.25,0-.65.91-1.57,1.63-1.95A15,15,0,0,1-11-348.11Z" transform="translate(189.87 429.02)"/>
    <path d="M22.08-271.59a3.22,3.22,0,0,1-3.15,2.89,3.67,3.67,0,0,1-2.19-.74,2.3,2.3,0,0,1-.57-2c.7-1.82,4.37-2.27,5.58-.79A2.79,2.79,0,0,1,22.08-271.59Z" transform="translate(189.87 429.02)"/>
  </g>
  <g>
    <path d="M138.57,463.6a3.34,3.34,0,0,0-.78,2.48v2.53a5.16,5.16,0,0,0,.84,3.35,3.65,3.65,0,0,0,2.89,1,9.18,9.18,0,0,0,3.5-.6,4.79,4.79,0,0,0,2-1.28V460.68a60.49,60.49,0,0,0-6.13,1.6A6.8,6.8,0,0,0,138.57,463.6Z" transform="translate(189.87 429.02)" fill="none"/>
    <path d="M-43.47,451.25c-1.84,0-3.08.42-3.73,1.26a7.1,7.1,0,0,0-1,4.21v11c0,2.66.7,4.27,2.12,4.83a7,7,0,0,0,2.48.35,6.77,6.77,0,0,0,2.63-.44c1.44-.61,2.16-2.24,2.16-4.91V456.63a6.89,6.89,0,0,0-1-4.13C-40.39,451.66-41.63,451.25-43.47,451.25Z" transform="translate(189.87 429.02)" fill="none"/>
    <polygon points="70 868.69 63.54 892.06 77.18 892.06 70.16 868.69 70 868.69" fill="none"/>
    <path d="M-6.51,451.65a4.36,4.36,0,0,0-2.37-.46c-2.2,0-3.59.46-4.17,1.37a7,7,0,0,0-.88,3.78v3.34H-5v-3.47q0-2.91-.42-3.51A4.16,4.16,0,0,0-6.51,451.65Z" transform="translate(189.87 429.02)" fill="none"/>
    <path d="M272.84,451.57a6.86,6.86,0,0,0-2.38-.34c-2,0-3.25.44-3.82,1.33a6.88,6.88,0,0,0-.86,3.74v11.44q0,4,2.27,4.85a6.45,6.45,0,0,0,2.27.35h.14c1.93,0,3.17-.46,3.75-1.36a7.19,7.19,0,0,0,.86-3.84V456.3C275.07,453.71,274.32,452.13,272.84,451.57Z" transform="translate(189.87 429.02)" fill="none"/>
    <path d="M-126.28,431.48l-13.49,44.24h10l2.33-8.45h16.11l2.53,8.45H-99l-14.7-44.24Zm0,31.57,6.47-23.38h.15l7,23.38Z" transform="translate(189.87 429.02)"/>
    <path d="M-67.51,449.58a10.85,10.85,0,0,0-6-1.48,17.09,17.09,0,0,0-6.14,1,5.82,5.82,0,0,0-3.19,2.28v-2.89h-7.49v27.27h7.49V454.36A2.51,2.51,0,0,1-81.3,452a8.06,8.06,0,0,1,3.76-.78,7.51,7.51,0,0,1,3.54.69A2.21,2.21,0,0,1-72.72,454v21.73h7.49V454A4.9,4.9,0,0,0-67.51,449.58Z" transform="translate(189.87 429.02)"/>
    <path d="M-38.81,450.26a6.63,6.63,0,0,0-2.65-1.54,11.52,11.52,0,0,0-3.78-.6,13.66,13.66,0,0,0-7.24,1.6q-3.21,2-3.21,7V467a15.91,15.91,0,0,0,.44,4q1.3,5,8.88,5c3.67,0,6.2-.84,7.56-2.52v2.29h7.53V443.37h-7.53Zm0,17.31c0,2.67-.72,4.3-2.16,4.91a6.77,6.77,0,0,1-2.63.44,7,7,0,0,1-2.48-.35c-1.42-.56-2.12-2.17-2.12-4.83v-11a7.1,7.1,0,0,1,1-4.21c.65-.84,1.89-1.26,3.73-1.26s3.08.41,3.73,1.25a6.89,6.89,0,0,1,1,4.13Z" transform="translate(189.87 429.02)"/>
    <path d="M-9.07,448.12q-5.7,0-8.62,1.6-3.73,2-3.73,7.18v9.64a11,11,0,0,0,1,5.38,6.73,6.73,0,0,0,2.28,2.43,11.86,11.86,0,0,0,3.51,1.23,29.78,29.78,0,0,0,5.88.46,20.88,20.88,0,0,0,6.16-.77,6.76,6.76,0,0,0,3.71-2.52q1.22-1.74,1.22-6.09V465.5H-5v2.2c0,.54,0,1.21,0,2a3.61,3.61,0,0,1-.86,2.21c-.54.68-1.64,1-3.27,1a5.91,5.91,0,0,1-3.58-.88c-.75-.58-1.13-2.05-1.13-4.42v-5.43H2.48v-5.15a10.71,10.71,0,0,0-1.17-5.4Q-.81,448.12-9.07,448.12ZM-5,459.68h-8.92v-3.34a7,7,0,0,1,.88-3.78c.58-.91,2-1.37,4.17-1.37a4.36,4.36,0,0,1,2.37.46,4.16,4.16,0,0,1,1.08,1.05q.42.6.42,3.51Z" transform="translate(189.87 429.02)"/>
    <path d="M22.92,449a6.21,6.21,0,0,0-3.34,2.48v-3H12.05v27.27h7.53V453.56q2.85-2.28,9.43-2.28l0-.8a7.75,7.75,0,0,0-.14-2.36A17.43,17.43,0,0,0,22.92,449Z" transform="translate(189.87 429.02)"/>
    <path d="M49.94,461.39,46,459.55q-5-2.46-5-5.12a2.61,2.61,0,0,1,1.13-2.4,6.55,6.55,0,0,1,3.4-.71,3.87,3.87,0,0,1,3.2,1.17,5.67,5.67,0,0,1,.93,3.56v1.89h7.13v-1.31q0-6.09-5.05-7.73a20.69,20.69,0,0,0-6.24-.78q-5.67,0-8.74,1.59a5.15,5.15,0,0,0-3.07,4.83q0,4.08,7.13,7.47l2,.94c1,.46,1.63.76,1.9.9,3.66,1.78,5.48,3.66,5.48,5.63a3.08,3.08,0,0,1-1,2.66,6,6,0,0,1-3.42.76q-4.31,0-4.31-4.73v-2H34.12v2.05q0,4.14,3,6c2,1.25,4.93,1.87,8.88,1.87q11.7,0,11.73-6.62Q57.69,465.08,49.94,461.39Z" transform="translate(189.87 429.02)"/>
    <path d="M106.47,464.24a22.26,22.26,0,0,1-.25,3.66,4,4,0,0,1-1.55,2.53c-.86.69-2.31,1-4.36,1a7.69,7.69,0,0,1-4.39-1,7.47,7.47,0,0,1-1.32-1.32q-.66-.82-.66-4.5v-6H82.79V465q0,5.69,4.3,8.48t13.47,2.78q17.34,0,17.33-12.27V427.38H106.47Z" transform="translate(189.87 429.02)"/>
    <path d="M151.18,449.5q-2.58-1.38-8.31-1.38c-3.83,0-6.77.54-8.84,1.64s-3.11,3.28-3.11,6.58v.78h7.45v-.95a6.55,6.55,0,0,1,.84-3.87c.56-.71,1.67-1.07,3.31-1.07a6.3,6.3,0,0,1,3.49.71c.68.47,1,1.88,1,4.22v2.1q-11.65,2.13-14.23,3.79a4.76,4.76,0,0,0-2.57,4v2.66q.06,7.23,9.39,7.23a12.88,12.88,0,0,0,4.89-.81,5.07,5.07,0,0,0,2.56-1.79v2.37h7.53V457.16a17.08,17.08,0,0,0-.26-3.22A6,6,0,0,0,151.18,449.5ZM147,471.06a4.79,4.79,0,0,1-2,1.28,9.18,9.18,0,0,1-3.5.6,3.65,3.65,0,0,1-2.89-1,5.16,5.16,0,0,1-.84-3.35v-2.53a3.34,3.34,0,0,1,.78-2.48,6.8,6.8,0,0,1,2.33-1.32,60.49,60.49,0,0,1,6.13-1.6Z" transform="translate(189.87 429.02)"/>
    <path d="M187.61,449.58a10.85,10.85,0,0,0-6-1.48,17,17,0,0,0-6.13,1,5.86,5.86,0,0,0-3.2,2.28v-2.89h-7.49v27.27h7.49V454.36a2.51,2.51,0,0,1,1.5-2.35,8.09,8.09,0,0,1,3.76-.78,7.51,7.51,0,0,1,3.54.69A2.21,2.21,0,0,1,182.4,454v21.73h7.49V454A4.9,4.9,0,0,0,187.61,449.58Z" transform="translate(189.87 429.02)"/>
    <path d="M214.37,461.39l-3.94-1.84q-5-2.46-5-5.12a2.6,2.6,0,0,1,1.14-2.4,6.49,6.49,0,0,1,3.39-.71,3.87,3.87,0,0,1,3.2,1.17,5.67,5.67,0,0,1,.93,3.56v1.89h7.13v-1.31q0-6.09-5.05-7.73a20.69,20.69,0,0,0-6.24-.78q-5.67,0-8.74,1.59a5.15,5.15,0,0,0-3.07,4.83q0,4.08,7.13,7.47l2,.94c1,.46,1.63.76,1.9.9,3.66,1.78,5.48,3.66,5.48,5.63a3.08,3.08,0,0,1-1,2.66,5.94,5.94,0,0,1-3.41.76q-4.32,0-4.32-4.73v-2h-7.27v2.05q0,4.14,3,6c2,1.25,4.93,1.87,8.88,1.87q11.7,0,11.73-6.62Q222.12,465.08,214.37,461.39Z" transform="translate(189.87 429.02)"/>
    <path d="M243.79,461.39l-3.95-1.84c-3.34-1.64-5-3.35-5-5.12A2.59,2.59,0,0,1,236,452a6.53,6.53,0,0,1,3.4-.71,3.85,3.85,0,0,1,3.19,1.17,5.61,5.61,0,0,1,.94,3.56v1.89h7.12v-1.31q0-6.09-5-7.73a20.76,20.76,0,0,0-6.25-.78q-5.67,0-8.73,1.59a5.14,5.14,0,0,0-3.07,4.83q0,4.08,7.12,7.47l2,.94c1,.46,1.63.76,1.9.9q5.47,2.67,5.48,5.63a3.1,3.1,0,0,1-1,2.66,6,6,0,0,1-3.42.76q-4.31,0-4.31-4.73v-2H228v2.05c0,2.76,1,4.77,3,6s4.93,1.87,8.88,1.87q11.69,0,11.72-6.62Q251.53,465.08,243.79,461.39Z" transform="translate(189.87 429.02)"/>
    <path d="M270.17,448.12a23,23,0,0,0-5.77.65q-6.15,1.64-6.14,8.28v9.65a10.75,10.75,0,0,0,1.31,5.71Q261.91,476,270.5,476q5.88,0,9-1.8t3.1-7.54v-9.65a9.63,9.63,0,0,0-1.46-5.49Q278.76,448.13,270.17,448.12Zm4.9,19.62a7.19,7.19,0,0,1-.86,3.84c-.58.9-1.82,1.36-3.75,1.36h-.14a6.45,6.45,0,0,1-2.27-.35q-2.26-.84-2.27-4.85V456.3a6.88,6.88,0,0,1,.86-3.74c.57-.89,1.85-1.33,3.82-1.33a6.86,6.86,0,0,1,2.38.34c1.48.56,2.23,2.14,2.23,4.73Z" transform="translate(189.87 429.02)"/>
    <path d="M315.28,449.58a10.87,10.87,0,0,0-6-1.48,17.06,17.06,0,0,0-6.14,1,5.89,5.89,0,0,0-3.2,2.28v-2.89h-7.49v27.27H300V454.36a2.51,2.51,0,0,1,1.5-2.35,8.13,8.13,0,0,1,3.77-.78,7.51,7.51,0,0,1,3.54.69,2.23,2.23,0,0,1,1.28,2.07v21.73h7.49V454A4.9,4.9,0,0,0,315.28,449.58Z" transform="translate(189.87 429.02)"/>
  </g>
</svg>
