<svg id="Lager_1" data-name="Lager 1" xmlns="http://www.w3.org/2000/svg" width="504.65" height="872.79" viewBox="0 0 504.65 872.79">
  <g>
    <path d="M460.88,1048.89H386.49c-2.12-.69-4.22-2-6.35-2-23.09-.3-46.18-.44-69.27-.55-4.05,0-8.12.23-12.17.49a20,20,0,0,0-4.85.94c-2.52.83-3.76.54-5.26-1.69-2.61-3.89-5.32-7.71-7.76-11.7-3.4-5.53-8.34-9.63-12.79-14.18s-9-8.92-12-14.75c-3.47-6.77-7.58-13.21-11.39-19.81-2.59-4.49-4.09-9.43-5.86-14.27-.48-1.32-1.37-2.5-1.84-3.83-.27-.79-.33-2.4-.05-2.51,1.26-.49,1.68.74,2.14,1.61a27.34,27.34,0,0,1,3.36,8.61c.38,2.51,2.09,3.49,4.41,2.5,3.34-1.43,6.62-3,9.85-4.71a4.57,4.57,0,0,0,1.82-2.12,2.27,2.27,0,0,0-.18-2.07c-2.16-1.81-2.91-4.27-3.63-6.81a17.09,17.09,0,0,0-1.33-3c-.9-1.77-2.16-3.42-2.72-5.29-1.13-3.73-3.45-6.77-5.35-10.05-1-1.7-2.26-3.24-3.42-4.85-2.17-3-4.7-5.72-6.13-9.29a27,27,0,0,0-7-10.13,13.46,13.46,0,0,1-2.17-3.1c-1.06-1.79-2.58-2.52-4.38-1.59-3,1.57-6,3.3-8.85,5.11a2.78,2.78,0,0,0-.92,3.93,64.72,64.72,0,0,0,5,6.89c1.73,2,3.71,3.69,4.46,6.37a11.58,11.58,0,0,0,1.39,2.49c3.13,5.25,6.22,10.52,9.44,15.72a25.27,25.27,0,0,0,3.13,3.44c.36.4.7.83,1,1.24-.56.14-1.2.51-1.69.38-2-.58-3.2-2.14-4.24-3.92-2.72-4.66-5.5-9.28-8.38-13.85-2.61-4.15-5.39-8.21-8.1-12.31-1.39-2.11-3-4.09-3.16-6.82,0-.43-1-.8-1.49-1.2v-2.4c4.41-2.65,8.82-5.28,13.22-7.94,1.21-.73,2.37-1,3.38.27,4.87,6.17,9.68,12.38,13.13,19.52a5.84,5.84,0,0,0,1.32,2,2.22,2.22,0,0,0,1.81.49,1.76,1.76,0,0,0,.8-1.5,18.68,18.68,0,0,0-1-3.15,44.44,44.44,0,0,1-1.68-4.69c-1.24-5.22-2.38-10.47-3.47-15.73a3.74,3.74,0,0,1,.25-2.41c1.22-2.23,3.35-2.74,5.72-2.5,3.4.34,4.47-1.58,4.12-4.77a39.37,39.37,0,0,1-.41-5.92,8.93,8.93,0,0,0-2.78-7.06,8.3,8.3,0,0,1-2.4-4.49,12.85,12.85,0,0,0-3.16-7.26,9.56,9.56,0,0,1-1.25-10.94c2-4.21,4.26-8.32,6.46-12.45,1.44-2.69,3.18-5.1,6-6.56a12,12,0,0,0,2.6-2.08,9,9,0,0,1,5.85-2.84,5.42,5.42,0,0,0,4.83-3.71c.47-1.16.64-2.45,1.1-3.62,1-2.65,2.08-5.29,3.29-7.86,1.64-3.52,3.48-6.95,5.13-10.46a6.88,6.88,0,0,0,.63-3,23.64,23.64,0,0,1,1-7.52,13.13,13.13,0,0,0,.48-3.75c.06-4.56,0-9.12,0-13.68a27.49,27.49,0,0,0-1-7.27c-.92-3.6-1-7.27,1-10.65.92-1.58,1.9-3.12,2.92-4.63,3.08-4.49,3.55-9.05.46-13.75-.3-.46-.46-1-.75-1.49-1.18-1.87-.8-3.65.29-5.37a9.67,9.67,0,0,1,1.77-2.23c2.85-2.41,3.07-5.46,2-8.68-.86-2.65-2.08-5.18-1-8.05a1.33,1.33,0,0,0,0-.71c-.74-3.64-1.52-7.27-2.23-10.91a69.43,69.43,0,0,1-1.45-8.41,12.67,12.67,0,0,0-2-6.25q-3.13-4.75-6.3-9.5-6.46-9.69-13-19.37a140.18,140.18,0,0,1-9.43-15.71c-1.3-2.62-2.87-5.12-4.26-7.7-.91-1.71-1.56-3.48-.88-5.48a3.13,3.13,0,0,0,.17-1.65,74.85,74.85,0,0,0-2.16-8c-.75-2-2.09-4-4.59-3.89-4.31.25-8.34-.82-12.39-2-2.29-.65-2.8-1.23-2.9-3.68a14,14,0,0,0-.28-2.59c-1-4.59-1.95-9.17-1.62-13.91.1-1.5.44-3,.45-4.49,0-7,0-13.92,0-20.88,0-.71-.1-1.43-.13-2.14-.1-2.54-.29-5.08-.26-7.62,0-4.3.3-8.6.34-12.9,0-1.81-.39-3.63-.37-5.45,0-2.53.37-5.07.41-7.61.07-4.48,0-9,0-13.43a11,11,0,0,1,.12-2.15c.88-4.41,1.81-8.81,2.73-13.21,1.15-5.49,2.41-11,3.42-16.47a50,50,0,0,1,5.22-14.71c2.1-3.92,4.25-7.82,6.58-11.59a29.73,29.73,0,0,1,4.33-5.36c4.8-4.8,9.79-9.4,14.57-14.22a27.21,27.21,0,0,1,5.12-4.53c.82-.49,1.67-.93,2.44-1.49,2.93-2.17,5.72-4.54,8.77-6.53,4.51-2.94,9.21-5.59,13.8-8.41,1.22-.74,2.32-1.66,3.48-2.49,2.19-1.56,4.31-3.24,6.6-4.64,2.7-1.64,5.75-2.76,8.29-4.6,6.86-5,13.51-10.25,20.3-15.33a17.45,17.45,0,0,1,4.34-2.42,59.92,59.92,0,0,0,16.45-8.93,9.5,9.5,0,0,0,4-7.07c.12-2.56.06-5.12,0-7.68a3.8,3.8,0,0,0-3-3.53c-5.11-1.11-7.58-4.16-7.58-9.38,0-2.08-.16-4.18,0-6.24.28-2.87-1.12-4.45-3.53-5.55-2.81-1.28-5.66-2.53-8.38-4a6.06,6.06,0,0,1-2.87-2.68c-1.53-4.34-2.3-6.88,2.6-10.66a1.76,1.76,0,0,0,.76-2.16,6.13,6.13,0,0,1,.81-5.05,3.25,3.25,0,0,0,.14-2c-.13-1.33-.7-2.73-.44-4a2.6,2.6,0,0,0-.8-2.49,36.86,36.86,0,0,1-3.24-4.65c-.52-.92-.34-2.21-.82-3.17a16.51,16.51,0,0,1-1.55-8.8c.17-2.05-.11-4.28.61-6.12a21,21,0,0,0,1.33-8.39c-.07-2.88.07-5.76-.06-8.64a16.83,16.83,0,0,0-.79-4.14,19.41,19.41,0,0,1-1.12-6.29c.12-4.4,0-8.8.06-13.2a10,10,0,0,1,.66-3.47c1.11-2.8,2.44-5.51,3.59-8.3,1-2.41,1.85-4.75,1.17-7.58a10,10,0,0,1,.55-6.55,28.94,28.94,0,0,0,2.5-7.65,21.59,21.59,0,0,1,4.15-9.76c2.69-3.72,6-7,8.95-10.53a47.82,47.82,0,0,0,3.41-4.26c1.47-2.16,2.62-4.56,4.2-6.63,2.94-3.84,6.19-7.45,9.11-11.31a11.39,11.39,0,0,1,15.57-2.79c.66.45,1.28.95,1.9,1.44,1.68,1.32,3.31,2.73,5.05,4a11,11,0,0,0,7,1.69c3.18-.09,6.51-.43,9.53.31,5.36,1.3,10.54,3.34,15.8,5.06a10.1,10.1,0,0,0,2.47.78c6.37.4,10.39,4.65,14.43,8.79,2.15,2.21,3.83,4.93,6.13,6.94,2.49,2.18,5.53,3.71,8.2,5.69,3.7,2.73,7.46,5.39,10.31,9.12a79.69,79.69,0,0,1,8.53,14.85,21.15,21.15,0,0,1,.88,3.19c.74,2.57,1.47,5.15,2.25,7.71.48,1.59,1.18,3.13,1.54,4.74.76,3.31,1.21,6.69,2.06,10,.6,2.3,1.55,4.49,1.4,7a5,5,0,0,0,.63,2.51,12.42,12.42,0,0,1,1.25,6.48,53.71,53.71,0,0,0,0,6.47,29.69,29.69,0,0,1-2.47,14.18c-.91,2.2-2,4.34-3.11,6.44a13.46,13.46,0,0,0-1.69,7.09,20.24,20.24,0,0,1-.31,5.93c-1.82,6.94-3.24,13.88-3.05,21.11a16.24,16.24,0,0,1-3.18,10c-2.05,2.81-4.72,5.17-7.15,7.7a6.73,6.73,0,0,0-2.12,5.12c.06,1.68,0,3.36,0,5a14.75,14.75,0,0,0,.88,5.59,18,18,0,0,1,1,5.8c.14,4.56.05,9.12.05,13.68a5.6,5.6,0,0,0,2.63,5.07c2.85,1.7,5.88,3.07,8.84,4.58,3.17,1.61,6.77,2.73,9.43,5a68.4,68.4,0,0,0,13.94,9.05c1.77.87,3.37,2.1,5.13,3,2,1,4,1.82,6.07,2.63,2.64,1,5.38,1.88,8,3,5,2.22,9.86,4.73,14.88,6.86a22.8,22.8,0,0,1,6,3.22,12,12,0,0,0,3.55,1.84,75.06,75.06,0,0,0,9.48,3c3.56.74,6.23,2.76,8.72,5.07,3.72,3.46,7.33,7.07,10.81,10.78,4.07,4.35,8,8.83,11.89,13.37a14.12,14.12,0,0,1,3.56,6.34c1.6,7.74,3.53,15.41,5.16,23.14,1.16,5.51,2.2,11,4.53,16.19a19.52,19.52,0,0,1,1.77,9,16.17,16.17,0,0,0,.38,3.53c1,5.5,1.91,11-.22,16.44a5.16,5.16,0,0,0-.17,1.89,26.73,26.73,0,0,0,5.52,16.14,13.6,13.6,0,0,1,3.12,9.92,14.42,14.42,0,0,0,2.53,9c1.5,2.44,2.88,5,2.71,8a14.27,14.27,0,0,0,1.59,6.65c1.44,3.22,2.59,6.47,2.31,10.1a15.2,15.2,0,0,0,.38,3.53,49.88,49.88,0,0,1,1,5.61c.16,3.67.06,7.36,0,11a2.56,2.56,0,0,1-.43,1.55,7.61,7.61,0,0,0-1.46,5.14c0,7.76,0,15.52,0,23.28a11.91,11.91,0,0,1-.41,3c-1.18,4.18-.75,8.72-2.87,12.69a2.12,2.12,0,0,0-.06,1,22.53,22.53,0,0,1-2.1,9.44,12.89,12.89,0,0,0-1.27,6.24,14.6,14.6,0,0,1-2.93,10.07,11.72,11.72,0,0,0-2.14,4.73,36.41,36.41,0,0,1-2.46,7.66,17.48,17.48,0,0,1-11.13,10.66,25.25,25.25,0,0,1-9.35,1.48c-3-.14-6.08-.11-9.11,0a14.92,14.92,0,0,1-8.1-1.55,3.61,3.61,0,0,0-1.35-.37,18.1,18.1,0,0,0-9.71,1.81c-2.1,1-3.47,2.44-3.25,5a24.49,24.49,0,0,1,0,3.83,7.5,7.5,0,0,0,2.43,6.21,8.41,8.41,0,0,1,2.81,5.64c.11,3.69,2.19,5.61,5.43,6.66,3.9,1.26,7.86,2.36,11.69,3.83,3.11,1.2,6,2.75,9.57,2.5.86-.07,1.88,1.19,2.71,2a47.66,47.66,0,0,0,3.8,3.85,101.62,101.62,0,0,0,15.19,8.9,20,20,0,0,1,4.62,3.29,193.11,193.11,0,0,1,13.41,14.6c4.79,5.55,10.3,10.5,15.52,15.68a51.73,51.73,0,0,1,4.2,3.88,55.17,55.17,0,0,0,14.35,12.43,37.93,37.93,0,0,1,9.66,7.67,5.15,5.15,0,0,1,1.2,2.68,2.43,2.43,0,0,0,1.87,2.38c3.09,1.11,4,3.07,3.18,6.37-.28,1.15-.47,2.32-.71,3.49-.54,2.73-1.19,5.41-3.14,7.59-1.1,1.23-2,2.68-3.16,3.85a83.56,83.56,0,0,1-8.52,8c-2.09,1.58-4.88,2.23-7.32,3.37-2.69,1.25-3.57,3.61-2.28,6.31a11.84,11.84,0,0,0,2.07,2.87c1.67,1.79,3.68,3.31,5.12,5.26,2.74,3.68,5.73,7.33,7.63,11.45A223.27,223.27,0,0,1,660,919.29a38.12,38.12,0,0,0,3,6.67c.62,1.17,1.92,2,2.49,3.17,2.17,4.51,6.24,7.14,9.89,10.14a8.86,8.86,0,0,0,4.81,1.7,7,7,0,0,1,6.11,3.52c1.4,2.46,2.46,5.13,3.9,7.57a9.6,9.6,0,0,1,1.38,5.2c0,5.83-.11,11.68,0,17.51a15.88,15.88,0,0,1-1.92,8.24,12.18,12.18,0,0,0,.14,12.51,26.57,26.57,0,0,0,4,5,10.7,10.7,0,0,1,2.82,4.9c.63,2.44,1.12,4.92,1.7,7.38a11.73,11.73,0,0,0,2.91,5.88,12.79,12.79,0,0,1,2.37,4c1.94,4.68,3.68,9.46,6.63,13.65a11.28,11.28,0,0,1,2.06,5.5,8.62,8.62,0,0,0,1.46,3.94,3,3,0,0,1,.52,3.06H682.63a6.11,6.11,0,0,0-4.56-2.07c-8.53-.16-17.07-.3-25.61-.5a61.46,61.46,0,0,1-6.64-.53,1.93,1.93,0,0,1-1.28-1.28c-.2-2-.7-2.76-2.6-3.19-1.63-.36-2.66.62-2.08,2.18.49,1.33-.2,1.36-1.08,1.39a23.25,23.25,0,0,0-3.35.12,89.29,89.29,0,0,1-18.45,1.82c-2.56,0-5.12-.07-7.67,0-1.6.05-3.14.41-4,2.05h-6.72a39,39,0,0,0-6.36-2c-3.13-.44-6.34-.39-9.51-.53a19.43,19.43,0,0,0-2.16,0c-2.06.13-4.12.3-6.17.44a10.47,10.47,0,0,0-2.39.13c-3.45,1.1-5.84-.6-8-2.93s-4.34-4.86-6.45-7.35c-2.45-2.91-5-5.78-7.23-8.86-3.95-5.41-8.1-10.56-13.64-14.52a95,95,0,0,1-11-9.1,121.14,121.14,0,0,1-9.21-10.61c-3.3-4.07-6.41-8.28-9.63-12.41q-6-7.7-12-15.35c-2.61-3.3-5.27-6.56-7.88-9.86-3.44-4.35-7-8.65-10.25-13.12-1.95-2.67-3.83-5.25-7-6.63a23,23,0,0,1-2.14-1.5,19.52,19.52,0,0,0-2.24-1c-.27.86-.55,1.71-.78,2.58-.06.21.1.46.12.7.43,3.71.95,7.47-.73,11a10.65,10.65,0,0,0-.88,4.86c0,9.6,0,19.2,0,28.8a14.88,14.88,0,0,1-1.29,7,8.44,8.44,0,0,0-.62,3.48c-.08,3.75,0,7.51-.05,11.27a6.29,6.29,0,0,1-.32,2.34,19.66,19.66,0,0,0-1.12,8c.08,3.36,0,6.72,0,10.08,0,2.94-.06,5.86,1,8.72.91,2.52.4,5.32,1.62,7.86C463.83,1043.41,463.78,1046.46,460.88,1048.89Zm-149.3-384c-3.72-.22-7.24-.25-10.7-.7s-7.07-.75-10.05-3.14a4.69,4.69,0,0,1-.52-6.93c2.8-2.9,6.57-4,10-5.81a10.48,10.48,0,0,1,3.41-1c5.33-.71,10.68-1.34,16-2,.9-.11,1.67-.45,1.54-1.41a2.13,2.13,0,0,0-1.11-1.53,69.6,69.6,0,0,0-8.27-2.11c-4.05-.68-8.05-1.62-12.24-1.59-4.75,0-9.51-.58-14.26-.84-1.84-.1-3.71.17-5.51-.08a11,11,0,0,1-3.91-1.48,10.81,10.81,0,0,1-2.32-2.31c-2-2.33-1.93-4.54-.05-7a7.65,7.65,0,0,1,4-3.08c1.12-.31.8-1.06.07-1.47-.35-.21-1,0-1.45,0a6.57,6.57,0,0,1-1.89-.16c-2.76-1-3.64-3.56-4.95-5.8-1.15-2-1.12-3.64-.31-6a5.22,5.22,0,0,1,4.11-3.83,6.93,6.93,0,0,0,1.5-.73,8.87,8.87,0,0,0,.74-.51c-.3-.25-.58-.68-.88-.7-1.68-.07-3.45-.39-5,0-3,.82-5.9,0-8.73-.33a19,19,0,0,0-11.31,1.7c-2.9,1.48-5.77,3-8.64,4.58a6.65,6.65,0,0,0-3.5,7.79,13,13,0,0,1,.17,1.65,19.11,19.11,0,0,0,1.82,7.09,45.07,45.07,0,0,1,2.63,6.36c.53,1.69,1.1,3.62.74,5.25a8.67,8.67,0,0,0,.84,6.4c1.74,3.21,3.47,6.42,5.27,9.6,2.72,4.82,5.46,9.64,8.27,14.41.84,1.43,2,2.68,2.91,4.06,3.5,5.19,6.58,10.68,11.23,15a18.72,18.72,0,0,1,3.53,5c1.42,2.73,2.51,5.63,3.8,8.42,2.68,5.77,7,10.36,10.94,15.24,5,6.19,10.11,12.24,15,18.5,5.2,6.66,12,8.85,19.95,6.29,5.89-1.9,11.78-3.56,18.12-3.62a33.76,33.76,0,0,0,12.08-2.26c3.43-1.36,7.08-1.56,10.71-2a39.33,39.33,0,0,0,8.59-1.66c4.15-1.46,8.61-2.38,12.06-5.45a3,3,0,0,1,.83-.46c.59-.27.95-.22,1.14.54.28,1.09,1,1.22,2,.84s2.3-.64,3.39-1.09c4.67-2,9.21-4.35,14-5.84a50.46,50.46,0,0,0,13.25-6.25A99,99,0,0,0,433,705.45c4.18-3.86,8.92-7.12,12.7-11.43,2.2-2.5,4.37-5,6.59-7.49a23.9,23.9,0,0,1,7.39-5.94c.24-.12.59,0,.89,0a7.94,7.94,0,0,1-.57.59c-3.91,3.45-8.41,6.27-11.35,10.75-.51.78-.77,1.17-.07,2,1.54,1.8,1.45,3.14-.35,4.67-1,.86-2.28,1.43-3.39,2.19a77.43,77.43,0,0,0-6.79,4.79c-1.81,1.53-1.37,3,.84,3.95a9.05,9.05,0,0,0,.93.25c6.17,2,12.34,4,18.54,5.85a5.44,5.44,0,0,0,5.92-1.2,5.77,5.77,0,0,1,6.2-1c.36.13.6.59.89.9a3.26,3.26,0,0,1-1.25.13,3.39,3.39,0,0,0-4.24,1.18,4.3,4.3,0,0,0-.43,1l.91.23c1,.3,2.5.28,3,1,1.06,1.37,2.41,1.61,3.86,2,2.13.59,4.17,1.54,6.31,2.06a96.25,96.25,0,0,0,12,2.56c5.64.64,11.23-.57,16.83-1.26,2.2-.27,4.42-.48,6.64-.53,1.33,0,2.67.4,4,.41,4.72.06,9.44.11,14.15,0a17.11,17.11,0,0,0,4.6-1c1.35-.43,2.61-1.14,3.94-1.68,4.08-1.66,8.22-2.36,12.52-.75a9.16,9.16,0,0,0,2.79.55c5,.2,10,.28,15,.53a16.25,16.25,0,0,0,9.42-2.83c5.44-3.35,7.5-8.88,9-14.62a31.68,31.68,0,0,1,3.11-8.16,14.26,14.26,0,0,0,2.1-6.22,24.29,24.29,0,0,1,1.87-9.25,24.58,24.58,0,0,0,1.19-4.11c1-4.34.18-9,2.33-13.17,0-.07,0-.16,0-.24.26-1.32.53-2.63.76-3.95a29.38,29.38,0,0,0,.66-4.44c.06-7,0-14.07,0-21.11a4.19,4.19,0,0,1,.57-2.45,6.06,6.06,0,0,0,1.34-4.44c-.06-1.68.1-3.37,0-5-.18-2-.55-4.06-.88-6.08-.3-1.86-.84-3.7-1-5.57-.17-2.39,0-4.8-.07-7.2a10.77,10.77,0,0,0-.48-3c-.88-2.69-1.86-5.36-2.84-8-.86-2.34-2.28-2.94-4.81-2.56-3.36.51-6.76.82-10.15,1.12-2.77.25-5.55.34-8.32.57-3.08.26-6.15.59-9.23.89-.94.09-1.9.1-2.84.27-3,.53-6,1.16-9.09,1.65-3.28.53-6.58.91-9.86,1.42-2.81.44-5.64.86-8.41,1.48q-8,1.8-15.9,3.84c-1.75.45-2.27,1.66-1.71,3.32.69,2,1.46,4,2.25,6,1.4,3.54,3,7,4.21,10.6,1.14,3.36,2,6.83,2.82,10.29.92,3.87,1.68,7.75.72,11.77-.43,1.83.53,2.83,2.48,2.92,1.11.05,2.24,0,3.35.07.39,0,.75.47,1.12.72a5.78,5.78,0,0,1-1,1.15c-.29.2-.78.1-1.17.18-2.63.5-5.28,1-7.9,1.55-1.31.29-2.55,1-3.86,1.13a19.51,19.51,0,0,0-9.23,4.09A23.59,23.59,0,0,1,503,658c-4.06.72-7.9,2-11,4.69s-6.09,5.87-9.22,8.7a72.54,72.54,0,0,1-5.8,4.51c-1.41,1-3,1.8-4.37,2.88-4.42,3.5-8.74,7.12-13.16,10.61a32.14,32.14,0,0,1-4.39,2.77c-.43.23-1.09,0-1.64,0,.26-.53.38-1.22.8-1.55,1.36-1.09,2.85-2,4.24-3.06,6.42-4.78,12.91-9.48,19.2-14.43,3.49-2.75,6.6-6,10-8.91a67.47,67.47,0,0,1,7.79-6.25c2.36-1.49,5-3,7.92-2.91a11,11,0,0,0,6.66-2.13c3.24-2.14,6.39-4.48,10.26-5.44,3.65-.9,5.15-3.47,5.12-7a35.89,35.89,0,0,0-.93-6.55c-.7-3.56-1.44-7.12-2.33-10.64-.67-2.69-1.72-5.26-1.56-8.14a14.15,14.15,0,0,0-.82-3.92c-1-4.1-3.52-7.44-5.73-10.91a6.35,6.35,0,0,0-7.82-2.8c-2.2.67-4.38,1.39-6.59,2a75.13,75.13,0,0,0-18.06,7.23,30.67,30.67,0,0,0-3.72,2.95c-.69.58-1.24,1.2-.62,2.23s1.44.65,2.28.39c3.32-1.06,6.61-2.18,10-3.13,2.89-.81,5.63.35,8.38,1,.26.06.41.56.62.85-.26.15-.52.41-.79.42a11.64,11.64,0,0,1-3.34-.06c-3.2-.92-6.09,0-9,1.05a23.71,23.71,0,0,1-6.36,1.82,21.25,21.25,0,0,0-9.35,3.27,54,54,0,0,1-12,5.11c-4.84,1.44-9.54,3.36-14.29,5.11-4.3,1.6-8.48,3.62-12.9,4.8-9.85,2.63-19.8,4.89-29.73,7.21-3.46.8-7,1.35-10.48,2-2.8.51-5.62.92-8.41,1.48-1.85.37-3.66.94-5.5,1.37-4.17,1-8.37,1.87-12.53,2.9-1.62.4-3,1.37-4.81,1.52-1.48.13-2.86,1.24-4.33,1.8-3.25,1.22-6.37,2.72-9.93,3.1-1.21.13-2.27,1.52-3.44,2.25A58.73,58.73,0,0,1,311.58,664.93ZM463,297.07c.05-8-1.77-14.23-3.24-20.54-.64-2.77-1.94-5.39-2.51-8.17-.74-3.55-.91-7.22-1.56-10.8s-1.47-6.83-3.83-9.6c-1-1.2-2-2.47-3.1-3.62a21.88,21.88,0,0,0-4-3.69,62.81,62.81,0,0,0-7.41-3.76,26.05,26.05,0,0,0-13.4-2.65,6.11,6.11,0,0,1-1.91-.08c-4-1-7.89-.07-11.78.65-2.48.47-4.87,1.48-7.36,1.77-3.4.39-6.77.53-9.9,2.18a12.19,12.19,0,0,1-3.84,1.2,24.51,24.51,0,0,0-8,2.89c-2,1.12-4,2.26-6.08,3.27-4.69,2.29-8.52,5.79-12.61,8.9s-5.62,8-6.85,12.76c-.65,2.52-.77,5.16-1.28,7.72-.14.72-.16,2.07-1.43,1.72-.44-.12-.77-1.24-.84-1.93-.14-1.27.06-2.57-.11-3.83-.08-.57-.71-1.07-1.09-1.6-.53.38-1.24.66-1.55,1.17a4.37,4.37,0,0,0-.46,2,36.85,36.85,0,0,0,0,5c.31,3-.91,5.61-2.06,8.22-.68,1.55-1.39,1.66-2.78.71-.13-.09-.22-.29-.35-.32-.63-.13-1.52-.52-1.86-.25a2.5,2.5,0,0,0-.53,1.89c.13,1.77,1.12,3.41.43,5.31-1.1,3-1.95,6.17-3,9.21a4,4,0,0,0,.33,3.61c.27.5.34,1.62,0,1.85-2.32,1.74-3.63,4.17-4.92,6.65-.16.3-.54.48-.82.72-.18-.39-.6-.85-.51-1.16a32.94,32.94,0,0,1,1.4-4c.73-1.71,1.5-3.4.47-5.21-.41-.71-1-1.63-1.65-1.79-1.14-.28-1.21,1-1.49,1.75a11.21,11.21,0,0,0-.42,1.36c-.77,3.79-1.75,7.56-2.2,11.39-.34,2.92-1.16,5.9,0,8.91.31.76-.3,1.9-.51,2.87a8.89,8.89,0,0,0-.62,2.89,13.53,13.53,0,0,0,1.39,4.51c2.87,5.19,6.61,9.21,13.26,8.7a4.33,4.33,0,0,1,.72,0c1.66.11,2.79,1.05,2.71,2.67-.16,3.39.78,6.57,1.37,9.84.68,3.72.37,7.61.63,11.42a18.08,18.08,0,0,0,.91,5.09,16.11,16.11,0,0,1,1,6.54c-.06,1.2,0,2.4,0,3.6a10.57,10.57,0,0,1-5.45,9.43,22.66,22.66,0,0,0-4.42,3.58,6.19,6.19,0,0,0-2.07,5.37,37.54,37.54,0,0,0,1.67,7.15,121.78,121.78,0,0,0,5.05,11.54,59.94,59.94,0,0,0,13.25,17.92c3.08,2.79,5.76,6,8.91,8.73,3.91,3.33,8.11,6.34,12.23,9.44,2.79,2.09,5.62,4.14,8.5,6.11,1.3.89,2.78,1.51,4.16,2.31.29.17.46.55.69.84a3.6,3.6,0,0,1-1.23.42,2.88,2.88,0,0,1-1.33-.47c-1.89-1.16-3.81-2.3-5.62-3.57-3-2.08-5.91-4.28-8.89-6.39-.3-.21-.81-.12-1.22-.17,0,.45-.07,1,.15,1.31a12.12,12.12,0,0,0,1.81,1.91q3.66,3.24,7.37,6.43a11,11,0,0,0,1.34,1c5.22,3.38,11.09,5.42,16.65,8.1a8.94,8.94,0,0,0,7.6,0c4.48-1.8,9.19-3.09,13.5-5.23a59.78,59.78,0,0,0,11.12-7.24c5.53-4.51,9.68-10.31,13.48-16.31a26,26,0,0,0,2.3-5.45c.31-.87.37-2.19-.78-2.43-.69-.15-1.67.54-2.36,1.06a3.67,3.67,0,0,0-.91,1.62c-.52,1.41-.88,2.89-1.48,4.26a14.62,14.62,0,0,1-1.7,2.54c-.1.14-.39.16-.59.23a1.14,1.14,0,0,1-.07-.43c.48-2.4.65-4.91,1.54-7.14a56.65,56.65,0,0,1,4.61-8.88c4.68-7.44,5.85-15.65,5.66-24.19-.05-2.3-.2-4.61-.47-6.89a19.6,19.6,0,0,0-1.08-4.82,26.4,26.4,0,0,1-1.51-12.34,68.84,68.84,0,0,0-.34-10.44c-.13-1.88-.7-3.73-.85-5.6a55.32,55.32,0,0,1,0-5.76c0-1.06-.26-2.18-1.23-2.31a3,3,0,0,0-2.2,1.33,14.66,14.66,0,0,0-2.08,4.26c-.7,2.6-2.49,4.17-4.49,5.64a31,31,0,0,0-2.73,1.91,16.55,16.55,0,0,0-3.17,3.48c-1,1.64-2.15,2.54-4,2.24a26,26,0,0,0-7.72.37c-2.62.36-5.36.49-7.93-1a4.44,4.44,0,0,0-4.1-.45c-.47.21-1.2-.23-1.81-.3a21.83,21.83,0,0,0-3.41-.25,16.78,16.78,0,0,0-2.28.67c-3.38.68-6.73,1.14-9.87-1a5.42,5.42,0,0,0-5.25-.69,6.75,6.75,0,0,1-4.82.1c-1.83-.49-3.74-1.21-4.57-3.39-.58-1.52-2-2.27-3.44-3.09-2.79-1.66-5.94-3.11-8-5.45-3.54-3.92-6.76-8.23-8.49-13.38a4.55,4.55,0,0,1,0-1.43c.4.19.93.27,1.19.59a16.22,16.22,0,0,1,1.38,2.19,21.78,21.78,0,0,0,1.07,2.1c2.71,3.79,5,8,9.3,10.34.61.33,1,1.05,1.56,1.48,1.1.86,2.16,2.07,3.42,2.36,2.59.6,3.76,2.39,4.85,4.44a3.23,3.23,0,0,0,4,1.66c2.63-1,4.65-1.87,4.62-3.87,0-.79-.16-1.58-.23-2.37a46,46,0,0,1-.4-5c.05-2.86.25-5.71.47-8.57a20.12,20.12,0,0,1,.64-3.5,1.45,1.45,0,0,1,.95-.89c.27,0,.82.53.88.89a13.42,13.42,0,0,1,.13,3c-.09,1.26-.4,2.51-.48,3.77,0,.59.11,1.63.41,1.73,1.79.59,2.33,2.07,3.15,3.5.32.55,1.73.78,2.55.65a3.33,3.33,0,0,0,2.06-1.47c.62-1,.86-1.28,1.49-.06,1.24,2.4,3.53,2.95,6,3.19,1.65.16,3.33.25,5,.56,3.36.65,6.7,1.35,10.11.39,3.05-.86,6.28-1.52,8.37-4.15,1.37-1.71,2.21-3.83,3.51-5.61a11.24,11.24,0,0,1,3.46-3.44,7.45,7.45,0,0,0,4-4.39,15.27,15.27,0,0,1,.72-2.26c.26-.49.85-1.13,1.28-1.12s1,.66,1.29,1.13a4.78,4.78,0,0,1,.39,1.36,35.6,35.6,0,0,0,1.39,4.75c1.11,2.51,3,2.94,4.89,1.89a21.83,21.83,0,0,0,7.82-7.89,7.62,7.62,0,0,0,.57-2.29c.28-1.22.5-2.46.82-3.66.54-2,1.74-3.88.2-6a5.2,5.2,0,0,1-.5-3c.07-2.7.32-5.39.45-8.09a1.68,1.68,0,0,1,1.82-1.78c1.32,0,1.51-.66,1.47-1.84-.08-3,0-6,0-9,0-1.59.29-3.18-1.18-4.41-1-.83-.88-2-.44-3.08A16.59,16.59,0,0,0,463,297.07ZM310.38,619.49c2.88,0,5.76,0,8.64,0a16.82,16.82,0,0,1,3.51.52c2.38.57,4.73,1.23,7.08,1.89.17.05.26.35.39.54-1.5.8-.29,1.66,0,2.36,1.8,3.75,2.23,7.46-.31,11-1.09,1.55-2.46,2.89-3.62,4.39a3.85,3.85,0,0,0-1,2.19c.07,1.12,1.21,1,2.08,1.06,2.84.3,5.7.47,8.49,1s6,1.61,6.88,4.5c1,3.17,2.89,2.71,5.09,2.4A6.5,6.5,0,0,0,349,651c2.72-1.07,5.42-2.2,8.15-3.23s2.71-1,1.8-3.85c-.5-1.58-1.05-3.16-1.5-4.75-.08-.29.2-.68.31-1,.22.21.52.38.64.64,1,2.07,1.9,4.17,2.89,6.24.21.44.59,1.1.92,1.12a2.31,2.31,0,0,0,2.39-3.11,10.44,10.44,0,0,0-.62-1.55c-.68-1.25-1.47-2.45-2.07-3.74a13.14,13.14,0,0,1-.63-2.43c.76.47,1.81.76,2.22,1.44a35.16,35.16,0,0,1,2.66,5.53c.68,1.76,1.38,2.38,3.15,2,1.48-.27,2.94-.58,4.41-.92a5.1,5.1,0,0,0,1-.52,4.35,4.35,0,0,0-.67-1c-2.55-2.27-5.21-4.43-7.7-6.77-2.71-2.55-5.29-5.25-7.92-7.9a7.68,7.68,0,0,1-1.43-1.6,34.68,34.68,0,0,0-6.58-7.85c-.8-.77-1.57-1.59-2.35-2.39-4.22-4.36-8.42-8.73-12.67-13.06-3.8-3.86-7.68-7.63-11.47-11.49a10.09,10.09,0,0,0-5.84-3.37c-5.71-.82-11.26-2.44-17-3.05-5.19-.54-10.13-.34-14.93,1.71-2.23,1-4,2.61-4.28,5s1.45,3.93,3.24,5.24a15.36,15.36,0,0,0,9.35,2.94,31.76,31.76,0,0,1,7.82.59,28.25,28.25,0,0,0,7.3.82,47.81,47.81,0,0,1,4.79,0c3.95.37,7.58,1.48,10.54,4.38,2.21,2.16,4.65,4.1,7,6.07,1.52,1.26,2.36,1.15,3.88-.23.29-.27.55-.7.89-.77a1.77,1.77,0,0,1,1.41.22,9,9,0,0,1,1,2c-.49,0-1,0-1.47,0s-1.37,0-1.8.36c-1.41,1.12-2.74.88-4.12.06a21.3,21.3,0,0,1-3.64-2.19,30.89,30.89,0,0,0-12.79-7.06,11.29,11.29,0,0,0-5.32-.53c-2.31.44-4.77,0-7.16,0a47.68,47.68,0,0,0-4.93,0c-3,.28-6,.72-9,1.09l-6.35.79c-.79.1-1.77,0-2.33.37-2.26,1.68-5,2.2-7.5,3.2a2.5,2.5,0,0,0-1.68,1.73,7.44,7.44,0,0,0,1.08,7.5c1.06,1.43,2.07,2.2,3.9,2.11,4.93-.25,9.87-.43,14.81-.48,2.45,0,4.91.4,7.36.39,2.7,0,5.4-.3,8.09-.41C307.66,619.44,309,619.49,310.38,619.49Zm3.53,1.65c-.87,0-1.76-.06-2.63,0-3.47.28-6.93.71-10.41.88-5.24.26-10.49.35-15.74.51a2.43,2.43,0,0,0-1.17.16c-3,2-7.06,2.23-9.16,5.89a3.32,3.32,0,0,0-.57,2.7,6,6,0,0,0,5.84,4c4-.24,7.89.93,11.85.08a7.62,7.62,0,0,1,2.38.06c3.61.44,7.23.83,10.82,1.38s7.46.74,11.12,2.18c5.47,2.15,7.66,1.91,11.19-2.44,3.81-4.71,3.24-9-1.34-12A21,21,0,0,0,313.91,621.14Zm-41,341c-.26-.89-.39-1.52-.61-2.11q-2-5.32-4.09-10.63a3.41,3.41,0,0,0-.56-1.05c-.3-.31-.8-.77-1.07-.69a2,2,0,0,0-1.12,1,3.81,3.81,0,0,0-.11,1.66,84,84,0,0,1,.41,8.81c-.37,6.6,1.77,12.53,4.6,18.26a141.36,141.36,0,0,0,7.07,12.68c4.4,7,7.59,14.43,10.56,22.06,1.78,4.57,3.67,9.12,5.79,13.55,2,4.15,4.33,8.13,6.59,12.15a6.78,6.78,0,0,0,1.89,2.1c.31.24,1.4.07,1.52-.2a2.32,2.32,0,0,0,0-1.86q-4.22-7.74-8.58-15.4c-1.3-2.28-2.16-4.53-1.22-7.22a5.7,5.7,0,0,0,.2-3.24c-1.26-4.49-2.79-8.9-4.06-13.39-.95-3.34-1.52-6.79-2.5-10.12a29.56,29.56,0,0,1-1.44-8.41,4.94,4.94,0,0,0-2.39-4.62,4.92,4.92,0,0,1-2.4-3.62,7.27,7.27,0,0,0-4.26-5.68,22.88,22.88,0,0,0-4.35-.94c-.43-.1-1-.25-1.18-.56s.26-.77.47-1.15S272.74,962.46,273,962.1ZM313.85,663l0-.32h2.16c4.32.06,8.2-1.5,12-3.39a2.12,2.12,0,0,0,1.19-2.94,12.36,12.36,0,0,1-.17-3.56c0-.73,0-1.68,1-1.47.45.09,1,1,1,1.56a22.09,22.09,0,0,1-.18,3.8c-.15,1.56.88,2.44,2.27,1.68a55.62,55.62,0,0,0,6.48-4,3.52,3.52,0,0,0,.35-5.45,10.64,10.64,0,0,0-7.85-2.8c-1.25,0-2.51.26-3.77.39-3,.33-6,.64-9,1-3.69.44-7.37.93-11.06,1.41-2.57.33-5.2.38-7.63,1.54a30.91,30.91,0,0,1-5.45,2.23,7.52,7.52,0,0,0-4.11,3.07c-.87,1.15-.34,3,.83,4a7,7,0,0,0,4.6,1.55,81.93,81.93,0,0,1,8.57.51C308.06,662.1,311,662.59,313.85,663Zm141.67-83.83v.21c3.81-.22,7.63-.36,11.43-.7,4.33-.4,8.66-.86,13-1.54a7.3,7.3,0,0,0,3.4-1.93c1.24-1.13.71-2.49-.93-3-1.94-.64-3.86-1.38-5.8-2a11.18,11.18,0,0,0-3.41-.86c-3.26,0-6.52.2-9.76.51a25.1,25.1,0,0,0-6,1.19c-3.87,1.36-7.65,3-11.46,4.56a3.67,3.67,0,0,0-1.14.83c-1.07,1.08-.8,2.23.67,2.66a6.11,6.11,0,0,0,1.66.1ZM248.15,855.52c2.83-.34,5.32-.43,6.22-3.29a1.87,1.87,0,0,1,.68-.91,30.34,30.34,0,0,1,5.34-3.51,25.65,25.65,0,0,0,8.74-6.42,5.86,5.86,0,0,1,2.31-1.12c1.63-.56,3.52-.7,4.89-1.62,2.82-1.9,5.35-4.21,8-6.31a6.43,6.43,0,0,1,2.58-1.58c3.22-.42,5.75-2.14,8.24-4a22.92,22.92,0,0,0,2.68-2.34c.26-.27.21-.86.3-1.3-.5-.06-1.1-.34-1.48-.15a15.63,15.63,0,0,0-2.8,1.75c-2.1,1.66-4.22,3-7.11,2.8a8,8,0,0,0-3.66.78q-7.5,3.34-14.89,6.91a20,20,0,0,0-3.35,2.24c-1.56,1.17-2.92,2.69-4.63,3.55a8.23,8.23,0,0,0-4.39,5c-.83,2.45-2.18,4.51-5,5.19a8.8,8.8,0,0,0-3.08,1.75c-.47.36-1,1.25-.85,1.66S248,855.39,248.15,855.52ZM593.77,894.8a15.47,15.47,0,0,0,9.09-2.64c1.8-1.17,1.92-1.82.36-3.28-3.22-3-7.16-3.33-11.17-2.63S584.33,888,580.52,889c-4.8,1.28-9.82,1.92-14,4.91-1,.68-2.47,1.12-1.88,2.6.68,1.7,2.17.68,3.09.25,5.77-2.74,12-2.82,18.14-3.18a8.13,8.13,0,0,1,1.9.15C589.75,894,591.76,894.43,593.77,894.8Zm-302.3-77.12a10.15,10.15,0,0,0,1.74-1,84.67,84.67,0,0,0,8.22-6.84c3.85-4,8.4-7,12.76-10.35,3.65-2.75,7.75-4.91,11.65-7.34,2.92-1.81,5.82-3.66,9.49-3.32a1.22,1.22,0,0,0,.46-.09c1.13-.45,2.24-3,1.58-3.84-1-1.28-2-.22-2.93.23a14.92,14.92,0,0,1-3.24,1.42,22.4,22.4,0,0,0-8,3.52c-.86.57-1.75,1.09-2.62,1.65-4.52,2.92-9.08,5.81-13.55,8.8-2.9,1.94-5.48,4.48-8.57,6-4.36,2.11-6.15,6-8.22,9.8C289.74,817.28,290.11,817.64,291.47,817.68Zm19.92,15.79c.44,2,.7,3.48,1.13,4.92a1.61,1.61,0,0,0,1.18.78c.26,0,.84-.53.86-.85.29-3.53,2.23-6.42,3.59-9.54a13.64,13.64,0,0,0,1.23-4,5.63,5.63,0,0,1,1.59-3.6,6.06,6.06,0,0,0,1.36-1.93,2.79,2.79,0,0,0-.06-1.89c-.37-.87-1.2-.71-1.82-.28-1.38.93-2.74,1.89-4,2.94a34.56,34.56,0,0,1-11.62,6.38c-3.19,1-5.82,2.86-8.77,4.2-.55.25-.77,1.24-1.14,1.88.75.33,1.55,1,2.25.92a48.22,48.22,0,0,0,4.81-1.19,6.27,6.27,0,0,1,2.24-.14,3.92,3.92,0,0,0,3.86-1.26,28.29,28.29,0,0,1,3.61-3.11c.59-.45,1.27-1,2.1-.25s-.07,1.41-.38,2C312.68,830.93,311.93,832.39,311.39,833.47Zm-3.68,69.89a33.09,33.09,0,0,0-1-3.73,1.81,1.81,0,0,0-1.37-1c-.4,0-1,.65-1.15,1.14a8.24,8.24,0,0,0-.82,3.19c.24,4.3-1.16,8.29-2,12.4-1,4.9-2.12,9.7-4.55,14.17-.74,1.35-.64,3.23-.66,4.88s1.25,2.55,2.9,2.24a4.75,4.75,0,0,0,3.58-4.19c0-2.08-.26-4.21.12-6.22.83-4.42,2-8.76,3-13.16C306.49,909.87,307.07,906.61,307.71,903.36ZM595.83,872.9l0,.19c-.8,0-1.6,0-2.4,0s-1.51-.05-1.56,1c-.05,1.23.85,1.09,1.64,1.19,2.67.32,5.33.68,8,1a14.45,14.45,0,0,0,2.81.37,7.81,7.81,0,0,1,4.77,1.23,5.72,5.72,0,0,0,4.94.61,8.29,8.29,0,0,1,3.66.17c.35.07.83,1,.73,1.42-.16.71-1.12,1.37-.1,2a4.09,4.09,0,0,0,2.19.75,18.86,18.86,0,0,0,4.63-.71,5.77,5.77,0,0,1,3.93,0c2.49,1,4.94,2.1,7.39,3.18.87.39,1.69.91,2.58,1.23.37.13.87-.09,1.31-.15-.18-.41-.25-1-.56-1.19-2-1.39-4.06-2.77-6.16-4-5.68-3.44-12.07-4.65-18.49-5.73-3.9-.66-7.75-1.55-11.76-1.61A64.46,64.46,0,0,1,595.83,872.9Zm28.67,99.26c-1.28-.51-2.84-1.07-4.33-1.75-.41-.18-.65-.73-1-1.11a4.13,4.13,0,0,1,1.52-.35,33.35,33.35,0,0,0,3.43.81,2.42,2.42,0,0,0,1.8-1.06c.19-.31-.29-1.31-.74-1.68a12.82,12.82,0,0,0-7.7-2.72,7.54,7.54,0,0,1-6.63-3.91,9.56,9.56,0,0,0-3-2.9,2.49,2.49,0,0,0-2.36,0c-.78.83.23,1.54.83,2.13.39.38.93.61,1.35,1a18.27,18.27,0,0,1,3.36,3,12,12,0,0,0,3.11,3.15,2.57,2.57,0,0,1,1,1.95c-.08,2.36-.07,2.61,2,3.54a21.56,21.56,0,0,0,10.65,1.92c2-.18,2-.19,2.1,1.79a1.9,1.9,0,0,0,2,2.09c1.14,0,2.33-.2,2.53-1.3s.2-2.79-.47-3.54c-1.63-1.82-3.79-2.85-6.41-1.85A31.42,31.42,0,0,1,624.5,972.16Zm-45.12-205c-2,.5-3.76.84-5.42,1.35-.51.16-1.18.72-1.24,1.15s.5,1,.89,1.47c.68.74,1.77,1.27,2.09,2.11a4.48,4.48,0,0,0,5,3.18,13.14,13.14,0,0,1,9.18,2.63,3.57,3.57,0,0,0,2.1,1,4,4,0,0,0,2.78-1.2c.66-1-.59-1.61-1.45-2s-2-.83-3.06-1.3a28.75,28.75,0,0,1-8.66-6.63A16.37,16.37,0,0,0,579.38,767.15Zm-270.25,50.6c.48-.12.78-.19,1.08-.29,3.45-1.15,6.85-2.49,10.36-3.42,4.71-1.26,7-4.59,8.41-8.87.27-.81.57-1.66-.45-2.3s-1.65-.12-2.27.55a36.74,36.74,0,0,1-10.69,7.46,52.78,52.78,0,0,0-6.86,4.66,1.79,1.79,0,0,0-.45,1.43C308.29,817.27,308.85,817.52,309.13,817.75Zm239.33,44.17c3.72-.41,6.87-.66,10-1.13,6.49-1,12.86-2.74,19.53-2.36a6.6,6.6,0,0,0,3.28-1.09,1,1,0,0,0-.14-1.83,10.19,10.19,0,0,0-3.65-.42c-2.2.12-4.4.45-6.59.72-2,.24-4.08.47-6.1.8s-3.71.78-5.57,1.12c-3.49.63-7,1.23-10.49,1.83-.94.16-2.18.21-1.87,1.53C547,861.57,548.19,861.79,548.46,861.92Zm28.64,167a11.24,11.24,0,0,0,2.84,8c.86,1,1.65,2.13,2.57,3.11a9,9,0,0,0,1.79,1.19c.17-.72.37-1.43.51-2.16a1.43,1.43,0,0,0-.14-.69c-.9-2.45-1.86-4.87-2.67-7.34a21.76,21.76,0,0,1-1-4.36c-.26-2.52-.34-5.05-.5-7.58,0-.74-.08-1.48-1.13-1.45-1.24,0-1,1-1.08,1.72-.11,1.5-.1,3-.29,4.51C577.82,1025.57,577.43,1027.25,577.1,1029ZM581.52,779a2.3,2.3,0,0,0-.95,0,17,17,0,0,0-1.66,1,11.44,11.44,0,0,0,1.22,1.52,3.91,3.91,0,0,0,1.3.56,17.6,17.6,0,0,1,8,5,16.28,16.28,0,0,0,3.43,2.51c2.42,1.5,4.88,2.94,7.34,4.38a13.52,13.52,0,0,0,2.53,1.25,22.56,22.56,0,0,0,2.88.56,14.48,14.48,0,0,0-2-2.14c-5.54-4-11.33-7.57-16.29-12.31A8,8,0,0,0,581.52,779ZM456.2,805.57a30.65,30.65,0,0,1,1.56,3.89c1.69,6.66,3.31,13.35,4.92,20,.24,1,.24,2,.48,3a30.09,30.09,0,0,0,1.14,3.6,1.1,1.1,0,0,0,.94.51c.22,0,.55-.58.53-.88a28.63,28.63,0,0,0-.41-3c-.8-4.84-1.51-9.69-2.48-14.5a27.93,27.93,0,0,0-2.38-7.67c-1-1.92-2.17-3.57-1.95-5.88.09-.9-1.05-1.51-1.6-.95A5.77,5.77,0,0,0,456.2,805.57ZM560.51,874c-.72.13-1.65.37-2.59.47-4.88.52-9.77,1-14.64,1.5-2.64.29-4.26,1.87-4.31,3.91,0,1.18.37,2.23,1.48,2.39a2.64,2.64,0,0,0,2-1.18c1.23-2.14,3.15-2.68,5.37-3,4.62-.59,9.24-1.27,13.84-2a1.42,1.42,0,0,0,.92-1c0-.35-.56-.76-1-1C561.44,874,561.05,874.05,560.51,874ZM320.29,982.3a5.8,5.8,0,0,0,1.08-.8c.79-.88,1.55-1.79,2.27-2.74a12.83,12.83,0,0,0,.89-1.58c-.57.05-1.14.07-1.7.16-.31,0-.58.29-.88.33a3.51,3.51,0,0,1-.89-.14c.11-.28.15-.63.34-.81.92-.88,1.91-1.68,2.81-2.58a26.07,26.07,0,0,0,3-3.32c.23-.32-.14-1.32-.53-1.72a1.64,1.64,0,0,0-1.57.17q-4.86,4.71-9.58,9.59a1.87,1.87,0,0,0-.06,1.64c.13.29.88.46,1.33.43.92-.07,1.85-.46,2.34.81C319.23,982,319.8,982.08,320.29,982.3Zm232.2-219.11c-.47.33-1.67.77-2.11,1.62a3.5,3.5,0,0,0,.32,2.81,9.75,9.75,0,0,0,2.24,2.35c1.17,1.06,2.38,1,3.25-.33.72-1.07,1.39-1.1,2.33-.41A4.1,4.1,0,0,0,560,770c.49.1,1.36.07,1.5-.2a2,2,0,0,0,0-1.72A11.7,11.7,0,0,0,552.49,763.19Zm-35.36-10.61-.19-.36c-1.07.52-2.48.79-3.11,1.64-.88,1.19-.1,2.57.77,3.69.1.12.18.26.29.38,1.59,1.87,3.17,3.75,4.79,5.59.59.68,1.32,1.31,2.24.53s.12-1.62-.28-2.29a22.12,22.12,0,0,0-1.88-2.45c-1.27-1.54-1.22-1.78.12-3.17.49-.5,1.16-1.41,1-1.83a3.8,3.8,0,0,0-1.84-1.58A5.29,5.29,0,0,0,517.13,752.58Zm-183.36,264.1-.63.33c.26.41.44,1.08.79,1.19a1.25,1.25,0,0,0,1.74-1.1,9,9,0,0,0-.15-2.36c-.56-3-2.52-5.9-1.22-9.2a.49.49,0,0,0,0-.24c-.09-1.28-1.89-3.24-2.9-3-1.59.35-1.59,1.64-1.72,3a10,10,0,0,0,2.66,8.28A10.94,10.94,0,0,1,333.77,1016.68Zm190.64-242a48.33,48.33,0,0,0,1.21,5,2.84,2.84,0,0,0,4.06,1.68,2.74,2.74,0,0,0,1.67-3.67c-1-2.15-2-4.27-3.17-6.34-.71-1.31-1.88-1.37-2.55-.1A22.89,22.89,0,0,0,524.41,774.68ZM307,876.4a26.33,26.33,0,0,0,.5,3.66c.11.4.91.78,1.43.85.24,0,.78-.7.83-1.13.25-2.12.34-4.26.55-6.39.27-2.75.55-5.51.9-8.25.23-1.75-.12-2.92-1.13-3-1.65-.11-1.38,1.45-1.91,2.32a.79.79,0,0,0,0,.23C307.78,868.56,307.41,872.43,307,876.4ZM337.92,1031l-.35,0c-.31-2.81-.55-5.63-1-8.42-.14-.91-.85-1.31-1.77-.59-1.49,1.17-2.73,5.2-1.91,6.95a11.09,11.09,0,0,1,1.18,5,1.93,1.93,0,0,0,1,1.53,2,2,0,0,0,1.71-.87A22.34,22.34,0,0,0,337.92,1031ZM429,766.84a30.94,30.94,0,0,0,4-.77,2.3,2.3,0,0,0,1.39-1.39c.07-.38-.73-1.06-1.27-1.37a3.58,3.58,0,0,0-2.22-.75c-2.61.65-3.75-1-5-2.76a4.51,4.51,0,0,0-1.13-1.21c-.42-.27-1.25-.57-1.43-.39a2.05,2.05,0,0,0-.55,1.59,10,10,0,0,0,4,6.26A7.29,7.29,0,0,0,429,766.84ZM561.27,909.05a9.64,9.64,0,0,0,2.06-.51c2.49-1.35,5-2.74,7.41-4.19.74-.44,1.59-1.26.89-2.12a2.56,2.56,0,0,0-2.26-.7,27.47,27.47,0,0,0-4.8,2.45,33.45,33.45,0,0,0-3.6,2.7,10.41,10.41,0,0,0-1.26,1.46Zm27.57-56.36c-.63.4-1.51.66-1.65,1.14a2,2,0,0,0,.68,1.78c2.77,1.47,5.6,2.84,8.48,4.08a1.38,1.38,0,0,0,1.16-2.49,32.74,32.74,0,0,0-4.4-2.75C591.79,853.76,590.36,853.31,588.84,852.69ZM310,1039.89a24,24,0,0,0,1.17,3.14,1.79,1.79,0,0,0,2.57,1c.92-.54.67-1.48.22-2.3a3.82,3.82,0,0,1,.55-5c.88-.91.39-1.35-.7-1.44C311.81,1035.15,310.07,1036.94,310,1039.89ZM573.82,766.81a11.12,11.12,0,0,0,1.71-.55,1.07,1.07,0,0,0,.28-1.92,50.58,50.58,0,0,0-5.81-3.65c-1-.52-1.85.36-1.71,1.48C568.54,764.05,571.64,766.82,573.82,766.81Zm92.6,167.12c-1.39-1.81-2.95-3.86-4.58-5.86-.11-.13-1,.11-1.18.4a1.87,1.87,0,0,0-.41,1.43,10.62,10.62,0,0,0,1.36,3.52,7.56,7.56,0,0,0,2.95,2.21C665.42,936,666.26,935.51,666.42,933.93ZM284.3,840.13c-.22-.18-.44-.5-.65-.5a2.91,2.91,0,0,0-1.58.28c-2.61,1.93-5.18,3.92-7.72,5.94-.28.22-.28.8-.41,1.22a4,4,0,0,0,1.33,0c3.54-1.14,6.12-3.62,8.59-6.23A4,4,0,0,0,284.3,840.13Z" transform="translate(-209.86 -176.1)"/>
    <path d="M222,919.76a6.55,6.55,0,0,1,1.24,1q2.15,3.11,4.2,6.26c.94,1.46,1.81,3,2.7,4.44a2.36,2.36,0,0,1,.15.66c-.18-.07-.42-.08-.52-.21-2.47-3.06-4.94-6.12-7.36-9.22a5.82,5.82,0,0,1-.89-1.9C221.46,920.56,221.79,920.21,222,919.76Z" transform="translate(-209.86 -176.1)"/>
    <path d="M340.35,735.47l-1.48-.71c.36-.39.65-1,1.1-1.15a14.69,14.69,0,0,1,4-1.28c3-.28,6.08-.27,9.12-.38.15,0,.29,0,.44,0-.12.16-.21.39-.36.46a13.73,13.73,0,0,1-2.85,1.18C347.08,734.31,343.8,734.85,340.35,735.47Z" transform="translate(-209.86 -176.1)"/>
    <path d="M430.32,255.14a4.16,4.16,0,0,1,1.52.26c.81.58,1.53,1.31,2.28,2a17.75,17.75,0,0,1-1.95,1.93c-1.27.91-2.74,1.56-3.93,2.56a3.36,3.36,0,0,0-.93,3.72c.4,1.36.7,2.76,1.13,4.11a4.13,4.13,0,0,0,4.14,3.26c3.88.29,5.61,2.67,4.7,6.46-.08.31-.06.64-.13.95-.61,2.59-.18,3.38,2.35,4.13,1.13.34,2.36.9,2.21,2.11a3.31,3.31,0,0,1-1.93,2.19c-2.78.87-5.66,1.4-8.49,2.1-.87.22-2.05.31-2.49.9-.72,1,.19,1.88.92,2.67,1.36,1.45,2.73,2.9,4,4.44a3.07,3.07,0,0,1,0,4c-.4.59-.82,1.18-1.18,1.79-1.89,3.18-1.19,6.44,1.93,8.44a21.44,21.44,0,0,0,4.27,2,12.25,12.25,0,0,1,5.74,3.7,9.75,9.75,0,0,1,1,1.83c.54,1.06-.18,1.23-.83.89-1.13-.6-1.81-.1-2.44.68-.9,1.11-1.79,2.22-2.61,3.38-1.9,2.68-3.73,3.33-6.8,2.2-2.52-.93-5-1.91-7.5-3-2.09-.91-2.65-2.34-1.64-4.45a6.28,6.28,0,0,0-1.2-7.83c-2.14-2.27-2.16-3.83-.53-6.43.38-.61.81-1.18,1.21-1.77,3.51-5.2,3.2-10.06-.84-15a15.82,15.82,0,0,1-4-10.44,49.05,49.05,0,0,0-.45-6.4c-.7-5.72,1.16-10.36,5.81-13.78a60,60,0,0,1,5.18-3.25A4.58,4.58,0,0,1,430.32,255.14Z" transform="translate(-209.86 -176.1)"/>
    <path d="M386.77,266.21a13.43,13.43,0,0,1,8.57,3.51,31.91,31.91,0,0,1,3.4,3.38,3.18,3.18,0,0,1,.56,3.94c-1,2-1.91,4.16-2.85,6.25-.12.28-.12.69-.32.87a20.44,20.44,0,0,1-1.75,1.31,12.91,12.91,0,0,1-.21-2.13c.05-.7.47-1.38.47-2.07a5.46,5.46,0,0,0-.47-2.49c-.7-1.27-2.11-1.14-2.77.18-.46.92-.73,1.94-1.24,2.83a5.12,5.12,0,0,1-6.49,2.57c-1.12-.36-2.19-.91-3.28-1.38a15.65,15.65,0,0,0-6.62-1.73c-2.06,0-3-1-2.94-3.15a10,10,0,0,1,3.59-7.53c2.74-2.2,5.76-3.94,9.5-3.9A13.55,13.55,0,0,0,386.77,266.21Zm-2.87,2.12c-3,.05-8.86,4.72-9.49,7.31a1.52,1.52,0,0,0,1.92,1.9,12.32,12.32,0,0,0,1.63-1c2.24-1.14,4.47-2.31,6.74-3.37.77-.36,1.72-.32,2.49-.67,1.28-.57,1.39-1.32.52-2.36A5,5,0,0,0,383.9,268.33Z" transform="translate(-209.86 -176.1)"/>
    <path d="M396.55,326.42A6.05,6.05,0,0,0,402.5,322c.15-.44.31-.89.47-1.34.93-2.64,2.69-3.52,5.39-2.88a24.71,24.71,0,0,0,4.66.74,6.53,6.53,0,0,1,4.91,2.54,1.56,1.56,0,0,1-.36,2.62,3.89,3.89,0,0,1-2.18.76c-4.42-.43-8.41,1-12.49,2.39s-8.37,2.28-12.56,3.42c-1.37.37-2.72.86-4.08,1.25-1.81.51-3,.12-3.82-1.52-.74-1.46-1.55-3-.65-4.74,2.64-5.21,4.11-11,7.72-15.75a38.89,38.89,0,0,1,4.08-4.34,2.68,2.68,0,0,1,1.74-.57c.91,0,1.41.47.68,1.37a12.3,12.3,0,0,1-1.33,1.37c-3.22,2.88-5,6.71-7,10.41-1.31,2.43-.81,3.67,1.5,5.1,1.55.95,3.09,1.94,4.71,2.78A15.61,15.61,0,0,0,396.55,326.42Z" transform="translate(-209.86 -176.1)"/>
    <path d="M447.59,274.84a22.08,22.08,0,0,1-1.41,3.93c-.71,1.22-1.5,1.13-2.45.05a3.35,3.35,0,0,1-.42-.57c-1.57-3-3.15-6-4.7-9-.48-.93-.22-1.55.89-1.66C442.85,267.26,447.29,271.33,447.59,274.84Z" transform="translate(-209.86 -176.1)"/>
    <path d="M456.2,324.74c-.3,2.62-.27,4.82-.88,6.83a17.66,17.66,0,0,1-2.74,4.6c-.21.3-.95.22-1.45.31a4.05,4.05,0,0,1,.18-1.32,26.93,26.93,0,0,0,2.5-12.68c0-1.41-.37-2.82-.4-4.24,0-.49.48-1,.74-1.5.29.4.74.77.83,1.22C455.46,320.34,455.85,322.75,456.2,324.74Z" transform="translate(-209.86 -176.1)"/>
    <path d="M333.17,329.68a9.56,9.56,0,0,1,.87-2.34,9.74,9.74,0,0,0,1.76-6.27,9.14,9.14,0,0,1,.55-3c.13-.38.77-.7,1.23-.81.16,0,.66.62.71,1a41.37,41.37,0,0,1,.44,5.66,3.71,3.71,0,0,1-1.24,2.14c-1.42,1.39-2.73,2.71-1.64,4.94.14.29-.23.84-.36,1.26-.47-.17-1.11-.22-1.37-.55A10.18,10.18,0,0,1,333.17,329.68Z" transform="translate(-209.86 -176.1)"/>
    <path d="M409.21,310.56c-2.09,0-4-1.49-4-3,.05-1.34,2.53-3.33,4.2-3.36s3.76,2,3.75,3.39C413.19,309.16,411.29,310.58,409.21,310.56Z" transform="translate(-209.86 -176.1)"/>
    <path d="M388.72,257c2.2.42,4.06.74,5.91,1.15.28.06.58.47.69.78s-.28.6-.52.66a21.56,21.56,0,0,1-3,.72c-1.86.31-3.73.56-5.61.79-1,.14-2.17-.23-2.22-1.25,0-.65.92-1.56,1.64-1.94A14.42,14.42,0,0,1,388.72,257Z" transform="translate(-209.86 -176.1)"/>
    <path d="M421.8,333.53a3.2,3.2,0,0,1-3.13,2.88,3.67,3.67,0,0,1-2.19-.73,2.3,2.3,0,0,1-.57-2c.69-1.82,4.36-2.27,5.57-.79A2.49,2.49,0,0,1,421.8,333.53Z" transform="translate(-209.86 -176.1)"/>
  </g>
</svg>
