<svg id="Lager_1" data-name="Lager 1" xmlns="http://www.w3.org/2000/svg" viewBox="0 0 507.43 905.31">
  <g>
    <path d="M45.53,443.78h-74.4c-2.11-.69-4.22-2-6.34-2-23.26-.3-46.51-.43-69.76-.54-3.58,0-7.16.2-10.73.49a36.23,36.23,0,0,0-6.26,1.13c-2,.51-3.45.2-4.61-1.46-1.53-2.21-3.08-4.42-4.53-6.69-3.6-5.64-7.11-11.33-12.28-15.75-1.46-1.24-2.73-2.7-4.09-4.05-4.47-4.43-8.88-8.81-11.83-14.57-3.47-6.77-7.58-13.21-11.39-19.81-2.59-4.49-4.09-9.43-5.86-14.27-.48-1.33-1.37-2.5-1.84-3.83-.27-.79-.34-2.4-.05-2.51,1.26-.51,1.68.73,2.14,1.6a27,27,0,0,1,3.36,8.61c.39,2.51,2.1,3.5,4.4,2.52,3.35-1.43,6.6-3.09,9.88-4.68a4.33,4.33,0,0,0,1.07-.94c1.53-1.65,1.46-2.34,0-4.05a8.84,8.84,0,0,1-2.06-3.12A36.91,36.91,0,0,0-163,352c-1.22-2.21-1.82-4.78-3.09-7-2.74-4.64-5.24-9.44-8.92-13.48a21.19,21.19,0,0,1-3.76-5.46c-1.93-4.33-4.12-8.4-7.64-11.68a13.52,13.52,0,0,1-2.2-3.07c-1.22-2.11-2.78-2.77-5-1.62-2.8,1.49-5.53,3.12-8.21,4.82a2.8,2.8,0,0,0-1.09,4.06,62.14,62.14,0,0,0,5,6.89c1.73,2,3.71,3.69,4.45,6.37a10.77,10.77,0,0,0,1.4,2.48c3.12,5.25,6.2,10.53,9.43,15.73a25.2,25.2,0,0,0,3.13,3.43c.37.4.69.83,1,1.25-.57.13-1.2.5-1.7.36-2-.58-3.2-2.13-4.24-3.91-2.71-4.66-5.5-9.29-8.37-13.85-2.62-4.15-5.39-8.21-8.1-12.31-1.4-2.11-3-4.09-3.17-6.82,0-.43-1-.81-1.48-1.21v-2.4q6.6-4,13.21-7.94c1.21-.73,2.38-1,3.38.26,4.87,6.18,9.69,12.39,13.13,19.52a6.14,6.14,0,0,0,1.32,2,2.31,2.31,0,0,0,1.81.49,1.76,1.76,0,0,0,.8-1.5,18.68,18.68,0,0,0-1-3.15,44.44,44.44,0,0,1-1.68-4.69c-1.24-5.22-2.38-10.47-3.47-15.73a3.81,3.81,0,0,1,.25-2.41c1.23-2.23,3.35-2.74,5.72-2.5,3.42.34,4.46-1.59,4.13-4.77a44.08,44.08,0,0,1-.42-6.16,7.89,7.89,0,0,0-2.66-6.6,6.76,6.76,0,0,1-2.58-4.7,11.13,11.13,0,0,0-2.95-7.08,9.64,9.64,0,0,1-1.4-11.13c2-4.21,4.27-8.32,6.47-12.45,1.43-2.69,3.18-5.1,6-6.56a12.2,12.2,0,0,0,2.59-2.08,9,9,0,0,1,5.85-2.84,5.41,5.41,0,0,0,4.83-3.71c.47-1.16.65-2.45,1.11-3.62,1-2.65,2.08-5.29,3.28-7.86,1.61-3.45,3.41-6.81,5-10.25A7.65,7.65,0,0,0-142,206a24.22,24.22,0,0,1,1-7.52,13.5,13.5,0,0,0,.49-3.75c.05-4.56,0-9.12,0-13.68a27.08,27.08,0,0,0-1-7.27c-.92-3.61-.95-7.27,1-10.65q1.38-2.37,2.93-4.63c3.07-4.5,3.55-9.05.45-13.75-.3-.46-.46-1-.76-1.49a4.65,4.65,0,0,1,.16-5.17,9.47,9.47,0,0,1,1.91-2.43c2.85-2.42,3.07-5.46,2-8.68-.86-2.65-2.07-5.18-1-8a1.33,1.33,0,0,0,0-.71c-.75-3.64-1.52-7.27-2.23-10.91a71.27,71.27,0,0,1-1.45-8.4,12.67,12.67,0,0,0-2-6.26q-3.14-4.75-6.3-9.5-6.46-9.69-13-19.37a141,141,0,0,1-9.43-15.7c-1.3-2.63-2.87-5.12-4.26-7.71-.91-1.71-1.56-3.48-.87-5.48a3.2,3.2,0,0,0,.16-1.64,75,75,0,0,0-2.16-8c-.75-2-2.09-4-4.59-3.89-4.31.26-8.34-.81-12.39-2-2.29-.65-2.8-1.24-2.9-3.69a15.09,15.09,0,0,0-.28-2.59c-1-4.58-1.91-9.17-1.63-13.91.19-3.25.4-6.51.46-9.77q.12-6.7,0-13.43c-.06-3.74-.42-7.48-.42-11.21s.38-7.64.41-11.45c0-2.54-.39-5.08-.39-7.61s.36-5.07.4-7.61c.07-4.48,0-9,0-13.44a11,11,0,0,1,.12-2.15c.89-4.41,1.81-8.81,2.73-13.21,1.15-5.49,2.41-11,3.42-16.47a50.05,50.05,0,0,1,5.22-14.71c2.1-3.91,4.25-7.81,6.58-11.59a30.08,30.08,0,0,1,4.33-5.36c4.8-4.79,9.79-9.4,14.57-14.22a27.21,27.21,0,0,1,5.12-4.53c.82-.49,1.67-.93,2.44-1.49,2.93-2.16,5.72-4.54,8.77-6.52,4.51-2.94,9.21-5.6,13.8-8.42,1.22-.74,2.32-1.66,3.48-2.49,2.19-1.56,4.31-3.24,6.6-4.63,2.7-1.65,5.75-2.77,8.29-4.61,6.86-5,13.51-10.25,20.3-15.33a17.45,17.45,0,0,1,4.34-2.42,59.66,59.66,0,0,0,16.45-8.93,9.47,9.47,0,0,0,4-7.07c.13-2.55.06-5.12,0-7.68a3.79,3.79,0,0,0-3-3.53c-5.1-1.1-7.57-4.16-7.58-9.38,0-2.08-.16-4.18,0-6.24.29-2.87-1.12-4.45-3.53-5.54-2.81-1.28-5.66-2.53-8.38-4a6.13,6.13,0,0,1-2.87-2.69c-1.53-4.34-2.29-6.89,2.6-10.66a1.76,1.76,0,0,0,.76-2.16,6.11,6.11,0,0,1,.82-5,3.37,3.37,0,0,0,.13-2c-.13-1.33-.7-2.73-.44-4a2.6,2.6,0,0,0-.8-2.48,42.06,42.06,0,0,1-3.36-4.86c-.52-.92-.35-2.2-.8-3.18A17.82,17.82,0,0,1-95-300.74c.07-3.2,0-6.35,1.46-9.33a6.48,6.48,0,0,0,.48-2.78c0-4.08.07-8.16,0-12.24a11.43,11.43,0,0,0-.68-3.45A18.14,18.14,0,0,1-95-335c.12-4.39,0-8.8.06-13.19a10,10,0,0,1,.66-3.48c1.11-2.8,2.45-5.51,3.59-8.3,1-2.41,1.85-4.75,1.17-7.58a10,10,0,0,1,.56-6.55,28.55,28.55,0,0,0,2.49-7.65,21.75,21.75,0,0,1,4.15-9.76c2.7-3.72,6-7,9-10.53a51.7,51.7,0,0,0,3.41-4.26c1.47-2.16,2.62-4.56,4.19-6.63,2.94-3.84,6.19-7.45,9.12-11.3a11.37,11.37,0,0,1,15.56-2.8c.66.45,1.28.94,1.9,1.43,1.69,1.33,3.31,2.74,5,4a11,11,0,0,0,7,1.7c3.18-.09,6.51-.43,9.54.31,5.35,1.3,10.53,3.33,15.79,5.06a10.48,10.48,0,0,0,2.48.78c6.37.39,10.38,4.65,14.42,8.79,2.16,2.21,3.83,4.93,6.13,6.94,2.49,2.18,5.53,3.71,8.21,5.69,3.69,2.73,7.46,5.39,10.31,9.12a80.2,80.2,0,0,1,8.52,14.85,19.65,19.65,0,0,1,.89,3.18c.74,2.58,1.47,5.16,2.24,7.72.49,1.59,1.18,3.12,1.55,4.73.77,3.39,1.24,6.85,2.13,10.2.59,2.22,1.44,4.35,1.32,6.72a5.17,5.17,0,0,0,.63,2.51,12.44,12.44,0,0,1,1.26,6.48,51.88,51.88,0,0,0,0,6.48,29.93,29.93,0,0,1-2.47,14.18,57.45,57.45,0,0,1-3,6.23,13.7,13.7,0,0,0-1.81,7.53,19,19,0,0,1-.31,5.7c-1.82,6.93-3.24,13.88-3,21.11a16.25,16.25,0,0,1-3.17,10,71.91,71.91,0,0,1-7,7.53,7.07,7.07,0,0,0-2.3,5.53c.08,1.59,0,3.2,0,4.8a14.78,14.78,0,0,0,.88,5.59,18,18,0,0,1,1,5.8c.14,4.55,0,9.12,0,13.67a5.63,5.63,0,0,0,2.64,5.08c2.84,1.7,5.88,3.07,8.83,4.58,3.17,1.61,6.77,2.73,9.43,5a68.67,68.67,0,0,0,13.94,9c1.77.87,3.37,2.1,5.14,3,2,1,4,1.82,6.06,2.63,2.65,1.05,5.39,1.88,8,3,5,2.22,9.86,4.73,14.89,6.86a23.38,23.38,0,0,1,6,3.21,11.42,11.42,0,0,0,3.55,1.84,72.9,72.9,0,0,0,9.47,3c3.56.73,6.24,2.76,8.72,5.07,3.73,3.46,7.34,7.07,10.81,10.78q6.12,6.52,11.89,13.38a19.68,19.68,0,0,1,3.36,5.66,57.2,57.2,0,0,1,2,8c1.16,5.25,2.31,10.5,3.35,15.78,1.08,5.52,2.19,11,4.52,16.18a19.69,19.69,0,0,1,1.77,9A16.87,16.87,0,0,0,172-78c1,5.49,1.91,11-.21,16.43a5.2,5.2,0,0,0-.18,1.9,26.84,26.84,0,0,0,5.52,16.14,13.56,13.56,0,0,1,3.13,9.92,14.48,14.48,0,0,0,2.52,9c1.51,2.44,2.89,5,2.72,8a14.11,14.11,0,0,0,1.58,6.65c1.5,3.3,2.61,6.64,2.32,10.35a14.31,14.31,0,0,0,.37,3.29,62.11,62.11,0,0,1,1,6.33c.17,3.27.06,6.55,0,9.83a3.53,3.53,0,0,1-.43,2,8,8,0,0,0-1.47,5.39c0,7.68,0,15.35,0,23a11.61,11.61,0,0,1-.4,3c-1.18,4.18-.75,8.71-2.86,12.68a2.6,2.6,0,0,0-.07,1.19A21.21,21.21,0,0,1,183.61,76a14.86,14.86,0,0,0-1.45,7.16,14.44,14.44,0,0,1-2.78,9.4A12.92,12.92,0,0,0,177,97.7a28.34,28.34,0,0,1-3.07,9,16.69,16.69,0,0,1-9.58,8.8,27.19,27.19,0,0,1-10.95,1.83c-2.79-.14-5.6-.11-8.39,0a14.9,14.9,0,0,1-8.1-1.54,3.88,3.88,0,0,0-1.35-.38,18.44,18.44,0,0,0-9.72,1.81c-2.22,1-3.5,2.61-3.25,5.22a21.64,21.64,0,0,1,0,3.6,7.58,7.58,0,0,0,2.43,6.21,8.4,8.4,0,0,1,2.82,5.64c.11,3.69,2.18,5.6,5.42,6.65,3.9,1.27,7.86,2.37,11.69,3.84,3.11,1.2,6,2.75,9.57,2.5.86-.06,1.89,1.19,2.71,2a51.36,51.36,0,0,0,3.8,3.86,100.81,100.81,0,0,0,15.2,8.89,20.59,20.59,0,0,1,4.62,3.3,194.77,194.77,0,0,1,13.4,14.59c4.8,5.56,10.3,10.51,15.53,15.69,1.35,1.34,3,2.41,4.2,3.87a55,55,0,0,0,14.34,12.44,38.15,38.15,0,0,1,9.67,7.67,5.32,5.32,0,0,1,1.2,2.68,2.43,2.43,0,0,0,1.87,2.38c2.9,1,4,3.19,3.27,6.15-.46,2-.77,4-1.3,6a11.9,11.9,0,0,1-1.46,3.48,41.88,41.88,0,0,1-4.36,5.63,71.58,71.58,0,0,1-8.5,8c-2.09,1.58-4.87,2.23-7.31,3.37-2.71,1.26-3.58,3.6-2.29,6.31a11.84,11.84,0,0,0,2.07,2.87c1.67,1.79,3.67,3.32,5.12,5.26,2.74,3.68,5.73,7.33,7.63,11.45a224.89,224.89,0,0,1,10.66,27.45,38.48,38.48,0,0,0,3,6.67c.63,1.17,1.93,2,2.5,3.17,2.17,4.51,6.24,7.15,9.89,10.14a8.78,8.78,0,0,0,4.81,1.7,7,7,0,0,1,6.11,3.52c1.4,2.47,2.45,5.14,3.9,7.58a9.54,9.54,0,0,1,1.38,5.19c0,5.84-.11,11.68,0,17.52a15.92,15.92,0,0,1-1.92,8.23,12.18,12.18,0,0,0,.14,12.51,26.26,26.26,0,0,0,4,5,10.76,10.76,0,0,1,2.82,4.9c.63,2.45,1.12,4.93,1.7,7.39a11.74,11.74,0,0,0,2.91,5.87,12.69,12.69,0,0,1,2.36,4.05c2,4.69,3.69,9.46,6.64,13.66a11.17,11.17,0,0,1,2,5.49,8.75,8.75,0,0,0,1.47,4,3,3,0,0,1,.52,3.06H267.27a6.37,6.37,0,0,0-5-2.08c-10.41,0-20.84.32-31.22-.94-1.25-.15-2.12-.15-1.75-1.93.32-1.54-2.45-3.23-3.92-2.55-.85.39-1.57,1-1,2,.79,1.38-.06,1.47-1.08,1.49a23.21,23.21,0,0,0-3.34.14,90.29,90.29,0,0,1-17.2,1.79c-2.87,0-5.74,0-8.61,0-1.73,0-3.28.38-4.18,2.07h-6.72a39.32,39.32,0,0,0-6.36-2c-3.14-.44-6.34-.39-9.52-.53a17.3,17.3,0,0,0-2.16,0c-2.06.13-4.11.29-6.17.43a10.34,10.34,0,0,0-2.38.14c-3.45,1.1-5.84-.6-8-2.93s-4.34-4.87-6.44-7.35c-2.46-2.92-5-5.78-7.23-8.86-4-5.41-8.11-10.56-13.64-14.52a94.15,94.15,0,0,1-11-9.1,121.27,121.27,0,0,1-9.21-10.62c-3.3-4.06-6.41-8.27-9.63-12.4q-6-7.69-12-15.35c-2.6-3.3-5.26-6.56-7.87-9.86-3.45-4.35-7-8.65-10.25-13.12-2-2.66-3.83-5.26-7-6.63a21.73,21.73,0,0,1-2.14-1.5,21.49,21.49,0,0,0-2.24-1c-.27.86-.55,1.72-.78,2.59-.06.2.1.46.12.69.43,3.72.95,7.48-.73,11a10.81,10.81,0,0,0-.89,4.87c0,9.75,0,19.51,0,29.27a14.51,14.51,0,0,1-1.18,6.26,10.2,10.2,0,0,0-.72,3.93c-.1,3.68,0,7.36,0,11a6.76,6.76,0,0,1-.32,2.34,19.3,19.3,0,0,0-1.12,8c.07,3.35,0,6.71,0,10.07,0,2.95-.06,5.87,1,8.72.91,2.52.4,5.32,1.62,7.86C48.47,438.29,48.44,441.34,45.53,443.78Zm-149.35-384c-3.69-.23-7.21-.26-10.67-.71s-7.07-.74-10-3.14A4.72,4.72,0,0,1-125,49c2.81-2.89,6.58-4,10-5.8a10.55,10.55,0,0,1,3.41-1c5.34-.71,10.68-1.34,16-2,.91-.1,1.67-.44,1.55-1.41a2.17,2.17,0,0,0-1.12-1.53,70,70,0,0,0-8.27-2.1c-4-.68-8-1.62-12.25-1.59-4.75,0-9.5-.58-14.26-.84-1.83-.1-3.7.17-5.51-.08a11,11,0,0,1-3.9-1.49,10.58,10.58,0,0,1-2.32-2.31c-2-2.33-1.93-4.54-.05-7a7.63,7.63,0,0,1,4.05-3.08c1.12-.31.77-1,.06-1.48a1.31,1.31,0,0,0-1.23-.05c-.89.73-1.46.23-2.32-.13-2.65-1.11-3.42-3.61-4.73-5.74-1.19-1.94-1.13-3.63-.32-5.94a5.21,5.21,0,0,1,4.11-3.84,7.16,7.16,0,0,0,1.5-.73,8.87,8.87,0,0,0,.74-.51c-.29-.24-.58-.68-.88-.69a18.74,18.74,0,0,0-5,0c-3.06.75-6,0-9-.36A18.24,18.24,0,0,0-165,.75c-3.29,1.58-6.51,3.33-9.69,5.12-2.38,1.34-3.87,3.43-3.56,6.25.47,4.25,1.16,8.4,3.23,12.32,1.82,3.43,3.43,7.14,2.06,11.3a3.26,3.26,0,0,0,.24,2.09c.81,1.89,1.7,3.74,2.65,5.57,1.17,2.25,2.4,4.48,3.66,6.68,2.75,4.81,5.5,9.61,8.32,14.38.8,1.36,1.86,2.56,2.75,3.87,3.5,5.2,6.59,10.69,11.24,15.06a18.68,18.68,0,0,1,3.52,5c1.42,2.73,2.51,5.63,3.81,8.42,2.67,5.78,7,10.36,10.94,15.24,5,6.19,10.11,12.25,15,18.5,5.17,6.64,12,8.82,20,6.27,5.81-1.87,11.63-3.52,17.88-3.61a33.35,33.35,0,0,0,11.86-2.14c3.58-1.41,7.37-1.74,11.17-2.09a33.79,33.79,0,0,0,7.91-1.46c4.31-1.5,8.93-2.41,12.53-5.56a3.34,3.34,0,0,1,.83-.46c.58-.27,1.1-.54,1.34.47s1,1.19,2,.82,2.3-.64,3.39-1.1c4.68-1.95,9.21-4.34,14-5.83a50.17,50.17,0,0,0,13.25-6.26,100.14,100.14,0,0,0,12.34-9.33c4.18-3.86,8.9-7.13,12.7-11.43,2.2-2.5,4.36-5,6.58-7.49a23.82,23.82,0,0,1,7.4-5.94c.23-.11.59,0,.89.06-.19.19-.37.41-.58.59-3.91,3.44-8.41,6.26-11.35,10.75-.51.78-.77,1.16-.07,2,1.54,1.79,1.45,3.13-.35,4.67-1,.86-2.28,1.43-3.39,2.19a77.43,77.43,0,0,0-6.79,4.79c-1.81,1.53-1.37,3,.85,4,.29.12.62.14.92.24,6.18,2,12.34,4,18.54,5.85A5.48,5.48,0,0,0,49,109.32a5.76,5.76,0,0,1,6.19-1c.36.13.6.59.9.9-.42.06-.9.27-1.26.14a3.37,3.37,0,0,0-4.23,1.17,4.81,4.81,0,0,0-.46,1l.92.23c1,.3,2.51.27,3,1,1.06,1.37,2.4,1.61,3.86,2,2.13.59,4.17,1.53,6.31,2.06a96.25,96.25,0,0,0,12,2.56c5.64.64,11.23-.57,16.83-1.26,2.2-.27,4.42-.48,6.64-.53,1.33,0,2.67.4,4,.41,4.72.06,9.44.11,14.16,0a17.12,17.12,0,0,0,4.59-1c1.36-.42,2.62-1.14,3.94-1.68,4.09-1.66,8.22-2.36,12.52-.75a9.22,9.22,0,0,0,2.79.55c5.18.2,10.35.38,15.53.5,4.37.09,8-1.76,11.2-4.56,3.95-3.47,5.56-8.21,6.77-13.1a31.8,31.8,0,0,1,2.93-7.74,15.51,15.51,0,0,0,2.25-6.41,25,25,0,0,1,1.87-9.25,23.82,23.82,0,0,0,1.19-4.1c1.05-4.34.18-9,2.33-13.18,0-.07,0-.16,0-.24.26-1.31.54-2.62.76-3.94a28.29,28.29,0,0,0,.66-4.45c.07-7,0-14.07,0-21.11a4.19,4.19,0,0,1,.58-2.45,6.06,6.06,0,0,0,1.33-4.44c-.06-1.68.1-3.37,0-5-.18-2-.55-4.06-.88-6.08-.31-1.86-.84-3.7-1-5.57-.17-2.39,0-4.8-.06-7.2a11,11,0,0,0-.49-3c-.88-2.7-1.86-5.36-2.84-8-.86-2.33-2.28-2.91-4.82-2.53-3.36.51-6.76.8-10.15,1.11-2.77.25-5.56.34-8.33.58-3,.25-6,.58-9,.87-1,.1-2.07.11-3.08.29-3,.52-6.06,1.15-9.1,1.64-3.28.53-6.58.91-9.86,1.42-3,.45-6,.84-8.89,1.5C115.63-8.26,110.57-7,105.53-5.65c-2,.53-2.51,1.65-1.91,3.4.69,2,1.46,4,2.24,6,1.4,3.54,3,7,4.21,10.6,1.12,3.29,1.9,6.7,2.74,10.08,1,3.85,1.79,7.72.81,11.74-.47,2,.47,3,2.5,3.13,1,0,2.09-.06,3.11.06.47.06.89.49,1.34.76-.41.41-.8.83-1.23,1.22-.09.09-.31,0-.47.06-4.13.31-8,1.69-12,2.58a24.76,24.76,0,0,0-9.62,4.37,22.84,22.84,0,0,1-9.61,4.52,22.65,22.65,0,0,0-11,4.69c-2.8,2.35-5.42,4.94-8,7.56a33.81,33.81,0,0,1-7.78,6.26,25,25,0,0,0-3.62,2.27C52.76,77.17,48.43,80.78,44,84.28A31.53,31.53,0,0,1,39.61,87c-.42.23-1.08,0-1.63,0,.26-.53.39-1.22.81-1.55,1.36-1.09,2.85-2,4.25-3.06C49.45,77.65,56,73,62.24,68c3.49-2.75,6.6-6,10-8.91A66.12,66.12,0,0,1,80,52.84c2.37-1.5,5-3,7.93-2.91a11,11,0,0,0,6.66-2.14c3.24-2.14,6.39-4.47,10.26-5.43,3.65-.9,5.14-3.5,5.11-7a36.76,36.76,0,0,0-.93-6.56c-.7-3.56-1.44-7.12-2.33-10.64C106,15.44,105,12.88,105.12,10a13.82,13.82,0,0,0-.83-3.92c-1-4.1-3.54-7.43-5.73-10.91C96.75-7.71,94-8.61,90.73-7.62L83.91-5.57c-6.07,1.86-12.14,3.75-17.6,7.1a38.49,38.49,0,0,0-3.94,3.06c-.72.58-1.2,1.22-.58,2.23s1.47.6,2.29.35C67.4,6.12,70.69,5,74,4c2.89-.8,5.63.35,8.38,1,.25.06.39.56.59.86-.27.14-.53.39-.8.39a11,11,0,0,1-3.34-.06c-3.2-.91-6.09,0-9,1.06a24.09,24.09,0,0,1-6.36,1.82,22,22,0,0,0-9.54,3.41A53.64,53.64,0,0,1,42.37,17.5C37.52,19,32.8,20.79,28,22.54c-4.38,1.61-8.62,3.7-13.1,4.91-9.85,2.64-19.8,4.89-29.73,7.21-3.46.8-7,1.35-10.49,2-2.8.51-5.61.92-8.4,1.48-1.86.37-3.67.94-5.51,1.37-4.25,1-8.52,1.88-12.75,3-1.46.38-2.73,1.23-4.34,1.43s-3,1.25-4.58,1.84c-3.24,1.23-6.37,2.72-9.93,3.1C-72,49-73,50.34-74.23,51.07A58.75,58.75,0,0,1-103.82,59.82Zm151.47-368c.07-7.86-1.76-14.2-3.32-20.57-.66-2.69-1.87-5.25-2.41-8-.72-3.56-.92-7.22-1.56-10.8-.61-3.43-1.47-6.83-3.82-9.6-1-1.21-2-2.47-3.1-3.62a21.59,21.59,0,0,0-4-3.7,64.37,64.37,0,0,0-7.41-3.76,26.18,26.18,0,0,0-13.4-2.66,6.11,6.11,0,0,1-1.91-.07c-4-1-7.89-.07-11.78.65-2.48.46-4.87,1.48-7.36,1.77-3.4.38-6.78.52-9.9,2.18a12.45,12.45,0,0,1-3.84,1.2,24.06,24.06,0,0,0-8,2.89c-2,1.11-4,2.25-6.08,3.26-4.69,2.3-8.52,5.79-12.62,8.91s-5.61,8-6.85,12.76c-.64,2.52-.76,5.16-1.27,7.72-.14.72-.16,2.07-1.43,1.73-.44-.12-.77-1.24-.85-1.94-.14-1.26.06-2.57-.11-3.83-.08-.57-.7-1.07-1.08-1.6-.53.38-1.24.65-1.55,1.16a4.25,4.25,0,0,0-.46,2,36.85,36.85,0,0,0,0,5c.31,3-.91,5.61-2.06,8.22-.68,1.55-1.4,1.67-2.78.72-.13-.08-.22-.29-.35-.31-.63-.14-1.51-.53-1.86-.26a2.46,2.46,0,0,0-.53,1.88c.12,1.77,1.13,3.4.43,5.31-1.09,3-2,6-3,9a4.07,4.07,0,0,0,.42,4.05,1.68,1.68,0,0,1-.09,1.65c-2.33,1.73-3.64,4.16-4.92,6.64-.16.31-.54.5-.82.75-.19-.39-.62-.84-.54-1.15.38-1.36,1-2.67,1.37-4s1-2.61.87-3.84-.29-3.12-2-3.17-1.63,1.92-1.91,3.09a107.92,107.92,0,0,0-2.24,11.38c-.34,2.85-1.16,5.77,0,8.67a3.23,3.23,0,0,1-.54,3.34,3.85,3.85,0,0,0-.55,2.66,14.26,14.26,0,0,0,1.39,4.51c2.86,5.2,6.6,9.22,13.25,8.72a4.33,4.33,0,0,1,.72,0c1.67.11,2.81,1,2.73,2.65-.16,3.39.77,6.57,1.37,9.84.68,3.72.37,7.62.63,11.42a17.79,17.79,0,0,0,.9,5.1,16.77,16.77,0,0,1,1,6.78c0,1.12,0,2.24,0,3.36a10.53,10.53,0,0,1-5.44,9.43A23.34,23.34,0,0,0-75.36-207a6.22,6.22,0,0,0-2.08,5.37,38.3,38.3,0,0,0,1.66,7.15,124.4,124.4,0,0,0,5,11.54A60.11,60.11,0,0,0-57.48-165c3.09,2.78,5.76,6,8.91,8.72,3.92,3.34,8.12,6.35,12.23,9.45,2.79,2.09,5.62,4.14,8.5,6.11,1.3.89,2.79,1.51,4.17,2.31.29.17.47.55.7.83a3.61,3.61,0,0,1-1.22.44,2.87,2.87,0,0,1-1.33-.46c-1.89-1.16-3.81-2.29-5.63-3.56-3-2.08-5.91-4.28-8.88-6.39-.31-.22-.81-.15-1.23-.21,0,.44-.09,1,.13,1.31a12.5,12.5,0,0,0,1.8,1.91q3.75,3.33,7.54,6.59a10.66,10.66,0,0,0,1.17.82c5.21,3.4,11.1,5.41,16.66,8.1a8.88,8.88,0,0,0,7.59,0c4.48-1.8,9.2-3.09,13.5-5.22a59.58,59.58,0,0,0,11.13-7.25c5.53-4.51,9.68-10.31,13.48-16.31a25.91,25.91,0,0,0,2.3-5.44c.31-.88.37-2.2-.78-2.44-.69-.14-1.67.55-2.36,1.07A3.6,3.6,0,0,0,30-163c-.52,1.41-.88,2.88-1.49,4.26a14,14,0,0,1-1.7,2.53c-.1.15-.39.16-.59.23a1.41,1.41,0,0,1-.08-.44c.49-2.39.66-4.91,1.55-7.13a56.21,56.21,0,0,1,4.61-8.88c4.67-7.45,5.86-15.65,5.66-24.2-.05-2.3-.2-4.6-.47-6.89a19.63,19.63,0,0,0-1.08-4.81,26.16,26.16,0,0,1-1.51-12.34,69,69,0,0,0-.34-10.45c-.13-1.88-.7-3.72-.85-5.6a55.32,55.32,0,0,1,0-5.76c0-1.06-.26-2.18-1.23-2.31a3,3,0,0,0-2.19,1.34,14.61,14.61,0,0,0-2.09,4.27c-.69,2.6-2.49,4.17-4.49,5.63-.9.66-1.91,1.18-2.74,1.91a10.84,10.84,0,0,0-2.9,3.08,4.35,4.35,0,0,1-5.5,2.56c-2-.48-3.74.11-5.6.32-2.83.33-5.66.74-8.42-.68A5.31,5.31,0,0,0-6-227c-.48.2-1.19-.24-1.81-.3a21.74,21.74,0,0,0-3.41-.25,16.65,16.65,0,0,0-2.27.67c-3.39.68-6.74,1.13-9.88-1a5.39,5.39,0,0,0-5.25-.68,6.64,6.64,0,0,1-4.82.09c-1.82-.48-3.74-1.21-4.56-3.39-.58-1.52-2-2.26-3.44-3.09-2.8-1.66-5.94-3.11-8-5.45-3.54-3.92-6.77-8.23-8.49-13.38a4.54,4.54,0,0,1,0-1.43c.41.18.94.27,1.19.58a14.93,14.93,0,0,1,1.39,2.18c.39.69.62,1.47,1.07,2.11,2.7,3.79,5,8,9.3,10.34.6.33,1,1.05,1.55,1.48,1.11.86,2.17,2.07,3.42,2.37,2.58.6,3.79,2.36,4.87,4.43a3.43,3.43,0,0,0,4,1.71c2.59-.59,4.65-2.31,4.6-3.91,0-.94-.27-1.88-.34-2.83-.12-1.82-.28-3.65-.25-5.47s.26-3.47.42-5.21.25-3.49.53-5.2c.1-.6.7-1.11,1.07-1.66.34.55,1,1.1,1,1.66,0,1.77-.22,3.55-.27,5.33,0,.83-.08,2.26.28,2.4,1.73.68,2.34,2.07,3.13,3.53.3.55,1.7.75,2.55.67a2.73,2.73,0,0,0,1.9-1.28c.86-1.81,1.37-1,1.91.11a4.1,4.1,0,0,0,3.13,2.29c2.49.4,5,.63,7.51,1.09,3.36.63,6.69,1.34,10.11.39,3.06-.85,6.28-1.52,8.38-4.13,1.37-1.71,2.22-3.83,3.52-5.61a10.86,10.86,0,0,1,3.44-3.44,7.53,7.53,0,0,0,4.11-4.62,14.14,14.14,0,0,1,.75-2.25c.22-.42.76-.94,1.16-.94s.93.5,1.2.91a5.77,5.77,0,0,1,.5,1.57,36.18,36.18,0,0,0,1.39,4.76c1.15,2.63,3.18,2.9,4.87,1.92a22,22,0,0,0,7.83-7.88,9.18,9.18,0,0,0,.59-2.53c.26-1.14.5-2.29.81-3.43.54-2,1.75-3.87.2-6a5.28,5.28,0,0,1-.5-3c.08-2.7.33-5.39.44-8.09a1.69,1.69,0,0,1,1.81-1.8c1.51-.05,1.49-.8,1.44-2-.13-2.84,0-5.68,0-8.53,0-1.66.43-3.34-1.13-4.63a2.48,2.48,0,0,1-.46-3.09A16.3,16.3,0,0,0,47.65-308.21ZM-105,14.37c2.88,0,5.76,0,8.64,0a16.82,16.82,0,0,1,3.51.52c2.37.57,4.73,1.23,7.08,1.89.17.05.26.35.39.54-1.51.79-.31,1.66,0,2.36,1.79,3.75,2.23,7.45-.31,11-1.09,1.54-2.46,2.89-3.61,4.39a3.87,3.87,0,0,0-1,2.19c.06,1.12,1.2,1,2.08,1.06,2.83.3,5.7.47,8.48,1s6,1.61,6.89,4.49c1,3.18,2.89,2.72,5.08,2.4a5.77,5.77,0,0,0,1.35-.38c2.72-1.07,5.42-2.2,8.16-3.23s2.69-1,1.78-3.85c-.5-1.59-1-3.16-1.49-4.76-.08-.29.2-.67.31-1,.22.21.53.37.65.63,1,2.07,1.9,4.17,2.88,6.24.21.44.58,1.11.92,1.14A2.32,2.32,0,0,0-50.79,38a13.58,13.58,0,0,0-.73-1.76c-.74-1.4-1.57-2.76-2.27-4.18a6.85,6.85,0,0,1-.33-1.78c.6.28,1.47.4,1.75.87a48.42,48.42,0,0,1,3.14,6.07c.73,1.76,1.37,2.4,3.13,2.07,1.48-.27,3-.57,4.41-.93a4.49,4.49,0,0,0,1.15-.7,10.21,10.21,0,0,0-.77-.83C-43.88,34.53-46.53,32.36-49,30c-2.72-2.55-5.3-5.25-7.93-7.9a8,8,0,0,1-1.43-1.6,34.33,34.33,0,0,0-6.57-7.84c-.81-.78-1.57-1.6-2.35-2.4C-71.53,5.92-75.73,1.55-80-2.78c-3.79-3.86-7.67-7.63-11.46-11.49a10,10,0,0,0-5.85-3.37c-5.71-.83-11.26-2.44-17-3.05-5.19-.55-10.13-.34-14.93,1.71-2.23.95-4,2.61-4.27,5.05s1.45,3.93,3.25,5.23a15.39,15.39,0,0,0,9.36,2.94,32.75,32.75,0,0,1,7.81.59,27.8,27.8,0,0,0,7.06.82c1.6,0,3.21-.08,4.8,0a15.11,15.11,0,0,1,8.5,2.68c3.09,2.35,6,5,9,7.48,1.83,1.55,2.58,1.56,4.24,0s1.87-1.43,3,.46a5.9,5.9,0,0,1,.36,1c-.42,0-.83,0-1.24.09-.69.08-1.55,0-2,.31a3.32,3.32,0,0,1-4.13.06,21.65,21.65,0,0,1-3.64-2.18A30.73,30.73,0,0,0-100.06-1.4a11.28,11.28,0,0,0-5.32-.55c-2.3.45-4.77.05-7.16,0a47.68,47.68,0,0,0-4.93,0c-3,.27-6,.71-9,1.08l-6.35.79c-.79.1-1.76,0-2.33.38-2.35,1.67-5.1,2.29-7.72,3.29a2.8,2.8,0,0,0-1.34,1.43,7.15,7.15,0,0,0,.95,7.71c1.09,1.4,2.08,2.19,3.91,2.1,4.93-.25,9.87-.43,14.81-.48,2.45,0,4.91.4,7.37.39s5.23-.3,7.85-.41C-107.84,14.31-106.4,14.37-105,14.37Zm3.28,1.65c-.8,0-1.6,0-2.39,0-3.39.29-6.78.72-10.17.89-5.32.26-10.66.34-16,.51a2.32,2.32,0,0,0-1.17.16c-3,2-7.06,2.23-9.16,5.88a3.38,3.38,0,0,0-.58,2.71,6.06,6.06,0,0,0,5.85,4c3.95-.24,7.88.93,11.84.08a7.69,7.69,0,0,1,2.39.06c3.61.43,7.22.83,10.81,1.38s7.46.74,11.12,2.18c5.25,2.07,7.45,2,11-2.24,4.13-4.83,3.27-10.11-2.42-12.88A23.32,23.32,0,0,0-101.68,16ZM-142.4,357c-.25-.89-.39-1.52-.61-2.11q-2-5.33-4.09-10.63a3.21,3.21,0,0,0-.56-1.05c-.29-.31-.79-.77-1.06-.69a1.94,1.94,0,0,0-1.12,1,3.81,3.81,0,0,0-.11,1.66,83.72,83.72,0,0,1,.41,8.8c-.37,6.61,1.77,12.54,4.6,18.26a141.36,141.36,0,0,0,7.07,12.68c4.4,6.95,7.59,14.43,10.55,22.06,1.78,4.58,3.68,9.12,5.8,13.55,2,4.15,4.33,8.13,6.58,12.15a8.81,8.81,0,0,0,1.88,2.12,1.27,1.27,0,0,0,1.22.09,2.49,2.49,0,0,0,.7-1.33c.06-.24-.19-.59-.35-.87-2.86-5.12-5.69-10.27-8.61-15.37-1.3-2.28-2.12-4.53-1.22-7.23a6.2,6.2,0,0,0,.1-3.44c-1.39-4.87-3-9.66-4.41-14.53-.82-2.89-1.19-5.9-2.05-8.77A29.53,29.53,0,0,1-129.1,375a4.94,4.94,0,0,0-2.41-4.62,4.93,4.93,0,0,1-2.39-3.62,7.31,7.31,0,0,0-4.26-5.68,23.66,23.66,0,0,0-4.35-.93c-.43-.1-1-.25-1.18-.56s.25-.78.46-1.15C-142.95,357.86-142.62,357.35-142.4,357Zm40.91-299.11,0-.32a28.81,28.81,0,0,0,3.6,0A28.54,28.54,0,0,0-87.3,54.18a2.18,2.18,0,0,0,1.17-3,12.41,12.41,0,0,1-.17-3.57c0-.72,0-1.67,1-1.45.45.09,1,1,1,1.55a22.16,22.16,0,0,1-.18,3.81c-.15,1.56.87,2.44,2.26,1.68a49.78,49.78,0,0,0,6.48-4c2.06-1.55,1.89-4.28-.18-5.9a13.44,13.44,0,0,0-2.69-1.47c-2.25-1-4.57-.84-7-.51-3.44.48-6.93.66-10.4,1-3.69.42-7.37.92-11.06,1.4-2.57.34-5.2.39-7.63,1.55a31.68,31.68,0,0,1-5.45,2.23,6.39,6.39,0,0,0-4,3.11A3.49,3.49,0,0,0-124,54a6.08,6.08,0,0,0,4.56,2.21,87.15,87.15,0,0,1,9.28.51C-107.28,57-104.39,57.47-101.49,57.88ZM39.93-25.95v.22c3.89-.23,7.78-.37,11.66-.71,4.33-.39,8.66-.86,12.95-1.54A7.28,7.28,0,0,0,68-29.91c1.24-1.13.71-2.48-.93-3-1.94-.64-3.85-1.38-5.8-2a11.31,11.31,0,0,0-3.41-.85c-3.25,0-6.51.19-9.75.5a26,26,0,0,0-6,1.19c-3.87,1.37-7.65,3-11.46,4.56a3.83,3.83,0,0,0-1.13.84c-1.08,1.07-.81,2.22.66,2.65a6.09,6.09,0,0,0,1.66.1ZM-167.2,250.38c2.93-.27,5.35-.51,6.25-3.33a1.9,1.9,0,0,1,.71-.88,42.54,42.54,0,0,1,4.36-2.87c3.6-1.9,7.08-3.9,9.74-7.09a5.19,5.19,0,0,1,2.32-1.07c1.57-.53,3.37-.67,4.69-1.55,2.76-1.85,5.26-4.08,7.89-6.13.87-.67,1.76-1.66,2.73-1.79,3.31-.46,5.91-2.2,8.46-4.11a17.37,17.37,0,0,0,2.5-2.18c.28-.31.18-1,.25-1.48-.44,0-1-.24-1.32-.07a12.5,12.5,0,0,0-2.62,1.6c-2.2,1.84-4.46,3.26-7.53,3a7.49,7.49,0,0,0-3.44.76q-7.5,3.36-14.91,6.93a21.66,21.66,0,0,0-3.51,2.41c-1.37,1.05-2.53,2.5-4,3.18a8.47,8.47,0,0,0-4.91,5.44c-.8,2.34-2.2,4.34-5,5a8.5,8.5,0,0,0-3.08,1.75c-.46.35-1,1.28-.8,1.67S-167.36,250.28-167.2,250.38Zm345.61,39.3a15.57,15.57,0,0,0,9.09-2.63c1.8-1.19,1.93-1.82.36-3.28-3.21-3-7.15-3.34-11.17-2.63s-7.71,1.7-11.52,2.72c-4.79,1.27-9.82,1.9-14,4.9-1,.68-2.48,1.12-1.89,2.6.67,1.7,2.17.68,3.08.25,5.77-2.74,12-2.82,18.13-3.18a8.08,8.08,0,0,1,1.9.14C174.39,288.92,176.4,289.31,178.41,289.68Zm-302.3-77.12a9.82,9.82,0,0,0,1.75-1,87.49,87.49,0,0,0,8.22-6.85c3.84-4,8.39-7,12.75-10.34,3.65-2.75,7.75-4.91,11.65-7.33,2.92-1.82,5.81-3.67,9.48-3.33a1.27,1.27,0,0,0,.47-.09c1.38-.51,1.4-1.83,1.66-3a1.77,1.77,0,0,0-.39-1.18,11,11,0,0,0-2.61.56,24.05,24.05,0,0,1-3.25,1.39,22,22,0,0,0-8.17,3.67c-.79.54-1.63,1-2.43,1.5-4.53,2.92-9.08,5.8-13.56,8.8-2.89,1.94-5.47,4.47-8.56,6-4.36,2.1-6.14,6-8.22,9.8C-125.62,212.16-125.24,212.52-123.89,212.56ZM-104,228.37c.45,2,.75,3.59,1.18,5.11a1.29,1.29,0,0,0,1.09.57,1.26,1.26,0,0,0,.89-.84c.29-3.53,2.22-6.42,3.59-9.53A14,14,0,0,0-96,219.63,5.62,5.62,0,0,1-94.4,216,6.25,6.25,0,0,0-93,214.09a2.73,2.73,0,0,0-.06-1.89c-.36-.87-1.19-.71-1.81-.29-1.38.94-2.74,1.9-4,3a34.45,34.45,0,0,1-11.62,6.37c-3.19,1-5.82,2.87-8.77,4.21-.55.25-.77,1.23-1.15,1.88.76.33,1.55,1,2.25.91a48.22,48.22,0,0,0,4.81-1.19,6.07,6.07,0,0,1,2.24-.14,3.94,3.94,0,0,0,3.87-1.26,27.53,27.53,0,0,1,3.6-3.11c.59-.45,1.26-1.06,2.1-.26s-.05,1.4-.35,2C-102.67,225.79-103.41,227.25-104,228.37Zm-3.69,69.88a33.09,33.09,0,0,0-1-3.73,1.84,1.84,0,0,0-1.36-1c-.4,0-1,.66-1.15,1.15a8.24,8.24,0,0,0-.82,3.19c.24,4.3-1.16,8.28-2,12.39-1,4.91-2.11,9.7-4.55,14.16-.74,1.36-.64,3.24-.66,4.88s1.24,2.56,2.89,2.25a4.75,4.75,0,0,0,3.58-4.19c0-2.07-.26-4.21.12-6.21.83-4.42,2-8.77,3-13.16C-108.87,304.76-108.29,301.5-107.65,298.25Zm288.12-30.47,0,.2c-.8,0-1.6,0-2.4,0s-1.51-.05-1.55,1c-.05,1.24.87,1.21,1.65,1.15a25,25,0,0,1,8.66,1.31,5.28,5.28,0,0,0,1.9.14,7.67,7.67,0,0,1,5,1.21,5.68,5.68,0,0,0,4.94.6,8.3,8.3,0,0,1,3.66.19c.34.06.82,1,.73,1.42-.17.7-1.13,1.37-.11,2a4,4,0,0,0,2.19.75c1.56-.08,3.1-.45,4.65-.66a7.16,7.16,0,0,1,2.95-.2c2.69.88,5.3,2,7.92,3.07,1,.43,2,1.05,3,1.46.36.14.86-.09,1.31-.16-.19-.4-.27-1-.58-1.18-2-1.39-4.06-2.77-6.16-4-5.68-3.44-12.06-4.64-18.48-5.72-3.9-.66-7.75-1.55-11.76-1.61A62.42,62.42,0,0,1,180.47,267.78Zm28.73,99.29c-1.36-.54-2.91-1.1-4.41-1.78-.4-.18-.64-.73-.95-1.12a4.15,4.15,0,0,1,1.52-.34,32.92,32.92,0,0,0,3.44.81,2.4,2.4,0,0,0,1.8-1.05c.19-.31-.29-1.32-.74-1.69a12.83,12.83,0,0,0-7.7-2.71,7.54,7.54,0,0,1-6.63-3.91,9.35,9.35,0,0,0-3-2.9,2.49,2.49,0,0,0-2.36,0c-.77.83.25,1.54.85,2.13a16.41,16.41,0,0,0,1.35,1,16.25,16.25,0,0,1,3.06,2.63,13,13,0,0,0,3.6,3.65,2.06,2.06,0,0,1,.77,1.79c-.86,2,.42,2.8,1.85,3.45a21.39,21.39,0,0,0,10.86,2c2-.17,2-.19,2.1,1.81a1.88,1.88,0,0,0,2,2.08c1.14,0,2.28-.2,2.52-1.32a5.08,5.08,0,0,0-.33-3.37c-1.15-1.93-4.09-2.71-6.36-2.07C211.49,366.4,210.51,366.69,209.2,367.07ZM164,162c-2.05.49-3.76.84-5.42,1.35-.51.15-1.18.72-1.23,1.15s.5,1,.9,1.47c.67.73,1.76,1.26,2.08,2.11a4.47,4.47,0,0,0,5,3.17,13.1,13.1,0,0,1,9.17,2.63,3.65,3.65,0,0,0,2.11,1c1-.11,2.32-.48,2.77-1.21.66-1-.6-1.6-1.45-2s-2.06-.84-3.06-1.3a28.62,28.62,0,0,1-8.66-6.63A15,15,0,0,0,164,162Zm-270.24,50.59c.48-.12.78-.19,1.08-.29,3.45-1.15,6.85-2.49,10.35-3.42,4.71-1.26,7-4.59,8.41-8.86.27-.81.57-1.67-.45-2.31s-1.65-.1-2.27.57a36.85,36.85,0,0,1-10.68,7.45,53.72,53.72,0,0,0-6.86,4.65,1.79,1.79,0,0,0-.45,1.43C-107.06,212.15-106.5,212.4-106.22,212.63ZM133.11,256.8c3.72-.41,6.87-.67,10-1.13,6.48-1,12.86-2.74,19.52-2.36a6.6,6.6,0,0,0,3.28-1.09,1,1,0,0,0-.14-1.83,8.85,8.85,0,0,0-3.42-.49c-2.28.14-4.55.51-6.82.79-2,.26-4.07.48-6.09.81-1.87.31-3.71.78-5.58,1.12-3.49.63-7,1.23-10.48,1.83-.94.16-2.18.2-1.87,1.52C131.62,256.45,132.84,256.67,133.11,256.8Zm28.64,167a11.08,11.08,0,0,0,2.83,7.95c.86,1,1.65,2.14,2.57,3.11a9.33,9.33,0,0,0,1.79,1.2c.17-.72.37-1.43.51-2.16a1.35,1.35,0,0,0-.15-.69c-.89-2.44-1.85-4.86-2.66-7.33a21.76,21.76,0,0,1-.95-4.36c-.26-2.52-.34-5.05-.5-7.58,0-.73-.07-1.48-1.12-1.46-1.24,0-1,1-1.08,1.73-.11,1.5-.1,3-.29,4.5C162.47,420.45,162.07,422.14,161.75,423.83Zm4.42-249.92a2.5,2.5,0,0,0-.95,0,19.17,19.17,0,0,0-1.66,1,8.31,8.31,0,0,0,1.22,1.51,5.34,5.34,0,0,0,1.53.62,18.45,18.45,0,0,1,7.58,4.74,18.1,18.1,0,0,0,3.81,2.8c2.27,1.43,4.6,2.78,6.92,4.13a15.89,15.89,0,0,0,2.73,1.38,19.31,19.31,0,0,0,2.88.57,14.39,14.39,0,0,0-2-2.13c-5.53-4-11.33-7.56-16.28-12.31A8.09,8.09,0,0,0,166.17,173.91ZM41.08,200.32l-.24.1a32.18,32.18,0,0,1,1.57,3.93c1.69,6.66,3.31,13.34,4.92,20,.24,1,.24,2,.48,3A28.39,28.39,0,0,0,49,231a1.1,1.1,0,0,0,.94.5c.22,0,.54-.57.52-.87a28.63,28.63,0,0,0-.41-3c-.8-4.84-1.5-9.69-2.48-14.49A27.27,27.27,0,0,0,44.93,205c-1-1.73-1.83-3.21-1.73-5.21a1.62,1.62,0,0,0-1-1.28c-1-.26-1.16.53-1.17,1.32Zm104.08,68.6c-.73.13-1.65.37-2.59.47-4.88.51-9.76,1-14.64,1.5-2.64.29-4.26,1.86-4.31,3.9,0,1.17.36,2.23,1.48,2.39a2.62,2.62,0,0,0,2-1.18c1.23-2.14,3.15-2.68,5.37-3,4.62-.59,9.23-1.27,13.84-2a1.43,1.43,0,0,0,.92-1c0-.35-.56-.76-1-1C146.09,268.84,145.69,268.94,145.16,268.92ZM-95,377.19a11.54,11.54,0,0,0,1.4-1.15c.79-.87,1.55-1.8,2.27-2.74a6.06,6.06,0,0,0,.55-1.24,12.29,12.29,0,0,0-1.49.09c-.38.07-.72.34-1.1.41a2.76,2.76,0,0,1-.88-.15c.11-.27.14-.62.34-.81.91-.88,1.91-1.68,2.8-2.57a27.59,27.59,0,0,0,3-3.32c.23-.32-.14-1.32-.53-1.72a1.6,1.6,0,0,0-1.56.17q-4.87,4.71-9.58,9.59a1.84,1.84,0,0,0-.06,1.63c.13.29.88.45,1.33.42.92-.06,1.85-.47,2.33.81C-96.13,376.88-95.55,377-95,377.19ZM137.14,158.08c-.46.33-1.67.77-2.11,1.61a3.5,3.5,0,0,0,.32,2.81,9.68,9.68,0,0,0,2.23,2.34c1.18,1.07,2.39,1,3.26-.32.71-1.08,1.38-1.1,2.32-.42a4.17,4.17,0,0,0,1.44.79c.49.1,1.37.07,1.51-.19a2,2,0,0,0,0-1.73A11.71,11.71,0,0,0,137.14,158.08Zm-35.36-10.61-.2-.37c-1.06.53-2.47.8-3.1,1.65-.88,1.19-.1,2.56.77,3.68.1.12.18.26.29.38,1.59,1.87,3.16,3.75,4.78,5.59.6.68,1.33,1.31,2.25.53s.11-1.62-.3-2.29a21,21,0,0,0-1.88-2.45c-1.27-1.55-1.22-1.78.13-3.16.49-.5,1.16-1.42,1-1.83a3.75,3.75,0,0,0-1.84-1.58A5.07,5.07,0,0,0,101.78,147.47ZM-81.58,411.56l-.63.32c.25.42.43,1.09.78,1.2a1.25,1.25,0,0,0,1.74-1.1,8.47,8.47,0,0,0-.16-2.35c-.54-3.05-2.51-5.91-1.21-9.2a1.12,1.12,0,0,0,0-.48c-.17-1.16-2-3-2.88-2.78-1.44.33-1.6,1.45-1.72,2.74A10.1,10.1,0,0,0-83,408.43C-82.26,409.22-82,410.5-81.58,411.56Zm190.64-242a48.33,48.33,0,0,0,1.21,5,2.83,2.83,0,0,0,4.06,1.68A2.73,2.73,0,0,0,116,172.6c-1-2.15-2-4.26-3.16-6.34-.71-1.31-1.88-1.36-2.55-.09A22.39,22.39,0,0,0,109.06,169.56ZM-108.33,271.28a26.33,26.33,0,0,0,.5,3.66c.1.4.9.78,1.43.85.23,0,.77-.7.82-1.13.25-2.12.34-4.26.55-6.39.27-2.75.55-5.5.9-8.24.23-1.75-.12-2.93-1.12-3-1.66-.11-1.39,1.45-1.91,2.32a.56.56,0,0,0,0,.23C-107.57,263.45-107.95,267.31-108.33,271.28ZM-77.43,426l-.33-.07-.9-8c0-.15,0-.31,0-.47a.63.63,0,0,0-.08-.23c-.42-.76-.93-1-1.72-.41-1.39,1.09-2.79,5.16-2,6.79a11,11,0,0,1,1.27,5.26c0,.5.53,1.42.88,1.45a2.16,2.16,0,0,0,1.77-.77A21,21,0,0,0-77.43,426ZM13.65,161.72a30.94,30.94,0,0,0,4-.77A2.28,2.28,0,0,0,19,159.56c.07-.37-.73-1.05-1.27-1.37a3.63,3.63,0,0,0-2.21-.75c-2.61.65-3.75-1-5-2.75a4.48,4.48,0,0,0-1.12-1.21c-.42-.27-1.25-.58-1.43-.41a2.09,2.09,0,0,0-.55,1.6,10,10,0,0,0,4,6.26A8,8,0,0,0,13.65,161.72ZM145.92,303.93a9.47,9.47,0,0,0,2.05-.52c2.5-1.35,5-2.73,7.41-4.18.74-.44,1.59-1.25.89-2.12a2.52,2.52,0,0,0-2.26-.69,27.74,27.74,0,0,0-4.79,2.45,33.36,33.36,0,0,0-3.6,2.69,11.18,11.18,0,0,0-1.27,1.46Zm27.57-56.35c-.62.4-1.5.65-1.65,1.14a1.93,1.93,0,0,0,.68,1.77c2.77,1.47,5.6,2.84,8.47,4.08a2,2,0,0,0,1.73-.75,1.91,1.91,0,0,0-.57-1.73,32.74,32.74,0,0,0-4.4-2.75C176.44,248.65,175,248.2,173.49,247.58ZM-105.32,434.77a26.19,26.19,0,0,0,1.17,3.14,1.8,1.8,0,0,0,2.36,1.08c1.13-.5.91-1.49.42-2.4a3.81,3.81,0,0,1,.55-4.94c.88-.92.39-1.35-.7-1.44C-103.54,430-105.28,431.83-105.32,434.77ZM158.46,161.69a10.47,10.47,0,0,0,1.71-.55,1.07,1.07,0,0,0,.28-1.92,51.26,51.26,0,0,0-5.8-3.64c-1-.52-1.86.36-1.71,1.47C153.19,158.93,156.29,161.7,158.46,161.69Zm92.59,167.12c-1.38-1.8-2.94-3.86-4.57-5.85-.1-.13-.94.11-1.17.4a1.85,1.85,0,0,0-.41,1.42,10.41,10.41,0,0,0,1.36,3.52,7.7,7.7,0,0,0,2.94,2.21C250.06,330.9,250.9,330.39,251.05,328.81ZM-131.06,235c-.22-.18-.43-.51-.65-.5a2.79,2.79,0,0,0-1.57.28q-3.91,2.89-7.72,5.93c-.28.23-.29.81-.43,1.22a4,4,0,0,0,1.34,0c3.54-1.13,6.1-3.63,8.59-6.22A4.62,4.62,0,0,0-131.06,235Z" transform="translate(205.49 429.02)"/>
    <path d="M-193.35,314.64a6.56,6.56,0,0,1,1.24,1c1.43,2.07,2.84,4.16,4.21,6.28.94,1.45,1.81,2.95,2.7,4.44a2.36,2.36,0,0,1,.15.66c-.18-.06-.42-.08-.52-.2-2.47-3.07-5-6.13-7.37-9.24a5.62,5.62,0,0,1-.89-1.9C-193.9,315.44-193.57,315.09-193.35,314.64Z" transform="translate(205.49 429.02)"/>
    <path d="M-74.88,130.19a3,3,0,0,1-.79,0,1.2,1.2,0,0,1-.75-.43c-.08-.14.15-.56.35-.72a7,7,0,0,1,4.49-1.89c3.1,0,6.21-.2,9.31-.31.15,0,.29,0,.44,0-.11.16-.18.41-.33.47A26.08,26.08,0,0,1-66.55,129C-69.25,129.56-72,129.8-74.88,130.19Z" transform="translate(205.49 429.02)"/>
    <path d="M14.77-350.15a9.06,9.06,0,0,1,2.14.67c.7.47,1.7,1.12,1.74,1.75s-.94,1.34-1.62,1.82c-1.34,1-2.88,1.62-4.14,2.66a3.34,3.34,0,0,0-.93,3.72c.43,1.44.8,2.89,1.2,4.33a4,4,0,0,0,3.84,3c4.23.4,5.85,2.61,4.89,6.72-.82,3.48-.73,3.64,2.72,5,.15.06.28.16.42.23,1.65.85,1.85,1.85.51,3.08a5.45,5.45,0,0,1-1.8,1.06c-2.74,1.06-5.5,2-8.53,1.93-.61,0-1.62.41-1.75.84a2.65,2.65,0,0,0,.47,2.13c1.34,1.67,2.89,3.17,4.28,4.81a3.23,3.23,0,0,1,0,4.36,17.47,17.47,0,0,0-1.36,2.23,5.62,5.62,0,0,0,1.88,7.51A23.48,23.48,0,0,0,23.4-290a12.46,12.46,0,0,1,5.73,3.72,9.75,9.75,0,0,1,1,1.83c.55,1.09-.23,1.21-.84.88-1.13-.61-1.81-.1-2.44.68-.9,1.11-1.79,2.22-2.61,3.39-1.91,2.67-3.73,3.32-6.81,2.19-2.52-.93-5-1.92-7.5-3-2.09-.91-2.65-2.34-1.64-4.46a6.29,6.29,0,0,0-1.2-7.83c-2.14-2.26-2.16-3.83-.53-6.43.38-.61.81-1.18,1.21-1.77,3.51-5.21,3.2-10-.84-15a15.94,15.94,0,0,1-4-10.44c0-3.18-.32-6.36-.42-9.53A9.93,9.93,0,0,1,5.89-344c1.69-1.45,3.22-3.12,5-4.42A18.53,18.53,0,0,1,14.77-350.15Z" transform="translate(205.49 429.02)"/>
    <path d="M-28.59-338.91A13.48,13.48,0,0,1-20-335.4,32.88,32.88,0,0,1-16.61-332a3.2,3.2,0,0,1,.56,3.94c-1,2-1.91,4.16-2.85,6.25-.06.14,0,.36-.1.46-.6.64-.7,2.05-1.94,1.62-.29-.11-.2-1.47-.19-2.25a28.49,28.49,0,0,0,.1-3.91,2,2,0,0,0-1.49-1.16c-.51,0-1,.71-1.56,1.12-.05,0-.06.14-.08.22-1.65,5.55-5.49,6.46-10.18,3.92a14.65,14.65,0,0,0-7.49-2.07c-1.72.05-2.74-1.11-2.7-2.91a10,10,0,0,1,3.6-7.77c2.72-2.22,5.75-3.94,9.49-3.9A13.44,13.44,0,0,0-28.59-338.91Zm-2.89,2.12c-3,.06-8.83,4.72-9.47,7.31a1.52,1.52,0,0,0,1.92,1.9,11.71,11.71,0,0,0,1.63-.95c2.24-1.14,4.47-2.31,6.74-3.37.77-.36,1.71-.32,2.49-.67,1.28-.57,1.39-1.32.52-2.35A5,5,0,0,0-31.48-336.79Z" transform="translate(205.49 429.02)"/>
    <path d="M-18.8-278.69a6.05,6.05,0,0,0,5.94-4.45l.47-1.35c.9-2.52,2.66-3.48,5.19-2.95,1.77.36,3.56.67,5.36.86a6.55,6.55,0,0,1,4.42,2.52,1.56,1.56,0,0,1-.36,2.62,3.86,3.86,0,0,1-2.19.75c-4.43-.43-8.41,1-12.5,2.4S-20.84-276-25-274.87c-1.37.37-2.71.87-4.08,1.25-1.78.5-3,.09-3.82-1.54-.73-1.46-1.53-3-.64-4.73,2.65-5.22,4.12-11,7.73-15.76A38.89,38.89,0,0,1-21.76-300a2.66,2.66,0,0,1,1.75-.56c.9,0,1.39.47.67,1.37a7.51,7.51,0,0,1-1,1c-3.3,2.8-5.12,6.65-7.17,10.3-1.63,2.89-1.09,4.13,1.75,5.75,1.38.78,2.67,1.73,4.08,2.45A18.21,18.21,0,0,0-18.8-278.69Z" transform="translate(205.49 429.02)"/>
    <path d="M32.24-330.27a22.39,22.39,0,0,1-1.42,3.93c-.71,1.23-1.5,1.13-2.44.06a3,3,0,0,1-.42-.58c-1.58-3-3.16-6-4.71-9-.49-.93-.21-1.55.89-1.66C27.49-337.87,31.94-333.78,32.24-330.27Z" transform="translate(205.49 429.02)"/>
    <path d="M40.85-280.38c-.31,2.63-.27,4.84-.88,6.85a17.76,17.76,0,0,1-2.75,4.59c-.21.3-1,.22-1.46.31a4.3,4.3,0,0,1,.19-1.32,27.16,27.16,0,0,0,2.51-12.7c0-1.41-.38-2.82-.41-4.24,0-.49.49-1,.75-1.5.29.41.74.78.83,1.22C40.11-284.77,40.5-282.36,40.85-280.38Z" transform="translate(205.49 429.02)"/>
    <path d="M-82.19-275.42a9.5,9.5,0,0,1,.87-2.35A9.78,9.78,0,0,0-79.56-284a9.47,9.47,0,0,1,.55-3c.13-.38.77-.69,1.23-.8.16,0,.67.62.72,1a41.37,41.37,0,0,1,.44,5.66A3.73,3.73,0,0,1-77.86-279c-1.43,1.39-2.73,2.71-1.64,4.94.14.29-.23.84-.37,1.27-.46-.18-1.1-.22-1.36-.56A9.61,9.61,0,0,1-82.19-275.42Z" transform="translate(205.49 429.02)"/>
    <path d="M-6.08-294.56c-2.06,0-4-1.39-4-2.89s2.52-3.49,4.27-3.48c1.5,0,3.7,2,3.7,3.39C-2.16-296-4-294.55-6.08-294.56Z" transform="translate(205.49 429.02)"/>
    <path d="M-26.64-348.11c2.2.42,4.07.74,5.92,1.14a1.3,1.3,0,0,1,.69.79c.05.16-.27.6-.5.67a23.62,23.62,0,0,1-3,.71c-1.87.31-3.74.56-5.62.8-1.05.13-2.18-.23-2.23-1.25,0-.65.92-1.57,1.64-1.95A15,15,0,0,1-26.64-348.11Z" transform="translate(205.49 429.02)"/>
    <path d="M6.45-271.59a3.21,3.21,0,0,1-3.14,2.89,3.67,3.67,0,0,1-2.19-.74,2.3,2.3,0,0,1-.57-2c.69-1.82,4.37-2.27,5.58-.79A2.65,2.65,0,0,1,6.45-271.59Z" transform="translate(205.49 429.02)"/>
  </g>
  <g>
    <path d="M123,463.6a3.34,3.34,0,0,0-.78,2.48v2.53A5.16,5.16,0,0,0,123,472a3.64,3.64,0,0,0,2.88,1,9.2,9.2,0,0,0,3.51-.6,4.79,4.79,0,0,0,2-1.28V460.68a61.72,61.72,0,0,0-6.14,1.6A6.85,6.85,0,0,0,123,463.6Z" transform="translate(205.49 429.02)" fill="none"/>
    <path d="M-59.09,451.25c-1.84,0-3.08.42-3.73,1.26a7.09,7.09,0,0,0-1,4.21v11q0,4,2.12,4.83a7.09,7.09,0,0,0,2.49.35,6.77,6.77,0,0,0,2.63-.44c1.44-.61,2.15-2.24,2.15-4.91V456.63a6.9,6.9,0,0,0-1-4.13C-56,451.66-57.25,451.25-59.09,451.25Z" transform="translate(205.49 429.02)" fill="none"/>
    <polygon points="70 868.69 63.54 892.06 77.18 892.06 70.16 868.69 70 868.69" fill="none"/>
    <path d="M-22.13,451.65a4.38,4.38,0,0,0-2.38-.46c-2.19,0-3.58.46-4.16,1.37a7,7,0,0,0-.88,3.78v3.34h8.92v-3.47q0-2.91-.42-3.51A4.16,4.16,0,0,0-22.13,451.65Z" transform="translate(205.49 429.02)" fill="none"/>
    <path d="M257.21,451.57a6.84,6.84,0,0,0-2.37-.34c-2,0-3.25.44-3.82,1.33a6.88,6.88,0,0,0-.86,3.74v11.44q0,4,2.27,4.85a6.43,6.43,0,0,0,2.26.35h.15c1.92,0,3.17-.46,3.74-1.36a7.1,7.1,0,0,0,.86-3.84V456.3Q259.44,452.42,257.21,451.57Z" transform="translate(205.49 429.02)" fill="none"/>
    <path d="M-141.9,431.48l-13.49,44.24h9.95l2.32-8.45H-127l2.53,8.45h9.85l-14.7-44.24Zm0,31.57,6.46-23.38h.16l7,23.38Z" transform="translate(205.49 429.02)"/>
    <path d="M-83.13,449.58a10.87,10.87,0,0,0-6-1.48,17.06,17.06,0,0,0-6.14,1,5.89,5.89,0,0,0-3.2,2.28v-2.89h-7.49v27.27h7.49V454.36a2.51,2.51,0,0,1,1.5-2.35,8.13,8.13,0,0,1,3.77-.78,7.51,7.51,0,0,1,3.54.69A2.23,2.23,0,0,1-88.34,454v21.73h7.49V454A4.9,4.9,0,0,0-83.13,449.58Z" transform="translate(205.49 429.02)"/>
    <path d="M-54.43,450.26a6.63,6.63,0,0,0-2.65-1.54,11.52,11.52,0,0,0-3.78-.6,13.66,13.66,0,0,0-7.24,1.6q-3.21,2-3.21,7V467a15.46,15.46,0,0,0,.44,4q1.31,5,8.87,5,5.52,0,7.57-2.52v2.29h7.52V443.37h-7.52Zm0,17.31c0,2.67-.71,4.3-2.15,4.91a6.77,6.77,0,0,1-2.63.44,7.09,7.09,0,0,1-2.49-.35q-2.11-.84-2.12-4.83v-11a7.09,7.09,0,0,1,1-4.21c.65-.84,1.89-1.26,3.73-1.26s3.08.41,3.73,1.25a6.9,6.9,0,0,1,1,4.13Z" transform="translate(205.49 429.02)"/>
    <path d="M-24.69,448.12q-5.7,0-8.62,1.6-3.73,2-3.73,7.18v9.64a11,11,0,0,0,1,5.38,6.64,6.64,0,0,0,2.28,2.43,11.66,11.66,0,0,0,3.51,1.23,29.71,29.71,0,0,0,5.88.46,20.88,20.88,0,0,0,6.16-.77,6.8,6.8,0,0,0,3.71-2.52q1.22-1.74,1.22-6.09V465.5h-7.34v2.2c0,.54,0,1.21,0,2a3.67,3.67,0,0,1-.86,2.21q-.82,1-3.27,1a5.89,5.89,0,0,1-3.58-.88c-.76-.58-1.13-2.05-1.13-4.42v-5.43h16.37v-5.15a10.71,10.71,0,0,0-1.17-5.4C-15.73,449.3-19.18,448.12-24.69,448.12Zm4.06,11.56h-8.92v-3.34a7,7,0,0,1,.88-3.78c.58-.91,2-1.37,4.16-1.37a4.38,4.38,0,0,1,2.38.46A4.16,4.16,0,0,1-21,452.7q.42.6.42,3.51Z" transform="translate(205.49 429.02)"/>
    <path d="M7.3,449A6.17,6.17,0,0,0,4,451.48v-3H-3.57v27.27H4V453.56q2.85-2.28,9.42-2.28l0-.8a7.12,7.12,0,0,0-.15-2.36A17.41,17.41,0,0,0,7.3,449Z" transform="translate(205.49 429.02)"/>
    <path d="M34.32,461.39l-3.94-1.84q-5-2.46-5-5.12A2.61,2.61,0,0,1,26.5,452a6.55,6.55,0,0,1,3.4-.71,3.87,3.87,0,0,1,3.2,1.17,5.67,5.67,0,0,1,.93,3.56v1.89h7.12v-1.31q0-6.09-5-7.73a20.76,20.76,0,0,0-6.25-.78q-5.66,0-8.73,1.59a5.14,5.14,0,0,0-3.07,4.83q0,4.08,7.13,7.47c.31.16,1,.47,2,.94s1.63.76,1.9.9q5.48,2.67,5.48,5.63a3.1,3.1,0,0,1-1,2.66,6,6,0,0,1-3.42.76q-4.3,0-4.31-4.73v-2H18.5v2.05q0,4.14,3,6t8.88,1.87q11.69,0,11.73-6.62Q42.07,465.08,34.32,461.39Z" transform="translate(205.49 429.02)"/>
    <path d="M90.84,464.24a23.56,23.56,0,0,1-.24,3.66,4,4,0,0,1-1.55,2.53c-.86.69-2.32,1-4.36,1a7.69,7.69,0,0,1-4.39-1A7.47,7.47,0,0,1,79,469.18q-.66-.82-.66-4.5v-6H67.17V465q0,5.69,4.3,8.48t13.47,2.78q17.32,0,17.33-12.27V427.38H90.84Z" transform="translate(205.49 429.02)"/>
    <path d="M135.56,449.5q-2.58-1.38-8.31-1.38c-3.83,0-6.78.54-8.85,1.64s-3.1,3.28-3.1,6.58v.78h7.45v-.95a6.55,6.55,0,0,1,.84-3.87c.56-.71,1.66-1.07,3.31-1.07a6.32,6.32,0,0,1,3.49.71c.68.47,1,1.88,1,4.22v2.1q-11.65,2.13-14.23,3.79t-2.58,4v2.66Q114.68,476,124,476a13,13,0,0,0,4.9-.81,5.07,5.07,0,0,0,2.56-1.79v2.37H139V457.16a17.17,17.17,0,0,0-.25-3.22A6,6,0,0,0,135.56,449.5Zm-4.15,21.56a4.79,4.79,0,0,1-2,1.28,9.2,9.2,0,0,1-3.51.6,3.64,3.64,0,0,1-2.88-1,5.16,5.16,0,0,1-.84-3.35v-2.53a3.34,3.34,0,0,1,.78-2.48,6.85,6.85,0,0,1,2.32-1.32,61.72,61.72,0,0,1,6.14-1.6Z" transform="translate(205.49 429.02)"/>
    <path d="M172,449.58a10.85,10.85,0,0,0-6-1.48,17.06,17.06,0,0,0-6.14,1,5.82,5.82,0,0,0-3.19,2.28v-2.89h-7.49v27.27h7.49V454.36a2.5,2.5,0,0,1,1.49-2.35,8.13,8.13,0,0,1,3.77-.78,7.51,7.51,0,0,1,3.54.69,2.23,2.23,0,0,1,1.28,2.07v21.73h7.49V454A4.9,4.9,0,0,0,172,449.58Z" transform="translate(205.49 429.02)"/>
    <path d="M198.75,461.39l-3.94-1.84q-5-2.46-5-5.12a2.61,2.61,0,0,1,1.13-2.4,6.55,6.55,0,0,1,3.4-.71,3.87,3.87,0,0,1,3.2,1.17,5.67,5.67,0,0,1,.93,3.56v1.89h7.12v-1.31q0-6.09-5-7.73a20.76,20.76,0,0,0-6.25-.78q-5.65,0-8.73,1.59a5.14,5.14,0,0,0-3.07,4.83q0,4.08,7.13,7.47c.31.16,1,.47,2,.94s1.63.76,1.9.9q5.47,2.67,5.48,5.63a3.1,3.1,0,0,1-1,2.66,6,6,0,0,1-3.42.76q-4.31,0-4.31-4.73v-2h-7.27v2.05q0,4.14,3,6t8.88,1.87q11.68,0,11.73-6.62Q206.5,465.08,198.75,461.39Z" transform="translate(205.49 429.02)"/>
    <path d="M228.17,461.39l-3.95-1.84q-5-2.46-5-5.12a2.6,2.6,0,0,1,1.14-2.4,6.49,6.49,0,0,1,3.39-.71,3.86,3.86,0,0,1,3.2,1.17,5.67,5.67,0,0,1,.93,3.56v1.89H235v-1.31q0-6.09-5-7.73a20.76,20.76,0,0,0-6.25-.78q-5.67,0-8.73,1.59a5.14,5.14,0,0,0-3.07,4.83q0,4.08,7.12,7.47l2,.94c1,.46,1.64.76,1.9.9,3.66,1.78,5.48,3.66,5.48,5.63a3.08,3.08,0,0,1-1,2.66,5.94,5.94,0,0,1-3.41.76c-2.88,0-4.31-1.58-4.31-4.73v-2h-7.28v2.05q0,4.14,3,6t8.88,1.87q11.7,0,11.73-6.62Q235.91,465.08,228.17,461.39Z" transform="translate(205.49 429.02)"/>
    <path d="M254.55,448.12a23.13,23.13,0,0,0-5.78.65q-6.14,1.64-6.14,8.28v9.65a10.65,10.65,0,0,0,1.32,5.71q2.34,3.63,10.93,3.63,5.88,0,9-1.8T267,466.7v-9.65a9.63,9.63,0,0,0-1.46-5.49Q263.13,448.13,254.55,448.12Zm4.89,19.62a7.1,7.1,0,0,1-.86,3.84c-.57.9-1.82,1.36-3.74,1.36h-.15a6.43,6.43,0,0,1-2.26-.35q-2.27-.84-2.27-4.85V456.3a6.88,6.88,0,0,1,.86-3.74c.57-.89,1.85-1.33,3.82-1.33a6.84,6.84,0,0,1,2.37.34q2.24.84,2.23,4.73Z" transform="translate(205.49 429.02)"/>
    <path d="M299.65,449.58a10.81,10.81,0,0,0-5.95-1.48,17,17,0,0,0-6.14,1,5.89,5.89,0,0,0-3.2,2.28v-2.89h-7.49v27.27h7.49V454.36a2.51,2.51,0,0,1,1.5-2.35,8.09,8.09,0,0,1,3.76-.78,7.56,7.56,0,0,1,3.55.69,2.23,2.23,0,0,1,1.28,2.07v21.73h7.49V454A4.89,4.89,0,0,0,299.65,449.58Z" transform="translate(205.49 429.02)"/>
  </g>
  <g>
    <path d="M182.68-287H187l-5.87,38.67h-5.3L169.37-287h4.33l2.57,16.37,2.19,14.39h.09l1.91-14.39Z" transform="translate(205.49 429.02)" fill="#1d1d1b"/>
    <path d="M191.43-287h7.27q4.44,0,6.11,2.73t1.67,7.77l0,17c0,4-.61,6.82-1.82,8.57s-3.26,2.61-6.13,2.61h-7.12ZM202-276.61a11.67,11.67,0,0,0-.85-5.21,3,3,0,0,0-2.82-1.58H196V-252h2.33a3.49,3.49,0,0,0,2.07-.53q1.6-1.14,1.6-6.28Z" transform="translate(205.49 429.02)" fill="#1d1d1b"/>
  </g>
  <path d="M188.67-224.71a44,44,0,0,1-44-44,44,44,0,0,1,44-44,44,44,0,0,1,44,44A44,44,0,0,1,188.67-224.71Zm0-84.94a41,41,0,0,0-41,41,41,41,0,0,0,41,41,41,41,0,0,0,41-41A41,41,0,0,0,188.67-309.65Z" transform="translate(205.49 429.02)"/>
</svg>
