<?xml version="1.0" encoding="utf-8"?>
<!-- Generator: Adobe Illustrator 24.1.2, SVG Export Plug-In . SVG Version: 6.00 Build 0)  -->
<svg version="1.1" id="Lager_1" xmlns="http://www.w3.org/2000/svg" xmlns:xlink="http://www.w3.org/1999/xlink" x="0px" y="0px"
	 viewBox="0 0 84 68" style="enable-background:new 0 0 84 68;" xml:space="preserve">
<g>
	<g>
		<path d="M256.6,99.2c-142.6,0-285.3,0-427.9,0c0-14,0-28,0-42c142.6,0,285.3,0,427.9,0C256.6,71.2,256.6,85.2,256.6,99.2z
			 M70.7,86.3c30.8,3,61.6-0.4,92.4-0.3c30.7,0.1,61.5,2.4,92.3,0.3c-63.2-4.5-126.4,0.1-190.4-2.1c2.4-1.4,4.3-0.9,6-0.9
			c59.7,0,119.3,0,179,0c1.3,0,2.7,0,4,0c0.9,0,1.6-0.3,1.6-1.4c0-1.1-0.6-1.5-1.5-1.5c-1.3,0-2.7,0-4,0c-31.3,0-62.7,0-94,0
			c-1.8,0-3.6,0.5-6.7-1.1c35.5,0,69.7,0,103.9,0c0-0.3,0-0.7,0-1c-108.5,0-217,0-325.5,0c0-0.3,0-0.6,0-0.9c2,0,3.9,0,5.9,0
			c105.6,0,211.3,0,316.9-0.1c1.7,0,5,1.8,4.8-2.1c-0.1-3.4-3.1-1.7-4.7-1.7c-21.3-0.1-42.5,0-63.8-0.1c-16.5,0-32.9-0.6-49.4-0.8
			c-32.3-0.3-64.5-1.3-96.8,0.8c-10.3,0.7-20.5-1.5-30.8-1c-9.8,0.5-19.5,1-29.3,1c-32.5-0.1-65,0-97.5,0c-1.9,0-3.8,0-6,0
			c1.4-2.4,3.4-1.9,5.2-2c7.8-0.6,15.5,1.2,23.3,1c11-0.3,21.9-0.8,32.9-0.9c12.4-0.1,24.9-0.3,37.3,0.8c8.6,0.8,17.2-0.7,25.8-0.8
			c54.8-0.3,109.6-0.1,164.5-0.1c28.5,0,57,0,85.5-0.1c1.3,0,3.5,1,3.6-1.1c0.1-1.8-2-1.8-3.5-1.8c-1.2,0-2.3,0-3.5,0
			c-51.2,0-102.3,0-153.5,0c-1.7,0-3.3,0-5,0c0-0.4,0-0.8,0-1.1c8.1,0,16.2,0,24.3,0c0-0.2,0-0.4,0-0.5c-26.4,0-52.9,0-79.3,0
			c0,0.3,0,0.5,0,0.8c11.2,0,22.4,0,33.6,0c0,0.1,0,0.3,0,0.4c-43.2,0-86.5,0-129.7,0c9.6,0.1,19.2-1,28.7-2.1
			c-41.5,1.6-83,0-124.5,1.7c9.5,0,19,0,28.6,0c-12.6,0.9-25.3,0.8-37.9,0.9c-1.3,0-3.6-1.8-3.8,1.2c-0.2,3,2.3,1.7,3.6,1.7
			c8.5,0.1,17.1,0.1,25.9,0.1c-1.1,2.8-3,1.9-4.5,2c-7.3,0.1-14.7,0-22,0.1c-1.4,0-3.1-0.5-3.1,2c0,2.5,1.8,1.9,3.2,1.9
			c3.7,0.1,7.3,0,11,0c9.6,0,19.1,0,28.7,0c-12.5,1-24.9,1.2-37.4,0.9c-3.8-0.1-5.2,1.2-5.2,4.8c76,0,151.8,0,227.6,0
			c-7.5,1.2-14.8,2.1-22.5,1.6c-14.4-1-28.8-0.2-43.3,0.6c-13.1,0.7-26.2-0.3-39.3-0.7c-22-0.6-44.1-0.1-66.1-0.2
			c-9,0-17.9,1-26.8,0.8c-7.9-0.2-15.9-0.5-23.8-0.9c-4.3-0.2-6.5,1.1-6,5.3c0.4,3.6,3.7,1.7,5.6,1.7c7,0.2,14,0.1,21.1,0.1
			c0,0.3,0,0.6,0,0.9c-8.8,0-17.6,0-26.4,0c1.4,1.6-1.7,5.2,2.9,5.2c15.2-0.2,30.4-0.1,45.6-0.1c16,0.1,32,0.2,48.1,0.4
			c6.1,0.1,12.2,1.2,18.1,0.4c9.3-1.3,18.6-0.7,27.8-0.7c44.8,0.3,89.5-1.4,134.3,0.9c7.6,0.4,15.2-0.9,22.8-0.9
			c14.4-0.1,28.8,0.9,43.1,0.4c22.3-0.8,44.6-0.1,66.9-0.4c0.7,0,1.4-0.1,2,0.1c4.5,1.3,8.9,0.1,13.3-0.5c-52.4-3-104.8,0.2-157.1-1
			C45.2,94.7-7.4,97.1-60,95.7c11.2-0.7,22.5-1.2,33.7-1.2c39.1,0,78.2-1.2,117.3,0.6c13.2,0.6,26.5-0.3,39.8-0.5
			c37-0.8,74-0.3,111-0.2c3.4,0,6.8,1.2,10.3,0.9c1.4-0.1,3.2-0.1,3.1-1.6c-0.1-1.5-1.9-1.5-3.3-1.4c-1.2,0-2.3,0-3.5,0
			c-8.2,0-16.4,0-24.6,0c9.3-1,18.6-0.9,27.9-1.1c1.3,0,3.9,1.2,3.8-1.6c-0.1-2.2-2.4-1.3-3.6-1.3c-27.6,0.7-55.2-0.9-82.8-1.2
			c-27.8-0.2-55.5,1.7-83.3,1.1C80.6,88.2,75.6,88.4,70.7,86.3z M-87.4,60.8c-0.1,0.5-0.2,1-0.2,1.4c-3.8,0-7.7,0-11.5,0
			c-8.3,0-16.7,0.7-25-0.2c-14.8-1.6-29.6-0.2-44.3-0.8c-1.1,0-2,0.2-1.9,1.6c0.1,1.3,0.5,1.9,2.2,1.9c4.3,0,8.7,0.5,13,0.5
			c26,0.1,52,0.2,78,0c10.4-0.1,20.9,0.9,31.3-0.8c4.6-0.8,9.5-0.7,14.2-0.5c7,0.3,14,1.4,21.2,1.5c6,0,11.9-0.8,17.8-1
			c5.9-0.2,11.8,1.1,17.8,1.1c13,0.1,25.9-0.9,38.8-1.1c14.9-0.2,29.9,0.6,44.8,0.8c47.5,0.5,95,0.2,142.5,0.1
			c1.5,0,4.3,1.3,4.1-1.7c-0.1-2.3-2.7-1.2-4.1-1.2c-14.8-0.1-29.6,0.4-44.3-1.1c-5.4-0.5-10.5,1.2-15.8,1
			c-32.4-0.7-64.9,1.1-97.3-0.9c-7.4-0.5-14.9,0.5-22.3,0.6c-14.9,0.4-29.9,0.7-44.8,1.3c-6.2,0.3-12.2-1.3-18.3-1.1
			c-10.2,0.2-20.3,0.2-30.5,0c-6.8-0.1-13.5,0-20.3-0.6c-5.6-0.5-11.2-1.4-17.1-0.7c-6.4,0.8-13.1,2.5-20.6,0.8
			c5.1-0.8,9.2-1.8,13.5-2.2c-34.2,0-68.4,0-102.6,0c0,0.2,0,0.5,0,0.7c9.1,0,18.2,0,27.4,0c9.2,0,18.3-0.1,27.5,0
			C-105.4,60.4-96.3,59.6-87.4,60.8z M-44.3,59.4c10.7,2.2,21.5,2.1,32.3,1c7-0.7,14.2-0.3,21.3,0.4c8.2,0.7,16.5,2.3,24.7,1.3
			c8.2-1,16.4-1.8,24.6-1.8c39.6,0.4,79.2-1.3,118.7,0.9c6.9,0.4,13.8-1.3,20.8-1c15.7,0.6,31.5,0.7,47.3,1.1
			c3.1,0.1,6-0.7,10.3-1.8C154.8,59.4,55.2,59.4-44.3,59.4z M119,66.4c-0.1,0.2-0.1,0.3-0.2,0.5c45.1,0,90.3,0,135.4,0
			c0-0.2,0-0.3,0-0.5C209.1,66.4,164,66.4,119,66.4z"/>
		<path d="M-171.3-30.7c142.6,0,285.3,0,427.9,0c0,14,0,28,0,42c-142.6,0-285.3,0-427.9,0C-171.3-2.7-171.3-16.7-171.3-30.7z
			 M-9.9-27.3L-9.9-27.3c0.1-1.2,0.8-2.6-1.8-2.5c-6.6,0.4-13.2,0.5-19.8,0.9c-18.9,1-37.8-0.4-56.8,1.1c-9.6,0.8-19.2-0.4-28.8-0.7
			c-17-0.6-34-0.2-51-0.1c-0.9,0-2.1-0.3-2.1,2c21.4,0,42.9,0,64.4,0c0,0.5,0,1,0,1.5c-21.5,0-42.9,0-64.4,0
			c1.7,1.9,3.6,1.4,5.4,1.4c36.8,0,73.6-0.4,110.4,0.2c14.3,0.3,28.5,0.8,42.8,0.6l-0.1-0.1c1.8,2.4,4.4,1.6,6.4,1.1
			c7.7-1.7,15.1-2.7,23.2-2.1c16.9,1.2,33.8,0.3,50.8,1.1c24.1,1.2,48.2-0.8,72.3,1.1c13.4,1,26.9-0.9,40.2,1.1
			c0.4,0.1,1.3,0.5,1.5-0.6c-0.7-0.3-1.4-0.5-2.1-0.7c14,0.9,28,0.4,42.4,0.3c-1.3-1.5-2.9-0.3-3.7-1.9c1.4,0,2.8-0.2,4,0
			c9.9,2.1,19.9,0.4,29.8,0.9c0.9,0,2.3,0.4,2.2-1.1c0-1-0.9-1.7-2.1-1.8c-1.2-0.1-2.3-0.1-3.5-0.1c-8.8,0-17.7,0-26.5,0
			c-5.2,0-10.3,0-15.5,0c0-0.5,0-1,0-1.5c15.8,0,31.7,0,48.4,0c-1-1-1.1-1.1-1.3-1.2c-15.5-1.4-31.2-0.5-46.7-0.8
			c-10.9-0.1-21.9-0.3-32.9,0c-38.1,1-76.2,0.8-114.3-0.6c-3.7-0.1-7.2-0.2-9.7,3.2c-1,1.3-2.5,0.9-3.7,0.3c0.1-2.2,3-1.4,2.9-2.9
			c-7.7,0.5-15.4-1-23.5,1c5.4,2.8,10.5,0.9,15.7,0.8c-3.9,2-8.2,2.6-12.3,1.8c-9-1.7-17.4-5.3-27-4.5C-1.2-29.5-5.5-28.6-9.9-27.3z
			 M125.8-16.7c0-0.3,0-0.7,0.1-1c0.8,0,1.6,0,2.4,0c31.5,0,63,0,94.5,0c1.5,0,3,0.5,4.3,0.6c8.4,0.3,16.8,0.3,25.3,0.4
			c1.5,0,3-0.3,2.9-1.9c-0.1-1.7-1.8-1-2.8-1c-8.9-0.3-17.9-0.5-26.8-0.8c-14.6-0.4-29.2-1.3-43.8,0.7c-3.4,0.5-7,0.3-10.5-0.1
			c-11.9-1.4-23.7-1.3-35.6,0c-5.9,0.6-11.9,1.5-17.8,0.9c-7.5-0.7-15-2-22.6-1.7c-8.3,0.3-16.5,1.5-24.8,0.9
			c-12.4-0.9-24.7-1.9-37.1,0c-1.2,0.2-2.6-0.4-3.9-0.4c-8.2-0.3-16.5-2.2-24.7-1.3c-6.9,0.7-13.7,1.8-20.6,1.8
			c-8.9,0-17.9-0.6-26.8-0.7c-41.2-0.6-82.3-0.2-123.5-0.2c-1.6,0-4.1-0.3-4,1.8c0.1,2.4,2.7,1.2,4,1.2c19.5-0.6,39.1,0.5,58.6,0.2
			c36-0.5,72-0.1,108.1-0.2c18.4,0,36.9,0,55.3-0.9c13.4-0.6,26.8,1.5,40.3,0.9c7.1-0.3,14.1-0.1,21.2-0.1c-1.6,1-3.3,0.9-4.9,1
			c-23.9,0.8-47.7-1.4-71.6-0.1c-11.9,0.7-23.8,1.4-35.8,1.1c-11.8-0.3-23.6-0.8-35.3-0.8c-25.9-0.1-51.9-1.1-77.8,0.6
			c-9.2,0.6-18.5,0.4-27.8-0.6c-9.2-1-18.6-0.3-28-0.1c-2.3,0-6.5-1.6-6.3,2.4c0.2,3.1,4.1,1.4,6.2,1.4c42.2,0.1,84.4,0.1,126.6,0.1
			c5.2,0,7.4,0.4,9.6,2c-47.8,0.2-95-2.3-142.2,0.2c28.1,1.1,56.3-1.3,84.3,1.6c-1.6,0.2-3.2,0.1-4.9,0.2c-15,0.7-30-1.1-45.1-0.1
			c-8.1,0.5-16.3,0-24.5,0.1c-3.1,0-6.8-1.2-9.2,0.7c-1.8,1.4-0.5,4.8-0.8,7.4c-0.1,0.5-0.3,0.9-0.4,1.4c-0.5,3.2,0.2,4.7,4.1,4.6
			c18-0.2,36-0.1,54-0.1c1.6,0,3.3-0.5,5.7,1c-7.9,0-14.8,0-21.8,0c-7.2,0-14.3-0.1-21.5,0c-6.7,0.1-13.4-0.5-20,1.2
			c1.9,0.8,3.7,0.8,5.5,0.8c22.6-0.1,45.2,0.2,67.8-0.9c8.6-0.4,17.1,1.3,25.9,1.1C-35,7.6,0.6,8,36.2,7.5
			c68.1-0.9,136.3-0.3,204.5-0.2c3.4,0,6.9-0.5,10.3,0.8c1.2,0.5,3.4,1,4-1.6c-115.8,0-231.6,0-347.3,0c0-0.4,0-0.8,0-1.2
			c2,0,3.9,0,5.9,0c111.5,0,223,0,334.5,0c1.5,0,3,0,4.5,0c2.4,0,3-1.4,3.1-3.6c0.1-2.7-1.6-2.4-3.3-2.4c-2.9,0-5.8,0-8.6,0
			c3-1,5.9-1,8.9-1c0.9,0,2.5,0.4,2.6-0.6c0.2-2.6,0.2-5.3-0.5-7.8c-0.4-1.3-2.7-0.5-4.1-0.6c-7.9-0.1-15.8,0-23.8,0
			c8.3-1,16.6-1,24.9-1c1.8,0,3.6-0.1,3.6-2.4c0-2.6-2.2-1.6-3.4-1.6c-20.1,0.6-40.2-1.1-60.3-1.1c-11.2,0-22.4,0-33.6,0
			C147.4-16.7,136.6-16.7,125.8-16.7z M138.8,8.5c0,0.1,0,0.2,0,0.4c32.5,0,64.9,0,97.4,0c0-0.1,0-0.2,0-0.4
			C203.7,8.5,171.3,8.5,138.8,8.5z M33,8.4c-0.1,0.2-0.1,0.3-0.2,0.5c15.5,0,31,0,46.5,0c0-0.2,0-0.3,0-0.5
			C63.8,8.4,48.4,8.4,33,8.4z M-166-22.5c0,0.2-0.1,0.3-0.1,0.5c11.9,0,23.7,0,35.6,0c0-0.2,0-0.3,0-0.5
			C-142.4-22.5-154.2-22.5-166-22.5z"/>
		<path d="M-171.3,55.2c0-14,0-28,0-42c142.6,0,285.3,0,427.9,0c0,14,0,28,0,42C113.9,55.2-28.7,55.2-171.3,55.2z M-87.6,32.2
			c0,0.3,0,0.7,0,1c-2.6,0-5.3,0-7.9,0c-23.5,0-47,0.1-70.5-0.1c-3.5,0-4.6,0.9-4.4,4.4c0.2,3.9,2.8,2.6,4.6,2.6
			c42.7,0.1,85.3,0,128,0c1.8,0,3.6,0,5.4,0c0,0.3,0,0.7,0,1c-6.6,0-13.2,0-19.7,0c-6.5,0-13,0-19.5,0c-6.7,0-13.3,0.3-20-0.1
			c-6.7-0.4-13.3,2.1-19.8,0.8c-6.7-1.3-13.2-0.4-19.8-0.7c-6.5-0.3-13-0.3-19.5,0c-6.3,0.3-12.8-1.2-18.9,2c6.1,0,12.2,0,18.3,0
			c-4.8,0.9-9.6,0.7-14.4,1c-1.4,0.1-3.7-1.6-4.3,1.8c-0.6,3.6,0.7,4.5,4.1,4.2c-1.2,1.7-3.6-0.1-4.2,2c0.8,1.3,1.9,0.8,2.8,0.8
			c24.9,0,49.7,0,74.6,0c1.2,0,2.7,0.7,3.5-1c0.5-1,1.2-1,1.8-0.2c1.8,2.3,3.6,1.1,5.7,0.5c3.1-0.9,6-2.8,10.7-2.3
			c-4.1-1.6-6.9-2-10.5-2.1c2.9-2.4,5.4-3.2,9.2-2.5c-1.6,0.5-2.5,0.8-4.2,1.4c5.7,1.5,10.3,3.3,14.9,5.3c4.1,1.8,8.4,1.4,12.4,0.2
			c4.9-1.5,9.8-2.2,15-2.2c31.8,0.1,63.7,0,95.5,0c2,0,4-0.4,5.9-0.5c6.4-0.4,12.8-0.2,19.2-0.2c-7.8,0.4-15.4,1.9-23.2,1.8
			c-31.3-0.2-62.7-0.1-94,0c-4.4,0-8.9,0.8-13.4,1.3c100,0,199.8,0,299.6,0c0-0.4,0-0.8,0-1.2c-23.2,0-46.4,0-70.8,0
			c2.8-1.6,4.6-1.1,6.4-1.1c20.3,0,40.7,0,61-0.1c1.5,0,4,1.1,3.5-2.4c-0.3-2.3-0.3-3.8-3.6-3.7c-9,0.4-18,0.1-27,0.1
			c-5.4,0-10.8,0-16.1,0c7.8-0.2,15.4-1.9,23.2-2.2c7.7-0.3,15.4,2.3,23.1,0.8c0-0.5,0-1,0-1.5c-21.7,0-43.4,0-65.2,0
			c0-0.4,0-0.8,0-1.2c1.6,0,3.3,0,4.9,0c19,0,38,0,57,0c2,0,4,0.5,3.9-2.8c-0.1-2.9-0.9-4.4-4-4.2c-3.6,0.2-7.2,0-10.7,0
			c4.2-1,8.3-1,12.5-1c1.3,0,2.2-0.3,2.2-1.9c0-1.6-0.7-2.1-2.1-2c-1.3,0-2.7,0-4,0c-9.6,0-19.2,0-28.8,0c0-0.4,0-0.9,0-1.3
			c11.6,0,23.1,0,34.7,0c0-0.5,0-1,0-1.5c-9.6,0-19.3-0.7-28.9,0.4c-6.4,0.7-12.9,1.7-19.2,1.3c-8.7-0.7-17.4-1.8-26.1-1.7
			c-82.6,0.5-165.2-1.4-247.8,1c-7.7,0.2-15.2-1.1-22.8-1.1c-14.5,0-29,0-43.5,0c-4.1,0-8.2,0-13.5,0c2.8-1.4,4.7-1,6.5-1
			c30.8,0,61.7,0,92.5,0c62.2,0,124.4,0,186.6,0c23.6,0,47.2,0.3,70.8,0.7c12.2,0.2,24.5-0.7,36.8-0.7c2,0,4,0.1,6,0
			c1-0.1,2.4,0.6,2.8-1.9c-23.3,0-46.4,0-69.6,0c0-0.3,0-0.7,0-1c1.6,0,3.3,0,4.9,0c20.2,0,40.3-0.1,60.5,0.1c3.4,0,4.4-0.7,3.9-4.2
			c-0.5-3.5-3-1.8-4.3-1.8c-47.5-0.1-95-0.1-142.5-0.1c-1.7,0-3.5,0.3-5-0.2c-5.6-1.8-11.3,1.8-17.1-0.5c-1.6-0.6-4.5,0.4-7-0.2
			c-2.2-0.5-5.2-1.2-7.1,0.4c-1.9,1.6-4.5,3.4-5.3,2c-1.5-2.5-4.6-0.2-6-2.6c-0.3-0.5-1.3,0.3-1.7,1.3c-0.2,0.6-0.9,1.8-1.6,0.9
			c-3.6-5.2-8.8-0.8-13.1-1.6c-2.8-0.5-7.4,0-11.2,0.6c-4.1,0.7-8.5-0.7-12.8-1.2C15,13.6,9.3,15.4,3.5,15.3
			c-25.8-0.2-51.7-0.1-77.5-0.1c-1.7,0-3.6-0.4-4.9,0.4c-5,2.8-10.2,1.2-15.4,0.8c2.3-0.1,4.5-0.2,6.8-0.4
			c-26.2-0.8-52.3-0.7-78.5-1c-3.9,0-4.1,2.2-4.2,4.4c-0.1,3,2.7,1.5,4.2,1.7c1.8,0.3,3.6,0.1,5.5,0.1c-2.5,1-5,1.1-7.4,1
			c-2.1-0.1-2.3,0.5-2,2.6c0.3,2.1,0.6,2.3,2.6,2c9.6-1.3,19.3-0.7,28.8,1.2c-9.3-0.3-18.7-1.8-28,0.2c-1.5,0.3-4.1-1-3.9,2.2
			c0.2,2.8,2.4,1.7,3.8,1.7c16,0.1,32,0.1,48,0.1C-108.2,32.2-97.9,32.2-87.6,32.2z"/>
		<path d="M-21.3,33.2c11.7-0.4,23.4-1.5,35.2-0.3c10.7,1.1,21.6,1.3,32.4-0.5c1.6-0.3,3.3-0.2,5-0.2c47.6,0,95.3,0.4,142.9-0.3
			c11.5-0.2,22.9,1.3,34.3,1.3c-1.8,0-3.6,0-5.4,0c-54.8,0-109.6,0-164.4,0.1c-8.2,0-16.4,1.4-24.6,1.7c-10.4,0.4-20.8-0.5-31.2-1.2
			C0.9,33.6-1,33.3-3,33.3C-9.1,33.2-15.2,33.2-21.3,33.2z"/>
		<path d="M170.2,41c-64.1,0-128.3,0-192.4,0c0-0.2,0-0.3,0-0.5c64.2,0,128.4,0,192.6,0C170.4,40.6,170.3,40.8,170.2,41z"/>
		<path d="M-83.1,21.8c55.6-0.7,111.1,0.1,166.6-1C27.9,22.9-27.6,21.9-83.1,21.8z"/>
		<path d="M75,43.7c-47.6,0-95.4,0-142.5,0C-63.2,42.8,73.6,42.8,75,43.7z"/>
		<path d="M64.8,27.5c42.2,0,84.4,0,126.6,0c0,0.2,0,0.3,0,0.5c-42.2,0-84.3,0-126.5,0C64.9,27.8,64.9,27.6,64.8,27.5z"/>
		<ellipse cx="-37.3" cy="27.8" rx="84.5" ry="0.3"/>
		<ellipse cx="6.5" cy="17.7" rx="15.3" ry="0.3"/>
		<path d="M-4.8,46.4c5.7,0,11.5,0,17.2,0c0,0.2,0,0.3,0,0.5c-5.9,0-11.8,0-17.7,0C-5.1,46.8-5,46.6-4.8,46.4z"/>
	</g>
</g>
</svg>
