<?xml version="1.0" encoding="utf-8"?>
<!-- Generator: Adobe Illustrator 24.1.2, SVG Export Plug-In . SVG Version: 6.00 Build 0)  -->
<svg version="1.1" id="Lager_1" xmlns="http://www.w3.org/2000/svg" xmlns:xlink="http://www.w3.org/1999/xlink" x="0px" y="0px"
	 viewBox="0 0 428 414" style="enable-background:new 0 0 428 414;" xml:space="preserve">
<g>
	<g>
		<path d="M428.8,272.2c-142.6,0-285.3,0-427.9,0c0-14,0-28,0-42c142.6,0,285.3,0,427.9,0C428.8,244.2,428.8,258.2,428.8,272.2z
			 M242.9,259.3c30.8,3,61.6-0.4,92.4-0.3c30.7,0.1,61.5,2.4,92.3,0.3c-63.2-4.5-126.4,0.1-190.4-2.1c2.4-1.4,4.3-0.9,6-0.9
			c59.7,0,119.3,0,179,0c1.3,0,2.7,0,4,0c0.9,0,1.6-0.3,1.6-1.4c0-1.1-0.6-1.5-1.5-1.5c-1.3,0-2.7,0-4,0c-31.3,0-62.7,0-94,0
			c-1.8,0-3.6,0.5-6.7-1.1c35.5,0,69.7,0,103.9,0c0-0.3,0-0.7,0-1c-108.5,0-217,0-325.5,0c0-0.3,0-0.6,0-0.9c2,0,3.9,0,5.9,0
			c105.6,0,211.3,0,316.9-0.1c1.7,0,5,1.8,4.8-2.1c-0.1-3.4-3.1-1.7-4.7-1.7c-21.3-0.1-42.5,0-63.8-0.1c-16.5,0-32.9-0.6-49.4-0.8
			c-32.3-0.3-64.5-1.3-96.8,0.8c-10.3,0.7-20.5-1.5-30.8-1c-9.8,0.5-19.5,1-29.3,1c-32.5-0.1-65,0-97.5,0c-1.9,0-3.8,0-6,0
			c1.4-2.4,3.4-1.9,5.2-2c7.8-0.6,15.5,1.2,23.3,1c11-0.3,21.9-0.8,32.9-0.9c12.4-0.1,24.9-0.3,37.3,0.8c8.6,0.8,17.2-0.7,25.8-0.8
			c54.8-0.3,109.6-0.1,164.5-0.1c28.5,0,57,0,85.5-0.1c1.3,0,3.5,1,3.6-1.1c0.1-1.8-2-1.8-3.5-1.8c-1.2,0-2.3,0-3.5,0
			c-51.2,0-102.3,0-153.5,0c-1.7,0-3.3,0-5,0c0-0.4,0-0.8,0-1.1c8.1,0,16.2,0,24.3,0c0-0.2,0-0.4,0-0.5c-26.4,0-52.9,0-79.3,0
			c0,0.3,0,0.5,0,0.8c11.2,0,22.4,0,33.6,0c0,0.1,0,0.3,0,0.4c-43.2,0-86.5,0-129.7,0c9.6,0.1,19.2-1,28.7-2.1
			c-41.5,1.6-83,0-124.5,1.7c9.5,0,19,0,28.6,0c-12.6,0.9-25.3,0.8-37.9,0.9c-1.3,0-3.6-1.8-3.8,1.2c-0.2,3,2.3,1.7,3.6,1.7
			c8.5,0.1,17.1,0.1,25.9,0.1c-1.1,2.8-3,1.9-4.5,2c-7.3,0.1-14.7,0-22,0.1c-1.4,0-3.1-0.5-3.1,2c0,2.5,1.8,1.9,3.2,1.9
			c3.7,0.1,7.3,0,11,0c9.6,0,19.1,0,28.7,0c-12.5,1-24.9,1.2-37.4,0.9c-3.8-0.1-5.2,1.2-5.2,4.8c76,0,151.8,0,227.6,0
			c-7.5,1.2-14.8,2.1-22.5,1.6c-14.4-1-28.8-0.2-43.3,0.6c-13.1,0.7-26.2-0.3-39.3-0.7c-22-0.6-44.1-0.1-66.1-0.2
			c-9,0-17.9,1-26.8,0.8c-7.9-0.2-15.9-0.5-23.8-0.9c-4.3-0.2-6.5,1.1-6,5.3c0.4,3.6,3.7,1.7,5.6,1.7c7,0.2,14,0.1,21.1,0.1
			c0,0.3,0,0.6,0,0.9c-8.8,0-17.6,0-26.4,0c1.4,1.6-1.7,5.2,2.9,5.2c15.2-0.2,30.4-0.1,45.6-0.1c16,0.1,32,0.2,48.1,0.4
			c6.1,0.1,12.2,1.2,18.1,0.4c9.3-1.3,18.6-0.7,27.8-0.7c44.8,0.3,89.5-1.4,134.3,0.9c7.6,0.4,15.2-0.9,22.8-0.9
			c14.4-0.1,28.8,0.9,43.1,0.4c22.3-0.8,44.6-0.1,66.9-0.4c0.7,0,1.4-0.1,2,0.1c4.5,1.3,8.9,0.1,13.3-0.5c-52.4-3-104.8,0.2-157.1-1
			c-52.6-1.2-105.3,1.2-157.9-0.2c11.2-0.7,22.5-1.2,33.7-1.2c39.1,0,78.2-1.2,117.3,0.6c13.2,0.6,26.5-0.3,39.8-0.5
			c37-0.8,74-0.3,111-0.2c3.4,0,6.8,1.2,10.3,0.9c1.4-0.1,3.2-0.1,3.1-1.6c-0.1-1.5-1.9-1.5-3.3-1.4c-1.2,0-2.3,0-3.5,0
			c-8.2,0-16.4,0-24.6,0c9.3-1,18.6-0.9,27.9-1.1c1.3,0,3.9,1.2,3.8-1.6c-0.1-2.2-2.4-1.3-3.6-1.3c-27.6,0.7-55.2-0.9-82.8-1.2
			c-27.8-0.2-55.5,1.7-83.3,1.1C252.9,261.2,247.8,261.4,242.9,259.3z M84.9,233.8c-0.1,0.5-0.2,1-0.2,1.4c-3.8,0-7.7,0-11.5,0
			c-8.3,0-16.7,0.7-25-0.2c-14.8-1.6-29.6-0.2-44.3-0.8c-1.1,0-2,0.2-1.9,1.6c0.1,1.3,0.5,1.9,2.2,1.9c4.3,0,8.7,0.5,13,0.5
			c26,0.1,52,0.2,78,0c10.4-0.1,20.9,0.9,31.3-0.8c4.6-0.8,9.5-0.7,14.2-0.5c7,0.3,14,1.4,21.2,1.5c6,0,11.9-0.8,17.8-1
			c5.9-0.2,11.8,1.1,17.8,1.1c13,0.1,25.9-0.9,38.8-1.1c14.9-0.2,29.9,0.6,44.8,0.8c47.5,0.5,95,0.2,142.5,0.1
			c1.5,0,4.3,1.3,4.1-1.7c-0.1-2.3-2.7-1.2-4.1-1.2c-14.8-0.1-29.6,0.4-44.3-1.1c-5.4-0.5-10.5,1.2-15.8,1
			c-32.4-0.7-64.9,1.1-97.3-0.9c-7.4-0.5-14.9,0.5-22.3,0.6c-14.9,0.4-29.9,0.7-44.8,1.3c-6.2,0.3-12.2-1.3-18.3-1.1
			c-10.2,0.2-20.3,0.2-30.5,0c-6.8-0.1-13.5,0-20.3-0.6c-5.6-0.5-11.2-1.4-17.1-0.7c-6.4,0.8-13.1,2.5-20.6,0.8
			c5.1-0.8,9.2-1.8,13.5-2.2c-34.2,0-68.4,0-102.6,0c0,0.2,0,0.5,0,0.7c9.1,0,18.2,0,27.4,0c9.2,0,18.3-0.1,27.5,0
			C66.9,233.4,76,232.6,84.9,233.8z M127.9,232.4c10.7,2.2,21.5,2.1,32.3,1c7-0.7,14.2-0.3,21.3,0.4c8.2,0.7,16.5,2.3,24.7,1.3
			c8.2-1,16.4-1.8,24.6-1.8c39.6,0.4,79.2-1.3,118.7,0.9c6.9,0.4,13.8-1.3,20.8-1c15.7,0.6,31.5,0.7,47.3,1.1
			c3.1,0.1,6-0.7,10.3-1.8C327,232.4,227.5,232.4,127.9,232.4z M291.2,239.4c-0.1,0.2-0.1,0.3-0.2,0.5c45.1,0,90.3,0,135.4,0
			c0-0.2,0-0.3,0-0.5C381.4,239.4,336.3,239.4,291.2,239.4z"/>
		<path d="M0.9,142.3c142.6,0,285.3,0,427.9,0c0,14,0,28,0,42c-142.6,0-285.3,0-427.9,0C0.9,170.3,0.9,156.3,0.9,142.3z
			 M162.4,145.7L162.4,145.7c0.1-1.2,0.8-2.6-1.8-2.5c-6.6,0.4-13.2,0.5-19.8,0.9c-18.9,1-37.8-0.4-56.8,1.1
			c-9.6,0.8-19.2-0.4-28.8-0.7c-17-0.6-34-0.2-51-0.1c-0.9,0-2.1-0.3-2.1,2c21.4,0,42.9,0,64.4,0c0,0.5,0,1,0,1.5
			c-21.5,0-42.9,0-64.4,0c1.7,1.9,3.6,1.4,5.4,1.4c36.8,0,73.6-0.4,110.4,0.2c14.3,0.3,28.5,0.8,42.8,0.6l-0.1-0.1
			c1.8,2.4,4.4,1.6,6.4,1.1c7.7-1.7,15.1-2.7,23.2-2.1c16.9,1.2,33.8,0.3,50.8,1.1c24.1,1.2,48.2-0.8,72.3,1.1
			c13.4,1,26.9-0.9,40.2,1.1c0.4,0.1,1.3,0.5,1.5-0.6c-0.7-0.3-1.4-0.5-2.1-0.7c14,0.9,28,0.4,42.4,0.3c-1.3-1.5-2.9-0.3-3.7-1.9
			c1.4,0,2.8-0.2,4,0c9.9,2.1,19.9,0.4,29.8,0.9c0.9,0,2.3,0.4,2.2-1.1c0-1-0.9-1.7-2.1-1.8c-1.2-0.1-2.3-0.1-3.5-0.1
			c-8.8,0-17.7,0-26.5,0c-5.2,0-10.3,0-15.5,0c0-0.5,0-1,0-1.5c15.8,0,31.7,0,48.4,0c-1-1-1.1-1.1-1.3-1.2
			c-15.5-1.4-31.2-0.5-46.7-0.8c-10.9-0.1-21.9-0.3-32.9,0c-38.1,1-76.2,0.8-114.3-0.6c-3.7-0.1-7.2-0.2-9.7,3.2
			c-1,1.3-2.5,0.9-3.7,0.3c0.1-2.2,3-1.4,2.9-2.9c-7.7,0.5-15.4-1-23.5,1c5.4,2.8,10.5,0.9,15.7,0.8c-3.9,2-8.2,2.6-12.3,1.8
			c-9-1.7-17.4-5.3-27-4.5C171.1,143.5,166.7,144.4,162.4,145.7z M298.1,156.3c0-0.3,0-0.7,0.1-1c0.8,0,1.6,0,2.4,0
			c31.5,0,63,0,94.5,0c1.5,0,3,0.5,4.3,0.6c8.4,0.3,16.8,0.3,25.3,0.4c1.5,0,3-0.3,2.9-1.9c-0.1-1.7-1.8-1-2.8-1
			c-8.9-0.3-17.9-0.5-26.8-0.8c-14.6-0.4-29.2-1.3-43.8,0.7c-3.4,0.5-7,0.3-10.5-0.1c-11.9-1.4-23.7-1.3-35.6,0
			c-5.9,0.6-11.9,1.5-17.8,0.9c-7.5-0.7-15-2-22.6-1.7c-8.3,0.3-16.5,1.5-24.8,0.9c-12.4-0.9-24.7-1.9-37.1,0
			c-1.2,0.2-2.6-0.4-3.9-0.4c-8.2-0.3-16.5-2.2-24.7-1.3c-6.9,0.7-13.7,1.8-20.6,1.8c-8.9,0-17.9-0.6-26.8-0.7
			c-41.2-0.6-82.3-0.2-123.5-0.2c-1.6,0-4.1-0.3-4,1.8c0.1,2.4,2.7,1.2,4,1.2c19.5-0.6,39.1,0.5,58.6,0.2c36-0.5,72-0.1,108.1-0.2
			c18.4,0,36.9,0,55.3-0.9c13.4-0.6,26.8,1.5,40.3,0.9c7.1-0.3,14.1-0.1,21.2-0.1c-1.6,1-3.3,0.9-4.9,1c-23.9,0.8-47.7-1.4-71.6-0.1
			c-11.9,0.7-23.8,1.4-35.8,1.1c-11.8-0.3-23.6-0.8-35.3-0.8c-25.9-0.1-51.9-1.1-77.8,0.6c-9.2,0.6-18.5,0.4-27.8-0.6
			c-9.2-1-18.6-0.3-28-0.1c-2.3,0-6.5-1.6-6.3,2.4c0.2,3.1,4.1,1.4,6.2,1.4c42.2,0.1,84.4,0.1,126.6,0.1c5.2,0,7.4,0.4,9.6,2
			c-47.8,0.2-95-2.3-142.2,0.2c28.1,1.1,56.3-1.3,84.3,1.6c-1.6,0.2-3.2,0.1-4.9,0.2c-15,0.7-30-1.1-45.1-0.1
			c-8.1,0.5-16.3,0-24.5,0.1c-3.1,0-6.8-1.2-9.2,0.7c-1.8,1.4-0.5,4.8-0.8,7.4c-0.1,0.5-0.3,0.9-0.4,1.4c-0.5,3.2,0.2,4.7,4.1,4.6
			c18-0.2,36-0.1,54-0.1c1.6,0,3.3-0.5,5.7,1c-7.9,0-14.8,0-21.8,0c-7.2,0-14.3-0.1-21.5,0c-6.7,0.1-13.4-0.5-20,1.2
			c1.9,0.8,3.7,0.8,5.5,0.8c22.6-0.1,45.2,0.2,67.8-0.9c8.6-0.4,17.1,1.3,25.9,1.1c35.6-0.9,71.2-0.4,106.8-0.9
			c68.1-0.9,136.3-0.3,204.5-0.2c3.4,0,6.9-0.5,10.3,0.8c1.2,0.5,3.4,1,4-1.6c-115.8,0-231.6,0-347.3,0c0-0.4,0-0.8,0-1.2
			c2,0,3.9,0,5.9,0c111.5,0,223,0,334.5,0c1.5,0,3,0,4.5,0c2.4,0,3-1.4,3.1-3.6c0.1-2.7-1.6-2.4-3.3-2.4c-2.9,0-5.8,0-8.6,0
			c3-1,5.9-1,8.9-1c0.9,0,2.5,0.4,2.6-0.6c0.2-2.6,0.2-5.3-0.5-7.8c-0.4-1.3-2.7-0.5-4.1-0.6c-7.9-0.1-15.8,0-23.8,0
			c8.3-1,16.6-1,24.9-1c1.8,0,3.6-0.1,3.6-2.4c0-2.6-2.2-1.6-3.4-1.6c-20.1,0.6-40.2-1.1-60.3-1.1c-11.2,0-22.4,0-33.6,0
			C319.7,156.3,308.9,156.3,298.1,156.3z M311.1,181.5c0,0.1,0,0.2,0,0.4c32.5,0,64.9,0,97.4,0c0-0.1,0-0.2,0-0.4
			C376,181.5,343.5,181.5,311.1,181.5z M205.2,181.4c-0.1,0.2-0.1,0.3-0.2,0.5c15.5,0,31,0,46.5,0c0-0.2,0-0.3,0-0.5
			C236.1,181.4,220.7,181.4,205.2,181.4z M6.2,150.5c0,0.2-0.1,0.3-0.1,0.5c11.9,0,23.7,0,35.6,0c0-0.2,0-0.3,0-0.5
			C29.9,150.5,18.1,150.5,6.2,150.5z"/>
		<path d="M273.9,1.3c2.1,10.7,0.5,21.5,1,32.2c0,1.1-0.4,1.9-1.4,2.5c-3,1.7-14.8-0.1-17.2-2.8c-4.2-4.9-8.9-7.6-15.6-4.9
			c-3.3,1.3-5.1,3.8-7,6.6c-2.2,3.4-3.5,7.3-3.6,11c-0.2,5-2.2,5.9-6.4,5.5c-7-0.7-13.8,1.3-20.8,1.1c-3.8-0.1-5.7-1.4-6.6-5
			c-0.9-3.9-1.7-7.9-3.7-11.6c-3.6-6.8-10.2-9.3-17.8-8.2c-11.9,1.7-22.3,6.7-33.4,13.5c1.6-6.7,4.4-11.4,7.9-15.8
			c13.1-16.5,30.6-23.3,51.2-22.9c8.6,0.2,17.2-0.7,25.8,0.8c3.6,0.7,6.5,1.9,9.1,4.3c5.8,5.5,11.1,5.5,16.6,0c2-2,3.8-4.1,5.7-6.2
			C263.2,1.3,268.5,1.3,273.9,1.3z M225,8.4c-12.5-2.7-25-4.5-37.4-2c-12.9,2.5-23.9,8-30.9,18.9c6.2-5.3,13.1-9.3,20.8-12.1
			c11.7-4.3,23.9-3.9,36-3.9C217.3,9.2,221.2,8.7,225,8.4z M201.7,45.1c0.1-14.7-8.4-25.1-19.6-22.9
			C190.8,27.2,190.8,27.2,201.7,45.1z M268,6.5c-4.5-2.1-8.4-2.7-11.6,1.7c-2.5,3.4-5.8,5.9-9.7,8.8c4.6,0.8,7.7-1.1,10.3-3.5
			C260.3,10.6,262.3,6,268,6.5z M246.2,21.8c4.5,2.6,8.7,5.1,13.4,7.8C257.9,22.4,253.8,20.1,246.2,21.8z"/>
		<path d="M0.9,228.2c0-14,0-28,0-42c142.6,0,285.3,0,427.9,0c0,14,0,28,0,42C286.2,228.2,143.6,228.2,0.9,228.2z M84.6,205.2
			c0,0.3,0,0.7,0,1c-2.6,0-5.3,0-7.9,0c-23.5,0-47,0.1-70.5-0.1c-3.5,0-4.6,0.9-4.4,4.4c0.2,3.9,2.8,2.6,4.6,2.6
			c42.7,0.1,85.3,0,128,0c1.8,0,3.6,0,5.4,0c0,0.3,0,0.7,0,1c-6.6,0-13.2,0-19.7,0c-6.5,0-13,0-19.5,0c-6.7,0-13.3,0.3-20-0.1
			c-6.7-0.4-13.3,2.1-19.8,0.8c-6.7-1.3-13.2-0.4-19.8-0.7c-6.5-0.3-13-0.3-19.5,0c-6.3,0.3-12.8-1.2-18.9,2c6.1,0,12.2,0,18.3,0
			c-4.8,0.9-9.6,0.7-14.4,1c-1.4,0.1-3.7-1.6-4.3,1.8c-0.6,3.6,0.7,4.5,4.1,4.2c-1.2,1.7-3.6-0.1-4.2,2c0.8,1.3,1.9,0.8,2.8,0.8
			c24.9,0,49.7,0,74.6,0c1.2,0,2.7,0.7,3.5-1c0.5-1,1.2-1,1.8-0.2c1.8,2.3,3.6,1.1,5.7,0.5c3.1-0.9,6-2.8,10.7-2.3
			c-4.1-1.6-6.9-2-10.5-2.1c2.9-2.4,5.4-3.2,9.2-2.5c-1.6,0.5-2.5,0.8-4.2,1.4c5.7,1.5,10.3,3.3,14.9,5.3c4.1,1.8,8.4,1.4,12.4,0.2
			c4.9-1.5,9.8-2.2,15-2.2c31.8,0.1,63.7,0,95.5,0c2,0,4-0.4,5.9-0.5c6.4-0.4,12.8-0.2,19.2-0.2c-7.8,0.4-15.4,1.9-23.2,1.8
			c-31.3-0.2-62.7-0.1-94,0c-4.4,0-8.9,0.8-13.4,1.3c100,0,199.8,0,299.6,0c0-0.4,0-0.8,0-1.2c-23.2,0-46.4,0-70.8,0
			c2.8-1.6,4.6-1.1,6.4-1.1c20.3,0,40.7,0,61-0.1c1.5,0,4,1.1,3.5-2.4c-0.3-2.3-0.3-3.8-3.6-3.7c-9,0.4-18,0.1-27,0.1
			c-5.4,0-10.8,0-16.1,0c7.8-0.2,15.4-1.9,23.2-2.2c7.7-0.3,15.4,2.3,23.1,0.8c0-0.5,0-1,0-1.5c-21.7,0-43.4,0-65.2,0
			c0-0.4,0-0.8,0-1.2c1.6,0,3.3,0,4.9,0c19,0,38,0,57,0c2,0,4,0.5,3.9-2.8c-0.1-2.9-0.9-4.4-4-4.2c-3.6,0.2-7.2,0-10.7,0
			c4.2-1,8.3-1,12.5-1c1.3,0,2.2-0.3,2.2-1.9c0-1.6-0.7-2.1-2.1-2c-1.3,0-2.7,0-4,0c-9.6,0-19.2,0-28.8,0c0-0.4,0-0.9,0-1.3
			c11.6,0,23.1,0,34.7,0c0-0.5,0-1,0-1.5c-9.6,0-19.3-0.7-28.9,0.4c-6.4,0.7-12.9,1.7-19.2,1.3c-8.7-0.7-17.4-1.8-26.1-1.7
			c-82.6,0.5-165.2-1.4-247.8,1c-7.7,0.2-15.2-1.1-22.8-1.1c-14.5,0-29,0-43.5,0c-4.1,0-8.2,0-13.5,0c2.8-1.4,4.7-1,6.5-1
			c30.8,0,61.7,0,92.5,0c62.2,0,124.4,0,186.6,0c23.6,0,47.2,0.3,70.8,0.7c12.2,0.2,24.5-0.7,36.8-0.7c2,0,4,0.1,6,0
			c1-0.1,2.4,0.6,2.8-1.9c-23.3,0-46.4,0-69.6,0c0-0.3,0-0.7,0-1c1.6,0,3.3,0,4.9,0c20.2,0,40.3-0.1,60.5,0.1c3.4,0,4.4-0.7,3.9-4.2
			c-0.5-3.5-3-1.8-4.3-1.8c-47.5-0.1-95-0.1-142.5-0.1c-1.7,0-3.5,0.3-5-0.2c-5.6-1.8-11.3,1.8-17.1-0.5c-1.6-0.6-4.5,0.4-7-0.2
			c-2.2-0.5-5.2-1.2-7.1,0.4c-1.9,1.6-4.5,3.4-5.3,2c-1.5-2.5-4.6-0.2-6-2.6c-0.3-0.5-1.3,0.3-1.7,1.3c-0.2,0.6-0.9,1.8-1.6,0.9
			c-3.6-5.2-8.8-0.8-13.1-1.6c-2.8-0.5-7.4,0-11.2,0.6c-4.1,0.7-8.5-0.7-12.8-1.2c-5.8-0.7-11.5,1.1-17.3,1.1
			c-25.8-0.2-51.7-0.1-77.5-0.1c-1.7,0-3.6-0.4-4.9,0.4c-5,2.8-10.2,1.2-15.4,0.8c2.3-0.1,4.5-0.2,6.8-0.4
			c-26.2-0.8-52.3-0.7-78.5-1c-3.9,0-4.1,2.2-4.2,4.4c-0.1,3,2.7,1.5,4.2,1.7c1.8,0.3,3.6,0.1,5.5,0.1c-2.5,1-5,1.1-7.4,1
			c-2.1-0.1-2.3,0.5-2,2.6c0.3,2.1,0.6,2.3,2.6,2c9.6-1.3,19.3-0.7,28.8,1.2c-9.3-0.3-18.7-1.8-28,0.2c-1.5,0.3-4.1-1-3.9,2.2
			c0.2,2.8,2.4,1.7,3.8,1.7c16,0.1,32,0.1,48,0.1C64,205.2,74.3,205.2,84.6,205.2z"/>
		<path d="M224.9,329.2c-4,2.9-5,7.2-3.9,11.4c3.6,14.8,4.2,29.8,5,44.9c0.3,5.3,0.4,10.6,0.9,15.8c0.7,6.4-0.9,11.2-7.1,13.9
			c-4,0-8,0-12,0c-4.4-2.9-6.2-6.8-6.1-12.3c0.2-16.9,1.3-33.8,3.3-50.6c0.7-5.6,0.9-11.4,3.1-16.7c0.6-1.5-0.3-2.5-0.9-3.5
			c-1.4-2.2-3-4.3-3.3-7c0,0-0.1,0.1-0.1,0.1c3.1-0.1,2.8,2.8,3.8,4.4c3.8,6.4,9.7,6.7,13.9,0.5c1.3-1.9,2.1-4.1,3.5-5.8
			c1.9-2.2,2.2-5.8,5.4-6.8c-1.1,4.4-4.7,7.4-5.6,11.8L224.9,329.2z M219.9,392.4c0-3.9-1.8-5.2-5.3-5.3c-3.7,0-4.6,2.4-4.6,5.1
			c0,2.7,1.2,5.1,4.8,5C218.3,397.2,220,395.7,219.9,392.4z M214.5,342.5c1.9-1.2,5.5,1.7,5.4-3c-0.1-3.6-2.5-3.3-4.9-3.2
			c-2.7,0.1-6.1-0.6-6.1,3.6C208.9,344.5,212.8,341,214.5,342.5z"/>
		<path d="M184.8,325.3c-8.7,7.3-19.4,11.3-28.7,17.8c-4.7,3.3-8.9,7-14.8,9.1c-3.7,1.3-7.5,6.4-10,10.5
			C126,371.4,116.8,376,110,383c-2.5,2.5-4.8,5.8-9.9,7.8c4.5-6.7,6.7-13.3,12.3-17.7c1.2-0.9,2.2-2.1,3.3-3.1
			c2.8-2.6,0.5-4.3-1.3-5.6c-2-1.4-4-0.1-4.4,1.9c-1.7,7.3-8.6,10.6-12.2,16.5c-0.7,1.1-1.7,2.5-3.9,2.4c1.6-5.1,4.9-9.1,6.8-13.6
			c5.1-11.7,11.8-22.3,19.7-32.2c1.9-2.4-0.1-4.7,0.8-6.8c1.3-3.3,2.5-6.7,4-10c0.5-1.1,0.8-1.8-0.2-2.5c-1.5-1-1.2,0.9-1.9,1.3
			c-10.5,6.2-19.8,14.1-29.8,21.1c-3.4,2.4-6.7,5-10.4,6.9c-1.7,0.9-2.7,1.1-4.1-0.8C69,334.9,59,321.3,48.9,307.9
			c-2.2-2.9-1.7-4.5,1.2-6.5c12-8.4,23.9-17.1,35.9-25.7c1-0.7,2.4-1.4,3.6-1.4c5.4-0.1,10.8-0.1,17.7-0.1
			c-18.6,13.3-36,25.7-53.4,38.1c0.2,0.3,0.5,0.7,0.7,1c7.2-5.1,14.5-10.1,21.7-15.3c10.2-7.3,20.5-14.6,30.6-22c2-1.5,4-2,6.4-1.9
			c5.8,0.1,11.7,0,17.5,0c-1.1,5.5-1.3,5.6-17.9,6.2c5.8,4.3,10.8,8.2,16,11.8c2.2,1.5,2.8,2.8,2.1,5.5c-1,3.7-2.3,7.5-1.5,11.6
			c1.1-3.9,2.5-7.7,3.2-11.7c0.4-2.5,1.4-3.6,3.9-3.3c3.7,0.3,7.1-0.4,11.3-2.4c-4.1,8.6-7.8,16.4-9.4,25c-1,5.4-3.2,10.4-5.3,15.5
			c-1.6,3.8-3.7,7.5-5.5,11.3c-0.7,1.5-0.9,2.9,0.5,3.2c1.5,0.3,2.4,3.6,4.4,1.1c9.4-11.4,23-16.9,35-24.6
			c5.9-3.8,11.4-8.3,15.6-13.7c3.9-4.9,6.3-2.8,9.6-0.5c2,4.1,3,8.2-1.1,11.6C189.6,322.5,187.6,324.5,184.8,325.3z M78,315.4
			c-0.3-2.4-1.5-4.1-4.6-4.2c-3.2-0.1-4.1,2.2-4.3,4.3c-0.2,2.8,1.8,4.5,4.6,4.6C76.5,320.3,77.7,318.5,78,315.4z"/>
		<path d="M184.8,325.3c2.8-0.8,4.8-2.8,7-4.5c4.2-3.4,3.1-7.5,1.1-11.6c-2.1-4.3-7.5-5.9-11.1-3.2c-1.3,1-2.5,2.2-3.7,3.3
			c-9.6,8.9-19.5,4.2-30.1,0.7c3.3-1,5.8-1.8,8.4-2.5c5.4-1.5,5.7-5.7,5.6-10.1c-0.1-4.6-4-6.4-7.2-7.8c-2.8-1.3-6.3,0.8-8.8,2.1
			c-8.2,3.9-14.5,0.1-21-3.9c-2.2-1.4-4-3.2-6.8-5.4c3.4,0,6-0.1,8.5,0c3.1,0.2,6.1,0.3,7.1-3.6c0.5-1.8,2-1.4,3.2-1.4
			c5.3,0,10.7,0.1,16-0.1c1.9,0,3.7,0.5,5,1.7c12,10.5,26.3,16.3,41.7,19.1c17.7,3.2,34.9,0.8,51.4-6.3c7.7-3.3,14.7-7.7,21.3-12.7
			c1.8-1.3,3.4-1.8,5.4-1.8c8.5,0,17,0,25.5,0c5,0,6,1.5,3.8,6.3c-1.6,3.5-3.7,6.9-5.6,10.3c-0.7,1.2-0.7,2.8-2.2,3.5
			c-1.6-13.7-1.6-13.8-8.4-14.8c3.7,2,6.9,3.8,7,8c0,1.3,0.2,3.3-1.8,2.6c-5.4-2-11.1-3.6-15.2-8.2c-1.9,6.6-1.7,15.1,5.1,20.1
			c2.6,1.9,3.3-2,5.1-0.7c2.6,1.9-3.2,3.2-0.3,5.2c3,2.2,4.5,7.9,9.8,3.7c1,2-3,3.2-0.1,4.9c3.4,2,4.4,8.5,10.2,5.4
			c0.9,1.8-2.9,2.6-0.5,4.4c2.9,2.2,4.4,7.1,9.4,4.4c0.9,1.9-3.2,3.5,0.1,5.1c2.7,1.3,3.4,7.1,8.2,3.4c1.1-0.8,1.8,0.8,1.7,0.8
			c-3.8,4.2,1.8,4.9,2.6,7.3c1.5,4.3,4.6-1.4,5.8,1c0.8,1.7-2,3.9,1,6c3.1,2.1,4.8,6.7,9.5,3.2c0.9,2.4-3,3.2-0.8,5.3
			c0.8,0.8,1.5,2,2.8,1.7c2.3-0.4,3.5-2.5,4.8-4.1c1.5-1.8-0.7-2.6-1.6-3.5c-12.9-12.6-25.7-25.3-38.7-37.8
			c-8.9-8.6-17.8-17.1-29.9-21c-0.8-0.2-1.6-0.6-2.1-1.2c-2.1-1.9-1.2-4.8,1.9-6c-0.6,2.2-2.3,5.1,1.3,5.5c2.7,0.3,5.5,5.7,8.3,0.1
			c0.2-0.4,1.2-0.9,1.6-0.8c1.2,0.5,0.9,1.6,0.5,2.5c-2.3,4.4,2.3,4.1,4,5c1.8,1,4.3,3.9,6.4,0.1c0.4-0.7,0.8-2,2.1-1
			c1,0.8,1,1.6,0.1,2.5c-0.8,0.7-1.4,1.6-0.1,2.3c2.1,1.2,4.3,2.3,6.6,3.3c2.6,1.1,2.4-3.4,4.5-2.6c2.6,0.9-1.6,3.2,0.8,4.9
			c4.2,2.9,7.2,3.2,10.7,0c0.1-0.1,0.6,0.2,1.1,0.4c-0.5,1.9-2,4,0.8,5.4c1.9,0.9,3.7,2.2,5.7,2.8c2.6,0.8,1.4-3.9,4.6-3.4
			c-3.2,5.4,1.7,5.8,4.4,7.6c0.1,0.1,0.3,0,0.5,0.1c2.1,1.2,4.3,2.8,5.6-1c0.1-0.4,1.1-0.9,1.6-0.8c1.1,0.2,1,1.5,0.6,2
			c-2.4,3.7,0.8,4,2.9,5c2.6,1.3,5.4,2.2,8,3.7c3.4,2,3.6-0.8,4.6-2.6c1-2,2.9-3.7-0.8-5.2c-8.1-3.5-16-7.3-24-11
			c-14.1-6.5-28.1-13-42.2-19.5c-1.9-0.9-3.4-2-3.7-4.2c1.1,0.8,2.1-1.1,3.2-0.1c9.2,8.1,21.2,10.7,31.6,16.3c3.5,1.9,7,4.1,12,4.9
			c-3.3-5.7-6.4-10.9-9.4-16.1c-4.2-7.2-8.4-14.4-12.5-21.6c-0.4-0.8-1.7-1.9-0.4-2.7c1.4-0.8,1.7,0.8,2.4,1.7
			c1.5,2.1,1.9,6.5,6.3,3.3c0.2-0.1,1,0.3,1.1,0.6c0.1,0.6,0.1,1.7-0.2,1.8c-3.7,1.5-2.5,3.8-0.7,5.6c1.6,1.6,1.4,6.7,5.9,3.5
			c0.8-0.5,1.2-0.2,1.6,0.3c0.7,0.8-0.1,1.4-0.5,1.6c-3.2,1.5-2.2,3.7-0.8,5.7c1.6,2.3,2.6,6,6.8,3.8c0.2-0.1,0.6,0.2,1.3,0.6
			c-5.3,3.4-1.4,6.1,0.2,9.4c2,4.1,3.5-0.5,5.6,1.1c-0.3-0.6,0-0.2-0.1-0.1c-3.5,5,0.8,5.9,3.9,7.3c1.8,0.8,3.8,1.4,6,2.1
			c-9.2-15.9-18.5-31.9-28.4-48.9c5.3,2.2,6.1,6.4,7.9,9.5c7.8,13,15.2,26.3,22.8,39.4c0.7,1.3,1.9,2.3,3.1,3.2
			c2,1.6,5.8,1.4,5.3,5.3c-0.6,5.7-3.9,9.4-9.4,11c-1.7,0.5-2.6-0.6-3.3-2.2c-2.1-4.6-6-7-10.6-8.8c-5-1.9-9.7-4.6-15-7.1
			c5.1,5.4,9.6,10.6,14.7,15.1c3,2.7,5.7,5.6,8.6,8.2c0.6,0.5,1.3,1,0.9,2c-2.5,6.2-2.1,13.6-8.2,18.3c-2.1,1.7-3.4,2-5.4,0
			c-7.3-7.6-15.1-14.7-22.8-21.9c-14-13.2-27.7-26.8-41.4-40.4c-2.3-2.2-3-2.7-4.3,0.9c-1.6,4.6-6.6,6.8-9.2,10.8l0.1-0.1
			c-1.7,0.9-2.8,2.7-5,2.9c0.3-5.8,7.4-12.7-2.7-16.8l0.2,0.2c-1.8-3-4.6-3.2-7.6-2.5c-3.2,0.8-4.9,2.6-5.3,6c-0.3,2.5-1.2,5-2,7.5
			c-2,6.2-15.7,16.5-22.2,16.6c-0.9,0-0.6-1-0.7-1.6c0,0-0.1,0.1-0.1,0.1c4-3.3,8.1-7,6.6-12.6c-1-3.6-3.2-7.8-7.6-8.2
			c-4-0.4-7.4,1.3-9.6,5.6c-2.3,4.5-5.6,8.7-10.4,11.2c0,0,0.1-0.1,0.1-0.1c-5.7,0.5-11.4,0.9-17.1,1.7
			C184.9,327.2,185,326.4,184.8,325.3z"/>
		<path d="M270,317c2.2,2.3,1.7-1.6,3.3-1c0.8,2.8,1.6,6,2.5,9.2c1,3.8,2.2,7.4,7.2,7c2.5-0.2,2.9,2,3.6,3.5
			c8.4,19.7,16.8,39.5,25.2,59.2c2.3,5.5,2.4,5.4-3.3,6.6c0.5-1.6,2.8-1.2,3.1-2.8c-2.3-3.8-5-4.4-8.4-1.3c-1.2,1.1-3,1.4-4.2,2.4
			c-1,0.8-3,1.6-1.3,3.5c1.2,1.4,2.5,2.8,4.6,1.1c1.9-1.6,4-2.8,6.5-3.1c-1.8,3.6-5.6,4.7-8.8,5.5c-2.6,0.7-4-2.9-5-5.1
			c-5.4-11.8-10.7-23.7-15.9-35.6c-3-6.8-5.9-13.7-8.9-20.6c-0.9-2.1-1.9-4.3-0.6-6.6c2.4-4.2,1-7.7-1.6-11.2c-1.2-1.6-3.1-3-2.5-6
			c2.1,3.1,4,5.7,5.5,8.5c1.3,2.4,3,1,4.1,0.6c2-0.6,0.1-1.9-0.1-2.7c-1.2-3.9-5.4-6.7-4.7-11.4C270.2,316.9,270,317,270,317z
			 M274.4,332.5c-1,0.6-2,1.4-2.5,2.9c-1.1,3.7-0.3,7.1,1.3,10.7c7,15.6,13.9,31.2,20.6,46.9c2.9,6.9,2.8,7.1,9.1,2.6
			c1.4-1,3.9-1.4,2.4-4.8c-8.3-17.7-16.4-35.5-24.2-53.3C279.7,334.3,277.1,334.1,274.4,332.5z"/>
		<path d="M194.8,328.2c-3.5,12.2-6.5,23.7-10.1,34.9c-2.6,8.3-8.8,14.7-13,22.3c-0.4,0.8-1.1,0.7-1.7,0.7c-1.1-0.1-1.2-1-1.2-1.8
			c0.3-7.9-1-15.9,1.3-23.7c2.3-7.8,4.7-15.6,7.2-23.3c2.3-7.2,5.2-9.2,12.7-9.1C191.6,328.2,193,328.2,194.8,328.2z M170.1,378
			c1.7-2.2,4.4,1.7,5.8-1.7c0.9-2.2,3.4-3.6,3.3-6.1c0-2.6-1.2-4.3-4.3-4C169.8,366.7,169.5,367.2,170.1,378z"/>
		<path d="M260.9,385.8c0.8,3.8-2.9,3.7-5.4,4.3c-2.4,0.6-4.2,0-4.9-3.2c-2.7-12.9-5.5-25.8-8.9-38.5c-1.8-6.6-0.8-13.4-2.7-19.9
			c-1-3.5,3.1-3.8,5.2-4.8c2.5-1.2,1.8,1.9,2.1,2.7c6.9,18.4,9.3,37.9,14.4,56.7C260.9,383.8,260.9,384.5,260.9,385.8z M249.9,365.3
			c-2.2-0.2-2.2,1.2-2,2.3c0.9,4.6,2.1,9.2,2.9,13.8c0.3,1.6,1.1,1.8,2.4,1.7c1.7,0,1.8-1.2,1.5-2.4c-0.9-4.3-2-8.5-2.8-12.8
			C251.6,366.5,251.1,365.5,249.9,365.3z"/>
		<path d="M254.9,277.7c-26.8,13.8-52.6,13.8-78.4,0C202.3,277.7,228,277.7,254.9,277.7z"/>
		<path d="M262.5,302.9c2.3,2.2,2.4,3.8-1,5.1c-1.7,0.6-3.8,1-4.9,3.8c3.3-1.1,5.5-3.8,9-3.5c-1,2.1-2.9,2.2-4.3,3
			c-1.2,0.8-3.4,1.2-2.1,3.5c1.1,1.9,2.4,0.9,3.7,0.3c0.5-0.2,1.1-0.4,2.2-0.8c-1,2.3-0.2,4.9-2.7,5.7c-3,0.9-3.1-2.2-4-3.8
			c-2-3.7-3.8-7.4-5.6-11.2c-0.2-0.4-1.1-1-0.4-1.6c0.3-0.3,1.3-0.4,1.4-0.2c3.1,5.1,5.9-0.2,8.8-0.3
			C262.7,303.1,262.5,302.9,262.5,302.9z"/>
		<path d="M211.9,89.2c4.9-0.2,9.2-3.1,14.2-3.6c-1,6.7,0.1,13.5-0.5,20.4c-0.2,2.3,2.6,1.2,4.1-0.1c3.4-2.9,5.2-7.6,9.4-9.2
			c7.2-2.9,8.4-10.8,13.3-15.1c8.9-7.7,12.7-18.2,17.1-28.1c4-9,10.4-8.7,17.5-9.2c2.1-0.2,4.3,0,6.8,0c-1.3,4.8-4,8.5-6,12.5
			c-5.4,10.5-10.6,21.1-16,31.5c-1,2-1.3,3.6,0.7,5.2c1.8,1.4,2.1,3.2,0,4.5c-6,3.6-8.7,9.6-11.5,15.5c-0.8,1.6-1.1,2.1-2.7,1.5
			c-8.3-3.7,1.3-7.7-0.2-11.4c-2.2,0-4.5,0-6.9,0c1.1,1.9,0.3,3.9,0.9,5.5c1.1,2.9,1,7.5,6.4,5.9c0.4,2.7,2.2,2.1,3.8,1.4
			c2.8-1.3,5.7-2.5,8.3-4.2c5-3.3,9.9-3.2,15.3-0.9c3.9,1.6,7.5,3.7,12.3,5.8c-4.1,0.6-7,1.3-10,1.4c-4.1,0.1-5.9,3.5-6.1,11.1
			c-0.1,4.2,2.6,6.8,6.8,6.8c3.9,0,7.9-0.6,11.7-1.2c4.1-0.7,7.6,0.3,11.4,4.3c-6.5,0-12.5-0.6-18.2,0.1c-12.7,1.7-23-2.5-33.2-9.7
			c-12-8.4-26.1-11.6-40.7-12.4c-16.6-0.9-32.2,2.5-47,10.1c-5.4,2.8-10.5,6-15.2,9.8c-5,4.1-10.5,1.2-15.7,2
			c-0.7,0.1-0.8-0.8-1-1.4c-4.9-9.8-3.7-18.2,3.7-26.6c1.8-2.1,3.1-4.7,5.8-6.4c1.7,3.1-0.9,5.9-0.5,8.9c0.5,3.6,5.8,8.8,9.7,8.7
			c3.7-0.1,8.3-4.3,8.4-7.9c0.1-10.9,5.1-18.5,15-23c2-0.9,4-2.1,6-3.1c-0.6,2.6-1.1,5.2-3.1,7.2c-3,4.9-2.6,7,2.2,11l-0.2-0.1
			c6.6,4.9,11.3,3.5,14.1-4.1c0.6-1.6,2.1-2.9,1.8-4.9C206.5,94.6,209.2,91.9,211.9,89.2z M272.4,53.1c14.1,0.7,16.3-0.1,18.1-6.4
			C274.1,45.8,275.3,45.3,272.4,53.1z M266.7,86.4c-5.2-0.4-10.5-1.4-12.5,5.2c-0.7,2.5-3.2,0.8-4.4,2.2c4.5,1.6,9.4-1.4,13.6,1.7
			c0.1,0.1,1-0.6,1-0.7C263.1,91.7,266.6,89.8,266.7,86.4z M271.7,54.3c0,7.9,5.2,5.8,9.3,6c2.8,0.2,4.1-1.3,5.2-3.6
			c0.8-1.7,0.8-2.4-1.2-2.4C280.3,54.3,275.8,54.3,271.7,54.3z M267.9,69.1c6.1,0.4,6.2,0.4,10.3-4.6c1.1-1.4,2.2-0.8,3.4-0.7
			c0.4,0,1.1-0.8,1.1-1.4c0.2-1.1-0.6-0.7-1.2-0.5C276.4,63.2,268.9,59.4,267.9,69.1z M258.3,85.1c10.1,0.6,10.1,0.6,11.9-5.6
			C261.8,78.9,261.8,78.9,258.3,85.1z M274.3,71.4c-5-0.2-10.1-1.6-10.7,5.5C272.1,77.9,272.1,77.9,274.3,71.4z M261.5,96.2
			c-3.6,1.3-6.7,2.8-9.4,5.8C260,102.5,260,102.5,261.5,96.2z"/>
		<path d="M335.3,140.6c-6.9,0-13.4,0-19.8,0c0-0.4,0-0.7,0-1.1c5.1,0,10.2,0,16.1,0c-3.5-6.7-7.9-11.8-12-17.1
			c-1-1.3-1.7-0.7-2.7,0.1c-4.3,3.2-8.9,6.1-13.2,9.3c-1.5,1.1-2.8,1.6-4.8,0.8c5.7-4.1,11.3-7.9,16.8-12c3.9-2.9-1-4.2-1.5-6.4
			c-0.3-1.3-1.7-3-4.2-1.1c-7.7,6.1-15.7,11.8-23.5,17.7c-0.9,0.7-1.7,1.9-2.9,0.5c-1.5-1.9,1.1-1.6,1.5-2
			c7.1-5.5,14.3-10.9,21.5-16.3c1.9-1.4,4.3-2.4,3.2-5.6c-0.2-0.4,0.3-1.5,0.8-1.7c5.2-2,5.5-7.4,8-11.3c2-3.2,4.1-5.3,8.4-5.7
			c5.7-0.4,9.5-5.3,13.9-8.5c10.6-8,19-18.3,28.5-27.4c4.9-4.7,10.1-8.7,17.1-10c5.5-1,11.6,0.8,14.7,5.1c2.9,4,2.9,11.5-0.1,16.2
			c-4,6.3-9.8,10.5-16.1,14.2c-12.5,7.3-26,13.1-37.1,22.7c-2.9,2.5-6,4.5-7.1,8.6c-1.1,4.2-5.6,4-8.7,5.3c-2.6,1.1-5.5,1.7-8.2,2.8
			c-4.4,1.7-2.5,3.6-1,5.6C327.2,129.1,331.7,134.6,335.3,140.6z M324.8,113.3c-1.2-2.5-2.6-4.9-4.5-7.2c-2.5-3.1-4.4-1.9-6.6-0.1
			c-2.9,2.3-0.5,3.8,0.9,5.5c1.2,1.5,2.3,3.2,3.6,4.5c0.7,0.7,0.7,3.4,2.5,1.7C322.1,116.4,325.1,116.4,324.8,113.3z M369.6,55.6
			c7.8,5.3,11.4,13.6,15.7,21.5C383,67.6,378.2,60.1,369.6,55.6z M380.1,79.9c-0.6-8.1-5.5-15.2-14.4-20.8
			C371.9,65.1,377.3,71.6,380.1,79.9z"/>
		<path d="M57.8,108.3c-11.5-8-23-16.1-34.6-23.9c-3.2-2.1-3.7-3.1-1-6.5c5.4-6.8,11-13.3,17.3-19.4c4.5-4.3,8.6-9.2,13.4-13.4
			c2.2-1.9,3.7-2,5.6,0.2C66.7,55,75,64.5,83.2,74.2c1.2,1.4,1.9,3.1,1.7,5c-3.2,3.6-6.2,7.4-9.6,10.8
			C69.3,95.9,64.6,103.2,57.8,108.3z"/>
		<path d="M272,108.7c6.6-8.8,12.1-16.7,18.2-24.1c7.1-8.6,9.8-18.6,10.7-29.3c0.4-5,0.6-10,2.9-14.8c3.1-6.5,8.5-9.1,15-10.3
			c3.6-0.7,7.1-1.2,10.8-0.9c1.1,0.1,2.9-0.9,3.2,1.2c0.3,1.6-1,2.4-2,3.2c-2.8,2.2-5.5,4.7-8.7,6.4c-4.1,2.3-5,5.4-4.3,9.7
			c1.1,6.7,8.8,13.9,14.7,13.4c4.3-0.4,6.7-3.9,9.8-6.1c2.1-1.5,4.1-3.3,6.1-5c0.8-0.8,1.8-1.1,2.7-0.7c1.1,0.5,0.8,1.8,0.6,2.7
			c-3.1,12-7.8,23.2-24.1,26.2c-8.5,1.5-14.4,7.1-19.5,13.4c-3.8,4.8-7.1,10.2-10.7,15.2c-1.8,2.6-3.7,4-7.4,2.2
			C284.9,108.6,279.2,106.5,272,108.7z M323.1,76.7c-5-2.9-9.3-6-12.4-10.3c-3-4.2-5.5-8.7-7.5-14.7
			C302.7,62.2,315.1,77.6,323.1,76.7z"/>
		<path d="M128.2,85c-0.2,0.1-0.3,0.2-0.5,0.1c-3-0.8-3.2,5.5-6.6,2.8c-2-1.6-3.4-3.9-5-6C105.5,68,95,54,84.2,40.3
			c-1.8-2.4-5.3-2.5-7.7-5.2C71,29,67.4,21.8,62.9,15.2c-0.7-0.9-1.4-1.9-2.2-2.6c-1.8-1.7-2.9-3.7-0.9-5.5c1.9-1.7,4.5-3.1,6.9-0.4
			c1.7,2,3.8,3.6,5.3,5.9c2.2,3.5,7.1,3.8,9.5,7.7c2.1,3.5,6.7,5.8,7.8,9.4c3.4,10.5,12.6,16,18.8,23.9c6.4,8.2,14,15.5,21.4,22.8
			c4.3,4.2,0,6.1-1.5,8.9L128.2,85z"/>
		<path d="M57.8,108.3c6.9-5.1,11.6-12.4,17.6-18.4c3.4-3.4,6.4-7.2,9.6-10.8c1.9-1.3,3.5-1.1,5.1,0.7c2.8,3,5.8,5.8,8.7,8.8
			c3.6,3.7,2.5,13.2-1.8,16.7c-4.3-3.6-8.7-6.7-14.2-2c-4.1,4.4-3.9,6.3,0.7,11c4,4,3.8,3.7-1.3,5.9c-7.1,3.1-12.5,1.2-17.1-4.3
			C62.8,113.2,58.4,112.5,57.8,108.3z"/>
		<path d="M211.9,89.2c-2.7,2.7-5.4,5.4-8.2,8.2c-2.4-4-1.9-8.5-1.9-12.8c0-8.3,0.2-16.6-0.1-24.9c-0.1-3.6,1.1-4.6,4.5-4.3
			c5.7,0.5,11.5,0.8,17.3,1c2.2,0.1,2.3,1.3,2.3,2.9c0,7.5-0.1,15,0,22.5c0,1.8-0.4,2.6-2.4,2.8C219.2,84.9,215.7,87.4,211.9,89.2z"
			/>
		<path d="M82.8,103.3c5.5-4.7,9.9-1.6,14.2,2c1.7,2.6,3.5,5.1,5.1,7.7c2.3,3.8,5.3,6.2,9.6,7.8c9,3.3,15.3,10.2,21.6,18.4
			c-5.2-0.2-10.3,2.1-11.3-4.8c-0.3-1.3,0.5-2.9-1.4-3.6c-0.9,1.9-1.8,3.7-2.7,5.6c-1.8,3.3-5.8,4.2-8.6,1.7c-2.2-2-4.3-4-5.4-7
			c-2-5.6-6.3-9.1-11.5-11.6c-2.4-1.2-4.3-2.9-6.4-4.5C81.7,111.8,81.1,108,82.8,103.3z"/>
		<path d="M128.1,85.1c3.5-0.6,4.9-4.1,7.9-5.5c1.6-0.8,2.8-2.2,4.3-3.2c8.9-6,9.5-5.7,16.1,2.7c4.4,5.6,9.2,10.7,13.9,16
			c1.3,1.4,2.1,2.4,0.3,4c-2.3,2-2.1-0.4-2.9-1.4c-3.9-5-8-10-11.8-15c-2.5-3.2-4.9-4.1-8.5-1.3c-9.4,7.2-18.8,14.3-26.1,23.9
			c-2,2.6-1.5,4.2,0.5,6.4c4.8,5.2,9.2,10.8,14.1,15.9c2.3,2.4,2,5.3,2.5,8.3c-6.8-7.8-13.6-15.6-20.4-23.4c-0.4-0.5-0.6-1.1-1-1.6
			c-5.9-7.1-5.9-7.7,0.6-14.7c3.5-3.8,7.1-7.4,10.7-11.2C128.2,85,128.1,85.1,128.1,85.1z"/>
		<path d="M176.1,138.9c15.7-12.2,52.3-16.4,78.3,0C227.9,138.9,201.9,138.9,176.1,138.9z"/>
		<path d="M185.8,95.3c1.9-2,2.5-4.6,3.1-7.2c-3.5-3.8-6.4-8-7.9-13c-2.1-7.2-2.2-14.7-4.9-21.8c-1-2.6-0.7-6.2,2.9-6.8
			c2.7-0.5,4.8,1.4,5.3,4.5c0.3,2.2,1.1,4.3,1.8,6.8c-2.3-1.3-2.1-3.4-2.5-6.2c-1.8,3.3-0.5,5.1,0.4,6.7c3.5,6.5,5.8,13.4,6,20.9
			c0.1,2,1.4,4,1.9,6c0.5,2.1,1.8,4.1-0.5,6.3c-1.6,1.6,0.1,4.2,1.1,5.3c1.6,1.6,1.9,3.6,3.1,5.3c0.7,0.9,2.8,3.7-0.4,4.9
			c-2.5,0.9-4.5,0.4-4.9-2.8c-0.1-0.8-0.6-1.5-0.9-2.2c-1.4,1.1,0.6,3.5-1.6,4.2c0,0,0.2,0.1,0.2,0.1
			C188.3,102.4,187,98.9,185.8,95.3z"/>
		<path d="M117.8,136.3c0.9-1.8,1.8-3.7,2.7-5.6c1.9,0.7,1.1,2.4,1.4,3.6c0,1.1-0.1,2.3-0.1,3.4c0,1.4-1,1.4-2,1.5
			C117.4,139.4,118,137.6,117.8,136.3z"/>
		<path d="M5,260.2c3.3,0,6.6,0.1,9.9,0c32.1-1.1,64.2-1.1,96.3-1c11.6,0,23.2-0.1,34.8,0.8c16.6,1.3,33.2-0.8,49.8-1.2
			c7.8-0.2,15.3-0.4,22.9,1.3c3.5,0.8,6.7-1.9,10.3-0.7c-7.1,3.3-14.2,0.7-21.2,0.6c-10.5,0-21,0.1-31.5,0.5
			c-1.7,0.1-3.6,0.5-5.4,0.5c-17.8,0-35.7-0.3-53.5,0.1c-22.3,0.5-44.5-1.5-66.8-1.1c-5.6,0.1-11.1,1.1-16.6,1.8
			c-4.9,0.7-9.8-1.3-14.8-0.9c-4.7,0.4-9.5,0.1-14.2,0.1C5,260.9,5,260.6,5,260.2z"/>
		<path d="M230.3,264.6c1.9-1.3,6.9-2.2,9.9-1.1c2.2,0.8,4.2,0.7,6.4,0.7c45.7,0,91.3,0,137,0c1.8,0,3.5,0,6.4,0
			c-2.6,1.4-4.3,1-5.9,1c-46.5,0-93,0-139.5,0.1c-4.8,0-9.4-1.9-14.3-0.8L230.3,264.6z"/>
		<ellipse cx="144.5" cy="252.8" rx="59.8" ry="0.3"/>
		<path d="M157.5,265.1c-27.8,0-55.5,0-83.3,0c0-0.2,0-0.3,0-0.5c27.8,0,55.6,0,83.5,0C157.6,264.8,157.6,264.9,157.5,265.1z"/>
		<path d="M244.2,252.5c25.2,0,50.3,0,75.5,0c0,0.2,0,0.3,0,0.5c-25.2,0-50.4,0-75.7,0C244.1,252.9,244.2,252.7,244.2,252.5z"/>
		<path d="M230.1,264.5c-0.6,0.3-1.2,0.7-1.7,0.7c-14.7,0-29.5,0-44.2-0.6c15.4,0,30.7,0,46.1,0
			C230.3,264.6,230.1,264.5,230.1,264.5z"/>
		<path d="M101.8,267.8c-11.6,0.2-23.3,1.3-34.8-1.4C78.5,267.8,90.2,267,101.8,267.8z"/>
		<path d="M88.6,241c-8.5,0-17.1,0-25.6,0c0-0.2,0-0.3,0-0.5c8.6,0,17.1,0,25.7,0C88.6,240.6,88.6,240.8,88.6,241z"/>
		<path d="M10,268.3c7.8,0,15.7,0,23.5,0c0,0.1,0,0.3,0,0.4c-7.9,0-15.7,0-23.6,0C10,268.6,10,268.5,10,268.3z"/>
		<path d="M37,264.5c6.2,0,12.4,0,18.6,0c0,0.1,0,0.3,0,0.4c-6.2,0-12.4,0-18.6,0C37,264.8,37,264.7,37,264.5z"/>
		<ellipse cx="253" cy="167.5" rx="128.4" ry="0.6"/>
		<path d="M354.4,160.8c-25.1-0.8-72.3,3.3-119.5,0C282.2,160.8,329.4,160.8,354.4,160.8z"/>
		<path d="M288.1,163.8c37.6,0,75.1,0,112.7,0C363.2,165.9,325.7,163.9,288.1,163.8z"/>
		<path d="M199.5,165c-32.8,0-65.6,0-98.5,0c0-0.3,0-0.7,0-1c32.9,0,65.8,0,98.7,0C199.7,164.3,199.6,164.6,199.5,165z"/>
		<path d="M31.2,166.6c29.1-0.8,58.2,1.8,87.3,1C89.4,168.2,60.3,168.7,31.2,166.6z"/>
		<path d="M388.7,170.3c-19.9,2.4-39.8,1.9-59.7,1.4C348.9,171.2,368.8,171.7,388.7,170.3z"/>
		<path d="M371.2,166.4c11.4,0,22.8,0,34.2,0c0,0.2,0,0.3,0,0.5c-11.5,0-23,0-34.4,0C371.1,166.7,371.2,166.6,371.2,166.4z"/>
		<ellipse cx="205.8" cy="171.7" rx="19.5" ry="0.3"/>
		<ellipse cx="251.8" cy="171.7" rx="19.4" ry="0.3"/>
		<path d="M42.2,171.5c8.5,0,17.1,0,25.6,0c0,0.2,0,0.3,0,0.5c-8.5,0-17.1,0-25.6,0C42.2,171.8,42.2,171.7,42.2,171.5z"/>
		<ellipse cx="176.4" cy="161.8" rx="17.4" ry="0.3"/>
		<path d="M254.4,145.8c1.8,0.1,3.6,0.4,5.4,0.4c27.3,0,54.6,0,81.9,0c1.6,0,3.3,0,5.4,0c-1.5,1.5-2.9,1-4.1,1
			c-28.1,0-56.3,0.1-84.4,0C257.3,147.2,255,148.7,254.4,145.8L254.4,145.8z"/>
		<path d="M162.4,145.7c-6.9,2-14.1,1.6-21.1,1.6c-12.2,0-24.3-0.4-36.5,0.1c-6.9,0.3-13.8,1.1-21.2,0.7c3.1-1.9,6.1-1.9,9.1-1.9
			c19,0,38-0.1,57,0.1C153.9,146.4,158.1,144.1,162.4,145.7C162.4,145.7,162.4,145.7,162.4,145.7z"/>
		<path d="M254.4,145.8c-9,1.1-18.1,2-27.2,1C236.2,144.6,245.3,144.9,254.4,145.8C254.4,145.8,254.4,145.8,254.4,145.8z"/>
		<path d="M160.6,150.1c9-1.6,17.6-6.5,27.2-3c-9.4-1.9-18,3.6-27.3,2.9C160.5,150,160.6,150.1,160.6,150.1z"/>
		<path d="M151,206.2c11.7-0.4,23.4-1.5,35.2-0.3c10.7,1.1,21.6,1.3,32.4-0.5c1.6-0.3,3.3-0.2,5-0.2c47.6,0,95.3,0.4,142.9-0.3
			c11.5-0.2,22.9,1.3,34.3,1.3c-1.8,0-3.6,0-5.4,0c-54.8,0-109.6,0-164.4,0.1c-8.2,0-16.4,1.4-24.6,1.7c-10.4,0.4-20.8-0.5-31.2-1.2
			c-1.9-0.1-3.9-0.5-5.9-0.5C163.2,206.2,157.1,206.2,151,206.2z"/>
		<path d="M342.5,214c-64.1,0-128.3,0-192.4,0c0-0.2,0-0.3,0-0.5c64.2,0,128.4,0,192.6,0C342.6,213.6,342.5,213.8,342.5,214z"/>
		<path d="M89.2,194.8c55.6-0.7,111.1,0.1,166.6-1C200.2,195.9,144.6,194.9,89.2,194.8z"/>
		<path d="M247.2,216.7c-47.6,0-95.4,0-142.5,0C109,215.8,245.8,215.8,247.2,216.7z"/>
		<path d="M237.1,200.5c42.2,0,84.4,0,126.6,0c0,0.2,0,0.3,0,0.5c-42.2,0-84.3,0-126.5,0C237.2,200.8,237.1,200.6,237.1,200.5z"/>
		<ellipse cx="135" cy="200.8" rx="84.5" ry="0.3"/>
		<path d="M50,216.4c15.2,2,30.2-1.8,45.4-0.3C80.3,217.7,65.2,219.5,50,216.4z"/>
		<path d="M367.5,216.8c-12.7,0-25.7,0-38.4,0C332.1,214.4,357.8,214.4,367.5,216.8z"/>
		<path d="M354.5,194c-15.9,0-31.7,0-47.6,0c0-0.2,0-0.3,0-0.5c15.9,0,31.7,0,47.6,0C354.6,193.7,354.5,193.8,354.5,194z"/>
		<path d="M25.2,194.5c12.5,0,25.1,0,38.7,0C50.3,197.5,37.7,194.4,25.2,194.5z"/>
		<path d="M352.6,223c-15.2,0-30.4,0-45.6,0c0-0.2,0-0.3,0-0.5c15.2,0,30.3,0,45.5,0C352.5,222.7,352.6,222.9,352.6,223z"/>
		<path d="M93.2,205.5c11.2,0,22.4,0,33.6,0c0,0.2,0,0.3,0,0.5c-11.2,0-22.4,0-33.7,0C93.1,205.9,93.2,205.7,93.2,205.5z"/>
		<path d="M35.2,223.7c8.8,0.3,17.5-2.4,27.1-1.2C52.9,224.7,44.1,224.2,35.2,223.7z"/>
		<path d="M111.1,190.5c7.6,0,15.1,0,22.7,0c0,0.2,0,0.3,0,0.5c-7.5,0-15.1,0-22.6,0C111.2,190.8,111.1,190.7,111.1,190.5z"/>
		<ellipse cx="178.8" cy="190.7" rx="15.3" ry="0.3"/>
		<path d="M386.5,191c-7.2,0-14.4,0-21.6,0c0-0.2,0-0.3,0-0.5c7.2,0,14.4,0,21.6,0C386.6,190.7,386.6,190.8,386.5,191z"/>
		<path d="M64.8,190.9c-6.3-0.6-12.5,2-19.9,1.1C52.2,190.3,58.4,189.8,64.8,190.9z"/>
		<ellipse cx="49.5" cy="201.8" rx="14.6" ry="0.3"/>
		<path d="M132.6,220c-6.5,0-13.1,0-19.6,0c0-0.2,0-0.3,0-0.5c6.6,0,13.1,0,19.7,0C132.6,219.6,132.6,219.8,132.6,220z"/>
		<path d="M363.2,219.4c6.1,0,12.2,0,18.3,0c0,0.2,0,0.3,0,0.5c-6.2,0-12.3,0-18.5,0C363.1,219.7,363.2,219.6,363.2,219.4z"/>
		<path d="M167.4,219.4c5.7,0,11.5,0,17.2,0c0,0.2,0,0.3,0,0.5c-5.9,0-11.8,0-17.7,0C167.1,219.8,167.3,219.6,167.4,219.4z"/>
	</g>
</g>
</svg>
