<svg width="24" height="24" viewBox="0 0 24 24" fill="none" xmlns="http://www.w3.org/2000/svg">
<path fill-rule="evenodd" clip-rule="evenodd" d="M9.207 14.793C11.525 17.111 13.678 18.403 15.28 19.121C16.679 19.748 18.33 19.256 19.617 17.969L19.911 17.674L16.375 15.424C15.703 16.404 14.432 16.979 13.163 16.444C12.202 16.038 10.93 15.344 9.793 14.207C8.656 13.07 7.963 11.798 7.557 10.837C7.021 9.56799 7.595 8.29699 8.576 7.62499L6.326 4.08899L6.031 4.38299C4.744 5.66999 4.253 7.32099 4.879 8.71999C5.597 10.322 6.889 12.475 9.207 14.793ZM14.463 20.946C12.648 20.133 10.291 18.705 7.793 16.207C5.295 13.71 3.867 11.352 3.053 9.53699C1.978 7.13699 2.96 4.62699 4.617 2.96899L4.911 2.67399C5.12275 2.46211 5.37938 2.30049 5.66195 2.20108C5.94453 2.10167 6.24582 2.06701 6.54359 2.09964C6.84135 2.13228 7.12799 2.23139 7.38232 2.38965C7.63665 2.5479 7.85218 2.76127 8.013 3.01399L10.843 7.46399C10.918 7.58203 10.9673 7.71448 10.9879 7.85278C11.0085 7.99108 10.9999 8.13217 10.9626 8.26692C10.9252 8.40168 10.8601 8.52711 10.7713 8.63512C10.6825 8.74313 10.572 8.83132 10.447 8.89399L9.814 9.21099C9.382 9.42699 9.294 9.80799 9.399 10.059C9.738 10.862 10.305 11.89 11.207 12.793C12.11 13.695 13.138 14.262 13.941 14.601C14.192 14.707 14.573 14.618 14.789 14.186L15.106 13.553C15.1686 13.4279 15.2567 13.3173 15.3647 13.2284C15.4726 13.1395 15.5981 13.0743 15.7328 13.0369C15.8676 12.9994 16.0087 12.9907 16.147 13.0112C16.2854 13.0318 16.4179 13.0811 16.536 13.156L20.986 15.987C21.2387 16.1478 21.4521 16.3633 21.6103 16.6177C21.7686 16.872 21.8677 17.1586 21.9003 17.4564C21.933 17.7542 21.8983 18.0555 21.7989 18.338C21.6995 18.6206 21.5379 18.8772 21.326 19.089L21.031 19.383C19.374 21.041 16.864 22.022 14.463 20.946Z" fill="black"/>
</svg>
